<?xml version="1.0" encoding="UTF-8"?>
<svg id="Layer_1" xmlns="http://www.w3.org/2000/svg" xmlns:ns1="http://ns.adobe.com/SaveForWeb/1.0/" version="1.1" viewBox="0 0 130 130">
  <!-- Generator: Adobe Illustrator 29.1.0, SVG Export Plug-In . SVG Version: 2.1.0 Build 142)  -->
  <defs>
    <style>
      .st0, .st1, .st2, .st3, .st4, .st5, .st6, .st7 {
        stroke: #1e1b1c;
      }

      .st0, .st3, .st4, .st5, .st6 {
        stroke-linecap: round;
        stroke-linejoin: round;
      }

      .st0, .st3, .st6 {
        stroke-width: 1.2px;
      }

      .st0, .st8 {
        fill: #9d55d6;
      }

      .st1, .st2, .st6 {
        fill: none;
      }

      .st1, .st2, .st7 {
        stroke-miterlimit: 10;
      }

      .st9 {
        fill: #1e1b1c;
      }

      .st2, .st4, .st5, .st7 {
        stroke-width: 1.1px;
      }

      .st3, .st4, .st7 {
        fill: #a256d8;
      }

      .st10 {
        fill: #f777bd;
      }

      .st11 {
        fill: #ff8764;
      }

      .st12 {
        fill: #fff;
      }

      .st5 {
        fill: #383636;
      }

      .st13 {
        fill: #ccfcfb;
      }
    </style>
  </defs>
  <path id="shape_2" class="st13" d="M66,1.8c-20.2,0-41.2,16.5-41.3,36.7,0,10.6,4.2,19.1,12,24.5l2.8-.5,1.2-.6c-4.1-3.4-7.7-11.2-7.6-18.7,0-11.1,10.2-30.2,30.9-30.3,18.8-.2,31.3,14.2,33.6,28.9,0,7.5-2.2,14.8-7.9,20.3l-.5,2.4c5.9-4.2,16.7-11.5,16.7-25,0-20.3-13.8-37.7-39.9-37.7Z"/>
  <path id="shape_3" class="st12" d="M43.9,14.6c-1.8-.9-6.4,2.5-8.3,6.4-.6,1.4-.2,2.8,1.5,1.9,1.6-.7,5.9-4.7,6.8-6.1.6-.8.7-1.7,0-2.2Z"/>
  <path id="shape_4" class="st12" d="M54.3,8.5c-1.8.3-7.3,2-8.1,3.4s.4,2.8,1.9,2.2c1.5-.8,4.8-2.3,7.7-3.2,3-1,2.4-3.2-1.5-2.4Z"/>
  <path id="shape_5" class="st6" d="M38.6,63.1c-5.2-3.6-13.6-9.4-13.6-24.1S38.7,2.3,66.3,2.3s40.3,19.2,39.9,36.2c0,11.8-6.7,19.2-14.1,25.1"/>
  <path id="shape_6" class="st13" d="M56.6,17.3"/>
  <g id="arm_a">
    <path id="shape_7" class="st3" d="M55.3,65.1c-.2,0-.4-.1-.6-.1-12.7,1.2-28.9,6.1-31.9-2.3-1.1-3.4-2-8.7-7.8-10.5-5.7-1.5-11.3,2.3-11.4,7.5,0,4.6,3.1,6.6,5.1,6,1.2-.3,1.9-1.9.7-2.8-1.5-1,.2-3.6,2.6-2.8,4.2,1.4,3.2,7.8,4.7,11.3.4.9,1.2,1.8,1.8,2.4.5.4-.4,4.3,5.2,5.4,2.1.4,2.9,3.4,9.2,2.8s.4,0,.5-.2l10.8-3.7s0-2.5.1-2.5l23.3-8.4c.8-.6-11.5-1.8-12.4-2.1h0Z"/>
    <path id="shape_8" class="st10" d="M16.2,66.1c1.9-.5,3.9,3.6,1.7,6.1-1.2-1.2-1.3-3.8-1.7-6.1Z"/>
    <path id="shape_9" class="st10" d="M19.3,73.9c2.2-1.4,6.7,1.5,5.3,5-4.1-.9-5.1-2.6-5.3-5Z"/>
    <path id="shape_10" class="st10" d="M25.4,79.4c1.5-2.3,7.2-2.2,7.8,2-4.1.6-6.2-.8-7.8-2Z"/>
  </g>
  <g id="arm_b">
    <path id="shape_11" class="st4" d="M74.8,55.7s16.1,15.3,17.1,15.6c3.2,1.1,10,2.6,12.9-5.8,1.2-3.4,2.3-9.5,9-11.1,6.3-1.3,11.3,2.5,11.3,7.5s-3.3,6.5-5.3,6.2c-1.5,0-2.2-1.7-.9-2.4,1.8-1.1.4-3.8-2.1-3.7-2.2,0-4,2.5-4,6.5s0,4.1-1.4,6.1c-.6.7,0,4.5-5.4,6.6-.9.3-2.7,4-9.4,3.9,0,0-1.9,1.3-2.5,1-14.7-6.8-20.3-22.2-23.2-26.2s3.9-4.2,3.9-4.2Z"/>
    <path id="shape_12" class="st10" d="M112.3,66.6c-2.3.4-2.6,3-.4,5.5.4-1.1.2-3.2.4-5.5Z"/>
    <path id="shape_13" class="st10" d="M110.7,74.8c-3.1-.6-5.2,2.1-3.3,5.1,2.5-1.4,2.8-3.1,3.3-5.1Z"/>
    <path id="shape_14" class="st10" d="M104.7,81.5c-1.6-2.3-6.4-1.2-6.6,1.7.2,2.5,5,.2,6.6-1.7Z"/>
  </g>
  <path id="shape_30" class="st2" d="M47.2,79.9"/>
  <path id="shape_31" class="st7" d="M58.5,83.6"/>
  <path id="shape_42" class="st1" d="M86.7,102.2"/>
  <path class="st0" d="M41.8,75.6"/>
  <g id="arm_c">
    <path id="shape_15" class="st0" d="M99,85.9c-4.2-2.6-24.6-24.7-26.4-27.9,0,0,2.6,1.1-2,1.1-17.7,9.6,16.2,34.3,16.2,34.3,1.4,2.4,3.1,4.1,4,4.5,2.4,2.1,3.9,4.2,7.8,3.2.5-.2,3.2,2.9,8,.9,1.3-.6,5,1.4,8-2.2,1.1-1.3,3-.4,5.1-5.5,2-4.3,6.4-3.5,6-.4-.3,1-2.1,1.1-2,2.2.4,3.4,6.9,2.8,7.6-2.6.5-7-6.6-13-14.6-8.6-2,1.2-4.6,3.9-10.1,3.7-3.4,0-5.5-1.2-6.8-2.1l-.7-.6h0Z"/>
    <path id="shape_26" class="st10" d="M91.5,97.5c2-1,4-1,5.4,0,.9.7,1.1,2,1,3-2.6.7-4.8-1.4-6.4-3Z"/>
    <path id="shape_27" class="st10" d="M98.9,100.4c1.1.4,3.3,2.8,7.9.8v-.2c-.5-2.4-5.1-3.1-7.9-.6Z"/>
    <path id="shape_28" class="st10" d="M108,101.2c-.4-2.7,4-4.8,6.6-2.2-1.9,2.6-4.2,2.6-6.6,2.2Z"/>
    <path id="shape_29" class="st10" d="M115.7,98.3c-1.8-1.8.2-5.7,3.6-4.5-.7,1.9-1.9,3.8-3.6,4.5Z"/>
  </g>
  <path id="shape_151" class="st0" d="M67.3,59.4c-6.6,0-2.7,34.6-.7,36,1.1,2.4,2.2,4,3.1,4.8,0,3.3,2,5.1,3.9,6.1,0,1-.5,2.9,1,5.1.5,1,0,2.1-.4,2.8-1,1.1-1.3,4.1.6,5-.6,3.5,1.5,7,5.3,7.6,2.2.2,3.2-.4,3.2-2-.4-2.1-.5-2.5.4-4.9,2.1-4.6,4-8.5,3.4-13.2-.5-5.3-2.4-13.3-4.5-16.9l-1.9-11.4c-1.2-17.7-1.4-19-13.4-19Z"/>
  <g id="arm_g">
    <path id="shape_43" class="st10" d="M74.3,106.5c2.4-.7,3.2,3.9,1.1,5.1-1.1-1.4-1.3-3.3-1.1-5.1Z"/>
    <path id="shape_44" class="st10" d="M75.3,113.7c2.8,2,1.2,3.9-.7,4.7-1-1.9,0-3.2.7-4.7Z"/>
    <path id="shape_45" class="st10" d="M70.4,100.2c3.3.8,5,3.8,3.6,5.7-3.6-1.9-3.6-5-3.6-5.7Z"/>
  </g>
  <g id="arm_d">
    <path id="shape_152" class="st0" d="M57,73.4c-.8,7.5-9.6,22.9-8.1,29.9-1.4,4.7-.3,10-.2,13,.2,3.5-1.1,7.2-3.7,7.2s-3.4-.6-3.4,1.6,2,3.7,5.8,3.7c4.2-.2,6.3-1.5,9.8-4.7,2.5-2.1,2.7-4.6,2.2-6.7-.2-1,2.7-2.4,1-7-.5-1.3,3-3,1.6-8.1,0-.8,1.4-2.1,1-5.2,1.9.9,11.1-30.4,9.3-33.6l-4.6-2.1s-9.4-.7-10.7,12Z"/>
    <g id="tentacle_05">
      <path id="shape_23" class="st10" d="M59.3,116.8c-2.4-.4-1.4-4.9,1-5.2.7,2.1,0,3.6-1,5.2Z"/>
    </g>
    <g id="tentacle_06">
      <path id="shape_24" class="st10" d="M60.4,109.2c-2.2-2.9-.8-5.2,1.3-5.6.6,3.1,0,4.2-1.3,5.6Z"/>
    </g>
    <g id="tentacle_07">
      <path id="shape_25" class="st10" d="M61.5,102.4c-2.2-2.1-1.3-4.6,1.1-5.1,1.1,2.7-.7,4.7-1.1,5.1Z"/>
    </g>
  </g>
  <g id="arm_f">
    <path id="shape_154" class="st0" d="M29.2,83.7c-6.8,0-8.4-2.8-12.2-5.2-2.1-1.4-6.7-3.4-10.8-1.1-5.8,3.1-6,10.7-1.5,13,3.2,1.1,5.5-.3,4.2-2.4-.5-.5-1.5-.6-1.5-1.9s3.3-4.2,6,.6c1.3,3.4,2.3,4.9,4.3,5.9,1.3,1.2,1.3,3,6.6,4.5s9.4.2,11.9-1.3c26.8-20.8,23.4-24.2,22.2-31.2-.9,0-7.8-2.4-8.5-2.6-4.7.6-13.9,20-20.6,21.8h-.1Z"/>
    <path id="shape_18" class="st10" d="M13.6,86.4c1.6-2,5.8,1.4,3.9,5.1-2.3-1-3.1-2.9-3.9-5.1Z"/>
    <g id="tentacle_01">
      <path id="shape_19" class="st10" d="M18.1,92.3c.9-1.1,2.9-.9,4.4-.4,2.3.7,3.7,2.2,3.1,3.9-2.4.6-6-.7-7.5-3.5Z"/>
    </g>
  </g>
  <g id="arm_e">
    <path id="shape_153" class="st0" d="M62.7,64.1l-8.4-1.7c1.8,3.3-16.4,33.9-29.1,36.5-2.6,1.1-8.9,4.4-8.9,10,.1,7.1,6.9,9,10.5,7.4,2.8-1,2.5-3.7,1.5-4-.9,0-2.5,1-3.2,0-1.9-2.4,1.6-5.3,4.7-4.2,3.6,2.8,7.7-.3,8.5-1.1,4.6,1,9-2.6,9.4-6.1,5.2-.5,16.8-33.6,15-36.8Z"/>
    <g id="tentacle_03">
      <path id="shape_21" class="st10" d="M31.5,108.3c.5-3.5,6-4.3,7-1.8-1.9,2-5.2,2.4-7,1.8Z"/>
    </g>
    <g id="tentacle_04">
      <path id="shape_22" class="st10" d="M39.5,106.5c-.4-3.6,5.5-5,6.6-3.2,0,0-1,1.3-1.5,1.6-1.4,1.1-2.3,1.8-5.1,1.6Z"/>
    </g>
    <g id="tentacle_02">
      <path id="shape_20" class="st10" d="M50.6,94.5c.8,0,1.5.6,1.8,1.2,0,0-1.5,2.1-2.2,2.9-1.6,1.7-2.8,1.7-2.8,1.7-.2-.6-.6-1.6-.4-2.8.2-2,1.7-3.4,3.7-3.1h0Z"/>
    </g>
  </g>
  <path id="shape_155" class="st8" d="M81.2,68.1l-35.9-.7c-18.6-1.3-8.1,8.6-7.7,8.9,4,3.3,5.8,8.2,9.2,8.1,11.6-.4,22.5-2.7,32.5-.6s9.1-.4,11.8-5.9,4-3.5,4-3.5c-5.7-4.3-9.8-6.2-13.9-6.3Z"/>
  <path id="shape_17" class="st5" d="M89.9,62.5c-3.2,1.9-8.3,4.9-24.8,5-11,0-19.6-1.4-25.7-5.3-3.8-2.1-5.5,2.4-2.5,5.3,3.7,3.9,12.5,6.6,28.7,6.7,8.5,0,16.8-.7,21.8-3.1,6.5-2.9,7-6.2,5.1-8.7-.8-.5-1.6-.3-2.6.1Z"/>
  <path class="st6" d="M124,15.7"/>
  <path id="shape_16" class="st4" d="M65.7,12.8c-18.6,0-32.2,14.5-32.2,30.2s4.5,18,10.7,21.8c4.3,2.3,12.3,3.6,21.5,3.6s18.3-.8,22.3-3.9c4.8-3.7,10-10.5,10-21.7s-11.7-30-32.3-30Z"/>
  <path id="shape_40" class="st10" d="M43.5,50.1c-2,0-4.8,1.8-4.8,4.5s2.2,4.6,4.5,4.5c2.4,0,4.9-1.7,4.8-4.5,0-2.5-2.1-4.5-4.5-4.5Z"/>
  <path id="shape_41" class="st10" d="M87.2,50.1c-2.3,0-4.7,1.8-4.6,4.5,0,2.5,2,4.5,4.6,4.5s4.4-1.9,4.5-4.4c0-2.3-2-4.6-4.5-4.6Z"/>
  <path id="shape_38" class="st9" d="M59.4,50.9c-1,0-1.2.5-1,2.5.5,2.6,2.2,5.6,6.5,5.7,5.5,0,7.6-3.6,7.3-7.2-.2-.8-.6-1.4-1.6-1.3-2.5.8-6.9,1.1-11.2.3Z"/>
  <path id="shape_39" class="st11" d="M65.1,54.6c-1.7,0-4.2,1.1-4,2,1.3,2.4,6.8,2.6,8.1,0,.7-.7-1.8-2-4.1-2Z"/>
  <circle id="eye_left" class="st9" cx="51.7" cy="43.9" r="6.6"/>
  <path id="shape_35" class="st13" d="M49.1,39.8c-.9,0-2,.6-1.9,2,.3,2.6,3.7,2.6,3.8,0,0-1.2-.9-2-1.9-2Z"/>
  <circle id="eye_right" class="st9" cx="79" cy="44" r="6.6"/>
  <path id="shape_351" class="st13" d="M76.4,39.9c-.9,0-2,.6-1.9,2,.3,2.6,3.7,2.6,3.8,0,0-1.2-.9-2-1.9-2Z"/>
  <path id="shape_71" class="st3" d="M57.8,34.8c-2.2-3.1-10.4-3-12.4,0"/>
  <path id="shape_72" class="st3" d="M72.9,34.8c2.1-3,9.8-2.9,11.7,0"/>
  <metadata>
    <ns1:sfw>
      <ns1:slices/>
      <ns1:sliceSourceBounds x="1.16" y="1.36" width="127.56" height="126.94" bottomLeftOrigin="true"/>
    </ns1:sfw>
    <ns1:sfw>
      <ns1:slices/>
      <ns1:sliceSourceBounds x="1.16" y="1.36" width="127.56" height="126.94" bottomLeftOrigin="true"/>
    </ns1:sfw>
    <sfw xmlns="http://ns.adobe.com/SaveForWeb/1.0/">
      <slices/>
      <sliceSourceBounds x="0.94" y="0.6" width="130.88" height="127.7" bottomLeftOrigin="true"/>
    </sfw>
  </metadata>
</svg>
