<?xml version="1.0" encoding="UTF-8"?>
<svg id="Layer_1" xmlns="http://www.w3.org/2000/svg" xmlns:ns1="http://ns.adobe.com/SaveForWeb/1.0/" version="1.1" viewBox="0 0 130 130">
  <!-- Generator: Adobe Illustrator 29.1.0, SVG Export Plug-In . SVG Version: 2.1.0 Build 142)  -->
  <defs>
    <style>
      .st0, .st1, .st2, .st3, .st4, .st5, .st6, .st7 {
        stroke: #1e1b1c;
      }

      .st0, .st3, .st4, .st5, .st6 {
        stroke-linecap: round;
        stroke-linejoin: round;
      }

      .st0, .st3, .st6 {
        stroke-width: 1.2px;
      }

      .st0, .st8 {
        fill: #9d55d6;
      }

      .st1, .st2, .st6 {
        fill: none;
      }

      .st1, .st2, .st7 {
        stroke-miterlimit: 10;
      }

      .st9 {
        fill: #1e1b1c;
      }

      .st2, .st4, .st5, .st7 {
        stroke-width: 1.1px;
      }

      .st3, .st4, .st7 {
        fill: #a256d8;
      }

      .st10 {
        fill: #f777bd;
      }

      .st11 {
        fill: #ff8764;
      }

      .st12 {
        fill: #fff;
      }

      .st5 {
        fill: #383636;
      }

      .st13 {
        fill: #ccfcfb;
      }
    </style>
  </defs>
  <g id="arm_f">
    <path id="shape_154" class="st0" d="M32.9,93.7c-4.4,5.2-3.3,8.2-4,12.6-.3,2.5-1.8,7.3-6.2,8.9-6.1,2.4-11.9-2.3-10.7-7.2,1.2-3.1,3.8-4,4.5-1.7,0,.7-.5,1.5.5,2.4s5.3.2,3.4-5c-1.7-3.2-2.2-4.9-1.6-7,0-1.8-1.4-2.9.9-7.9s5.9-7.3,8.7-8.2c20-15.5,14.1-46.4,36.4-18.1-.6.7-6.3,6.6-6.6,7.3-3.5,3.2-19.6,19.8-25.3,23.8h0s0,0,0,0Z"/>
    <path id="shape_18" class="st10" d="M20.8,103.8c2.5,0,2.7-5.3-1.3-6.2-.7,2.4.2,4.2,1.3,6.2Z"/>
    <g id="tentacle_01">
      <path id="shape_19" class="st10" d="M19.2,96.6c1.4,0,2.6-1.6,3.2-3.1,1-2.2.7-4.2-.9-4.9-2,1.4-3.4,5-2.2,8h-.1Z"/>
    </g>
  </g>
  <path id="shape_2" class="st13" d="M66,1.8c-20.2,0-41.2,16.5-41.3,36.7,0,10.6,4.2,19.1,12,24.5l2.8-.5,1.2-.6c-4.1-3.4-7.7-11.2-7.6-18.7,0-11.1,10.2-30.2,30.9-30.3,18.8-.2,31.3,14.2,33.6,28.9,0,7.5-2.2,14.8-7.9,20.3l-.5,2.4c5.9-4.2,16.7-11.5,16.7-25,0-20.3-13.8-37.7-39.9-37.7Z"/>
  <path id="shape_3" class="st12" d="M43.9,14.6c-1.8-.9-6.4,2.5-8.3,6.4-.6,1.4-.2,2.8,1.5,1.9,1.6-.7,5.9-4.7,6.8-6.1.6-.8.7-1.7,0-2.2Z"/>
  <path id="shape_4" class="st12" d="M54.3,8.5c-1.8.3-7.3,2-8.1,3.4s.4,2.8,1.9,2.2c1.5-.8,4.8-2.3,7.7-3.2,3-1,2.4-3.2-1.5-2.4Z"/>
  <path id="shape_5" class="st6" d="M38.6,63.1c-5.2-3.6-13.6-9.4-13.6-24.1S38.7,2.3,66.3,2.3s40.3,19.2,39.9,36.2c0,11.8-6.7,19.2-14.1,25.1"/>
  <path id="shape_6" class="st13" d="M56.6,17.3"/>
  <path id="shape_30" class="st2" d="M47.2,79.9"/>
  <path id="shape_31" class="st7" d="M58.5,83.6"/>
  <path id="shape_42" class="st1" d="M23.3,63.2"/>
  <path class="st0" d="M41.8,75.6"/>
  <g id="arm_c">
    <path id="shape_15" class="st0" d="M90.6,91.8c-2.8-4-25.2-22.9-28.4-24.5,0,0,1.2,2.5.9-2.1,8-18.3,33.8,13.9,33.8,13.9,2.4,1.2,4.1,2.8,4.6,3.7,2.2,2.3,4.3,3.6,3.6,7.6-.2.5,3,3,1.4,7.9-.5,1.3,1.7,4.9-1.6,8.1-1.2,1.2-.2,3-4.9,5.4-4,2.3-2.9,6.6,0,6,.9-.4.9-2.2,2-2.1,3.3.2,3.1,6.7-2,7.8-6.6,1-12.8-5.7-9.2-14,1-2.1,3.4-4.8,2.8-10.3-.2-3.4-1.5-5.4-2.5-6.6l-.6-.7h0Z"/>
    <path id="shape_26" class="st10" d="M101.2,83.6c-.8,2.1-.7,4.1.4,5.4.7.9,2,1,2.9.8.5-2.6-1.7-4.7-3.3-6.2Z"/>
    <path id="shape_27" class="st10" d="M104.5,90.8c.5,1.1,2.9,3.1,1.3,7.8h-.2c-2.3-.3-3.3-4.9-1.1-7.8Z"/>
    <path id="shape_28" class="st10" d="M105.8,99.8c-2.6-.2-4.3,4.3-1.7,6.7,2.4-2.1,2.2-4.4,1.7-6.7Z"/>
    <path id="shape_29" class="st10" d="M103.6,107.7c-1.8-1.7-5.4.6-4,3.9,1.8-.8,3.5-2.1,4-3.9Z"/>
  </g>
  <g>
    <path id="shape_151" class="st0" d="M80.1,56.5c-7.3-1.7-13.7,33.5-11.9,35.5.5,2.6,1.2,4.5,2,5.6-1,3.3.6,5.6,2.5,7.1-.3.9-1.5,2.7-.4,5.3.2,1.1-.6,2.1-1.3,2.7-1.4.8-2.7,3.7-.9,5.1-1.8,3.3-.5,7.3,3.6,8.9,2.4.8,3.7.4,4.2-1.2.2-2.2.2-2.6,2-4.8,3.8-4,7-7.4,7.9-12.2,1.1-5.3,1.4-13.8.2-17.9l1.4-11.8c4.2-17.8,4.3-19.2-9-22.3h-.1Z"/>
    <g id="arm_g">
      <path id="shape_43" class="st10" d="M73.3,104.9c2.9,0,2.4,4.7-.3,5.4-.8-1.7-.3-3.6.3-5.4Z"/>
      <path id="shape_44" class="st10" d="M72.3,112.2c2.5,2.6.1,4.2-2.2,4.5-.5-2.1,1-3.2,2.2-4.5Z"/>
      <path id="shape_45" class="st10" d="M71,97.6c3.4,1.6,4.4,5,2.2,6.6-3.4-2.8-2.5-5.8-2.2-6.6Z"/>
    </g>
  </g>
  <g id="arm_d">
    <path id="shape_152" class="st0" d="M57,73.4c-.8,7.5-9.6,22.9-8.1,29.9-1.4,4.7-.3,10-.2,13,.2,3.5-1.1,7.2-3.7,7.2s-3.4-.6-3.4,1.6,2,3.7,5.8,3.7c4.2-.2,6.3-1.5,9.8-4.7,2.5-2.1,2.7-4.6,2.2-6.7-.2-1,2.7-2.4,1-7-.5-1.3,3-3,1.6-8.1,0-.8,1.4-2.1,1-5.2,1.9.9,11.1-30.4,9.3-33.6l-4.6-2.1s-9.4-.7-10.7,12h0Z"/>
    <g id="tentacle_05">
      <path id="shape_23" class="st10" d="M59.3,116.8c-2.4-.4-1.4-4.9,1-5.2.7,2.1,0,3.6-1,5.2Z"/>
    </g>
    <g id="tentacle_06">
      <path id="shape_24" class="st10" d="M60.4,109.2c-2.2-2.9-.8-5.2,1.3-5.6.6,3.1,0,4.2-1.3,5.6Z"/>
    </g>
    <g id="tentacle_07">
      <path id="shape_25" class="st10" d="M61.5,102.4c-2.2-2.1-1.3-4.6,1.1-5.1,1.1,2.7-.7,4.7-1.1,5.1Z"/>
    </g>
  </g>
  <g id="arm_e">
    <path id="shape_153" class="st0" d="M58.1,67.1l4.7,5.9c-3.7,0-24.3,27.6-21.8,38.7,0,2.5-.6,8.9-5.6,11.3-6.4,3-10.7-1.5-10.6-5-.2-2.6,2.4-3.6,3-2.9.3.7,0,2.4,1.2,2.5,2.9.4,4.2-3.6,2-5.5-3.9-1.6-2.7-6.2-2.2-7.2-2.6-3.2-1.1-8.2,1.9-10-1.5-4.3,23.9-27.8,27.4-27.8Z"/>
    <g id="tentacle_03">
      <path id="shape_21" class="st10" d="M30.2,110.8c3-1.9,1.6-6.6-1-6.3-1.1,2.4-.2,5.1,1,6.3Z"/>
    </g>
    <g id="tentacle_04">
      <path id="shape_22" class="st10" d="M28.7,103.7c3.4-1.3,2.4-6.5.4-6.6,0,0-.8,1.4-.9,1.9-.5,1.6-.7,2.6.5,4.7Z"/>
    </g>
    <g id="tentacle_02">
      <path id="shape_20" class="st10" d="M35.3,89.8c-.3-.6-1.1-.9-1.8-.9,0,0-1.3,2.1-1.8,3-.9,2-.5,2.9-.5,2.9.6,0,1.7-.2,2.7-.9,1.7-1,2.4-2.8,1.4-4.3h0v.2Z"/>
    </g>
  </g>
  <path id="shape_155" class="st8" d="M83.8,68.4l-36.8-.8c-19.1-1.6-8.3,10.2-8,10.5,4.1,3.9,5.9,9.7,9.4,9.6,11.9-.4,23.1-3.2,33.4-.7,10.2,2.5,9.3-.4,12.2-6.9,2.7-6.5,4.1-4.1,4.1-4.1-4.3-9.1-10.1-7.4-14.3-7.5Z"/>
  <path id="shape_17" class="st5" d="M89.9,62.5c-3.2,1.9-8.3,4.9-24.8,5-11,0-19.6-1.4-25.7-5.3-3.8-2.1-5.5,2.4-2.5,5.3,3.7,3.9,12.5,6.6,28.7,6.7,8.5,0,16.8-.7,21.8-3.1,6.5-2.9,7-6.2,5.1-8.7-.8-.5-1.6-.3-2.6.1Z"/>
  <path class="st6" d="M124,15.7"/>
  <path id="shape_16" class="st4" d="M65.7,12.8c-18.6,0-32.2,14.5-32.2,30.2s4.5,18,10.7,21.8c4.3,2.3,12.3,3.6,21.5,3.6s18.3-.8,22.3-3.9c4.8-3.7,10-10.5,10-21.7s-11.7-30-32.3-30Z"/>
  <path id="shape_40" class="st10" d="M43.5,50.1c-2,0-4.8,1.8-4.8,4.5s2.2,4.6,4.5,4.5c2.4,0,4.9-1.7,4.8-4.5,0-2.5-2.1-4.5-4.5-4.5Z"/>
  <path id="shape_41" class="st10" d="M87.2,50.1c-2.3,0-4.7,1.8-4.6,4.5,0,2.5,2,4.5,4.6,4.5s4.4-1.9,4.5-4.4c0-2.3-2-4.6-4.5-4.6Z"/>
  <path id="shape_38" class="st9" d="M59.4,50.9c-1,0-1.2.5-1,2.5.5,2.6,2.2,5.6,6.5,5.7,5.5,0,7.6-3.6,7.3-7.2-.2-.8-.6-1.4-1.6-1.3-4.6,3.3-7.5,3.2-11.2.3Z"/>
  <path id="shape_39" class="st11" d="M65.1,54.6c-1.7,0-4.2,1.1-4,2,1.3,2.4,6.8,2.6,8.1,0,.7-.7-1.8-2-4.1-2Z"/>
  <circle id="eye_left" class="st9" cx="51.7" cy="43.9" r="6.6"/>
  <path id="shape_35" class="st13" d="M49.1,39.8c-.9,0-2,.6-1.9,2,.3,2.6,3.7,2.6,3.8,0,0-1.2-.9-2-1.9-2Z"/>
  <circle id="eye_right" class="st9" cx="79" cy="44" r="6.6"/>
  <path id="shape_351" class="st13" d="M76.4,39.9c-.9,0-2,.6-1.9,2,.3,2.6,3.7,2.6,3.8,0,0-1.2-.9-2-1.9-2Z"/>
  <path id="shape_71" class="st3" d="M57.8,34.8c-2.2-3.1-10.4-3-12.4,0"/>
  <path id="shape_72" class="st3" d="M72.9,34.8c2.1-3,9.8-2.9,11.7,0"/>
  <g id="arm_b">
    <path id="shape_11" class="st4" d="M91.7,69.6s4,5.7,3.6,6.3c-1.3,2.1-4.4,4.9-10.5-1.6-2.5-2.6-6.3-7.6-11.2-6.7-4.4,1.1-5.5,6.2-2.9,10.6,2.6,4.4,5.4,4.6,6.4,3.7.9-.5.4-2.3-.7-2.5-1.6-.3-3.3-5.6-1.7-6.4,1.3-.8,4.8,3.3,6.8,6.8s2.1,3.6,4,4.9c.7.4,2.3,4,6.7,4,.7,0,3.7,2.6,7.6.2,0,0,1.3-2.2,1.5-2.7,3.9-.4,8.2-1.5,9.4-6.8,3.4-16-10.7-13-10.7-13l-8.3,3.2Z"/>
    <path id="shape_12" class="st10" d="M80.8,78c1.6-.5,3.1,1.8,3.2,4.8-.8-.8-1.8-2.8-3.2-4.8Z"/>
    <path id="shape_13" class="st10" d="M86.1,84.8c1.5-1.6,4.2,0,4.6,3.4-2.2-.3-3.3-1.8-4.6-3.4Z"/>
    <path id="shape_14" class="st10" d="M93.1,88.6c-.3-2.6,3.2-3.3,4.9-.8,1.2,2.3-2.9,1.9-4.9.8Z"/>
  </g>
  <g id="arm_a">
    <path id="shape_7" class="st3" d="M26.6,65.3c17.8,4.1,7.4,4.6,8.8,5.8,4.9,4.2,8.5,5.5,15.7.7,2.9-2,6.7-5.5,11.5-3.8,4.6,1.9,5.7,7.7,2.6,11.6-2.9,3.4-6.1,3.3-7,1.8-.6-.9,0-2.4,1.3-2.5,1.5,0,2.7-4.7.6-5.4-3.6-1.1-7.5,6.1-10.6,7.9-.8.4-1.9.7-2.6.9-.5,0-2.4,3.4-6.7,1.3-1.6-.8-4,1.1-7.6-2.8-1.6,1.6-2.2,1.9-2.2,1.9,0,0-2.1,1-2.2.9,0,0,.3-.7-1.6-.8s-3.2.5-6.6-1.2-4.7-5.5-3-10.7,5.9-6.5,9.6-5.7Z"/>
    <path id="shape_8" class="st10" d="M53.1,77.9c-.9-1.3-4.8.7-4.9,3.7,1.5-.3,3.2-2.2,4.9-3.7Z"/>
    <path id="shape_9" class="st10" d="M46.2,82c-.5-2.3-5.2-2.4-6.5.9,3.1,1.5,4.9.8,6.5-.9Z"/>
    <path id="shape_10" class="st10" d="M38.9,83c.5-2.5-3.2-5.4-6.2-2.6,2.2,2.6,4.4,2.7,6.2,2.6Z"/>
  </g>
  <metadata>
    <ns1:sfw>
      <ns1:slices/>
      <ns1:sliceSourceBounds x="1.16" y="1.36" width="127.56" height="126.94" bottomLeftOrigin="true"/>
    </ns1:sfw>
    <ns1:sfw>
      <ns1:slices/>
      <ns1:sliceSourceBounds x="1.16" y="1.36" width="127.56" height="126.94" bottomLeftOrigin="true"/>
    </ns1:sfw>
    <sfw xmlns="http://ns.adobe.com/SaveForWeb/1.0/">
      <slices/>
      <sliceSourceBounds x="11.24" y="0.6" width="112.76" height="127.7" bottomLeftOrigin="true"/>
    </sfw>
  </metadata>
</svg>