<?xml version="1.0" encoding="UTF-8"?>
<svg id="Layer_1" xmlns="http://www.w3.org/2000/svg" xmlns:ns1="http://ns.adobe.com/SaveForWeb/1.0/" version="1.1" viewBox="0 0 130 130">
  <!-- Generator: Adobe Illustrator 29.1.0, SVG Export Plug-In . SVG Version: 2.1.0 Build 142)  -->
  <defs>
    <style>
      .st0, .st1, .st2, .st3, .st4, .st5, .st6, .st7 {
        stroke: #1e1b1c;
      }

      .st0, .st3, .st4, .st5, .st6 {
        stroke-linecap: round;
        stroke-linejoin: round;
      }

      .st0, .st3, .st6 {
        stroke-width: 1.2px;
      }

      .st0, .st8 {
        fill: #9d55d6;
      }

      .st1, .st2, .st6 {
        fill: none;
      }

      .st1, .st2, .st7 {
        stroke-miterlimit: 10;
      }

      .st9 {
        fill: #1e1b1c;
      }

      .st2, .st4, .st5, .st7 {
        stroke-width: 1.1px;
      }

      .st3, .st4, .st7 {
        fill: #a256d8;
      }

      .st10 {
        fill: #f777bd;
      }

      .st11 {
        fill: #ff8764;
      }

      .st12 {
        fill: #fff;
      }

      .st5 {
        fill: #383636;
      }

      .st13 {
        fill: #ccfcfb;
      }
    </style>
  </defs>
  <path id="shape_2" class="st13" d="M65.4.9C45.2.9,24.2,17.4,24.1,37.6c0,10.6,4.2,19.1,12,24.5l2.8-.5,1.2-.6c-4.1-3.4-7.7-11.2-7.6-18.7,0-11.1,10.2-30.2,30.9-30.3,18.8-.2,31.3,14.2,33.6,28.9,0,7.5-2.2,14.8-7.9,20.3l-.5,2.4c5.9-4.2,16.7-11.5,16.7-25C105.3,18.3,91.5.9,65.4.9Z"/>
  <path id="shape_3" class="st12" d="M43.3,13.7c-1.8-.9-6.4,2.5-8.3,6.4-.6,1.4-.2,2.8,1.5,1.9,1.6-.7,5.9-4.7,6.8-6.1.6-.8.7-1.7,0-2.2Z"/>
  <path id="shape_4" class="st12" d="M53.7,7.6c-1.8.3-7.3,2-8.1,3.4s.4,2.8,1.9,2.2c1.5-.8,4.8-2.3,7.7-3.2,3-1,2.4-3.2-1.5-2.4Z"/>
  <path id="shape_5" class="st6" d="M38,62.2c-5.2-3.6-13.6-9.4-13.6-24.1S38.1,1.4,65.7,1.4s40.3,19.2,39.9,36.2c0,11.8-6.7,19.2-14.1,25.1"/>
  <path id="shape_6" class="st13" d="M56,16.4"/>
  <g id="arm_a">
    <path id="shape_10" class="st10" d="M32.4,80.1"/>
  </g>
  <g id="arm_b">
    <path id="shape_13" class="st10" d="M127.3,68.3"/>
  </g>
  <path id="shape_30" class="st2" d="M46.6,79"/>
  <path id="shape_31" class="st7" d="M57.9,82.7"/>
  <path id="shape_42" class="st1" d="M66.6,104.4"/>
  <path class="st0" d="M41.2,74.7"/>
  <g id="arm_c1">
    <path class="st0" d="M114.8,33.4c-4.6,0-7.8,4.7-5.3,5.4.8.2,1.7-1.1,2.6-1.2,2.7,0,1.4,3.3-2.9,4.4-5,1.1-5,2.6-6.5,3.3-4.1,1.9-4.2,4.7-5.2,5.7-3.7,3.4-2.4,5.7-2.8,6.1-2.5,2.8-1.5,4.1-.9,6.1,0,.7-.5,2.4,1.4,3.6-.3-.7-6.7-3.2-4.5,5.5-1.2,3.8.2-2.2-1.2,1s-6.1,5.7-5.9,10.2c0,0,1.4,2.3,2.1,2.2,15.9-1.2,16.6-5.5,21.2-9.6,0-1.2,2.8-4.6,2.8-5.5.7-.4-2.9-12.2-2.9-12.2l-.2-.5c0-1,0-2.7,1.3-5.2,2.2-4.1,5.5-5.7,7.3-7.1,6.9-5.5,5.2-11.2-.5-11.5v-.7Z"/>
    <path id="shape_261" class="st10" d="M95.3,65.7c1.4-1.7,2-3.7,1.4-5.2-.4-1-1.4-1.4-2.4-1.4-1.4,2.5,0,4.8.9,6.7h0Z"/>
    <path id="shape_271" class="st10" d="M95.3,56.2c.3-1-.2-3.6,3.4-6h0c1.4,1.5-.4,5.1-3.5,6.1h0Z"/>
    <path id="shape_281" class="st10" d="M98.9,49.3c1.7,1.1,5.7-1.5,5.3-4.5-2.9.6-4.3,2.5-5.3,4.5Z"/>
    <path id="shape_291" class="st10" d="M104.9,44c.8,2.2,4.9,1.2,5.1-2.2-1.9.2-3.9.8-5.1,2.2Z"/>
  </g>
  <g id="arm_c">
    <path id="shape_26" class="st10" d="M94.2,102.1c2.2-.2,4.1.6,5,2.1.6,1,.3,2.3-.2,3.2-2.7-.3-3.9-3.1-4.8-5.2h0Z"/>
    <path id="shape_15" class="st0" d="M102.1,92.9c-4.1-7.3-10.6-27.7-9.5-27.2,0,0-4.4-4.9-8.7-6.6-37.5,9.5,1.9,37.9,1.9,37.9.4,2.8,1.3,5,2,5.7,1.4,2.9,2,5.4,6,5.9.5,0,1.9,3.9,7.1,3.9s4.1,3.2,8.2,1c1.5-.8,2.9.8,6.8-3.1,3.5-3.2,7.3-.8,5.7,1.9-.7.8-2.4.2-2.7,1.3-.9,3.3,5.3,5.2,8,.5,3.1-6.3-1.2-14.5-10.2-13.5-2.3.3-2.2,1.5-7.2-.8-3.1-1.3-4-2.6-4.9-3.9l-1.1-.7-.2-.7-.4-.7-.7-.9h-.1Z"/>
    <path id="shape_27" class="st10" d="M88.8,103.9c.9.8,2,3.8,7,3.7v-.2c.5-2.4-3.5-4.8-7-3.6h0Z"/>
    <path id="shape_28" class="st10" d="M98.5,110.4c-.3-2.4,4.9-2.8,6.9.5-2.7,1.7-4.9.8-6.9-.5Z"/>
    <path id="shape_29" class="st10" d="M109.3,112.3c-1-2.3,2.4-5.2,5-2.8-1.4,1.5-3.2,2.8-5,2.8Z"/>
  </g>
  <g>
    <path id="shape_151" class="st0" d="M76.5,61.6c-35.2-3.7-11.9,32.6-10.3,34.5.4,2.6,1,4.5,1.7,5.4-.9,3.2.6,5.5,2.1,6.9-.3.9-1.2,2.7-.4,5.2.2,1.1-.6,2-1.2,2.6-1.3.8-2.5,3.5-.8,5-1.5,3.2-.4,7.1,3.1,8.7,2,.8,3.2.5,3.6-1,.2-2.2.2-2.5,1.8-4.6,3.3-3.8,6.1-7.1,6.9-11.8.9-5.2,1.3-13.5.2-17.5l1.2-11.4c3.5-17.4,3.7-18.7-7.8-21.9h0Z"/>
    <g id="arm_g">
      <path id="shape_43" class="st10" d="M70.6,108.8c2.5,0,2.2,4.6-.2,5.2-.7-1.6-.5-3.5.2-5.2Z"/>
      <path id="shape_44" class="st10" d="M69.1,116.4c2.5,2.3.7,4-1.3,4.6-.8-2,.4-3.2,1.3-4.6Z"/>
      <path id="shape_45" class="st10" d="M68.8,101.2c2.9,1.8,3.6,5.2,1.7,6.5-2.8-2.9-1.9-5.8-1.7-6.5Z"/>
    </g>
  </g>
  <g id="arm_d">
    <path id="shape_152" class="st0" d="M56.4,72.5c-.8,7.5-9.6,22.9-8.1,29.9-1.4,4.7-.3,10-.2,13,.2,3.5-1.1,7.2-3.7,7.2s-3.4-.6-3.4,1.6,2,3.7,5.8,3.7c4.2-.2,6.3-1.5,9.8-4.7,2.5-2.1,2.7-4.6,2.2-6.7-.2-1,2.7-2.4,1-7-.5-1.3,3-3,1.6-8.1,0-.8,1.4-2.1,1-5.2,1.9.9,11.1-30.4,9.3-33.6l-4.6-2.1s-9.4-.7-10.7,12h0Z"/>
    <g id="tentacle_05">
      <path id="shape_23" class="st10" d="M58.7,115.9c-2.4-.4-1.4-4.9,1-5.2.7,2.1,0,3.6-1,5.2Z"/>
    </g>
    <g id="tentacle_06">
      <path id="shape_24" class="st10" d="M59.8,108.3c-2.2-2.9-.8-5.2,1.3-5.6.6,3.1,0,4.2-1.3,5.6Z"/>
    </g>
    <g id="tentacle_07">
      <path id="shape_25" class="st10" d="M60.9,101.5c-2.2-2.1-1.3-4.6,1.1-5.1,1.1,2.7-.7,4.7-1.1,5.1Z"/>
    </g>
  </g>
  <g id="arm_f">
    <path id="shape_154" class="st0" d="M30.1,83c-6.3,2.5-8.8.5-13.3-.4-2.5-.5-7.5-.7-10.5,2.9-4.3,5-1.7,12.2,3.3,12.7,3.4,0,5-2.3,3-3.8-.6-.3-1.6,0-2.1-1.2s1.5-5.1,5.8-1.6c2.4,2.7,3.9,3.7,6.2,3.9,1.6.6,2.3,2.3,7.8,1.8s8.8-3.2,10.6-5.5c17.4-29.1,13-31.1,9.3-37.1-.8.3-8.1.6-8.9.7-4.2,2.3-5.7,23.7-11.2,27.8h0s0-.2,0-.2Z"/>
    <path id="shape_18" class="st10" d="M16.5,91.2c.8-2.4,5.9-.8,5.5,3.3-2.5,0-3.9-1.6-5.5-3.3Z"/>
    <g id="tentacle_01">
      <path id="shape_19" class="st10" d="M22.9,95c.4-1.4,2.4-1.9,4-2,2.4-.2,4.2.7,4.3,2.5-2,1.4-5.8,1.5-8.3-.5Z"/>
    </g>
  </g>
  <g id="arm_e">
    <path id="shape_153" class="st0" d="M62.1,63.2l-8.4-1.7c1.8,3.3-16.4,33.9-29.1,36.5-2.6,1.1-8.9,4.4-8.9,10,.1,7.1,6.9,9,10.5,7.4,2.8-1,2.5-3.7,1.5-4-.9,0-2.5,1-3.2,0-1.9-2.4,1.6-5.3,4.7-4.2,3.6,2.8,7.7-.3,8.5-1.1,4.6,1,9-2.6,9.4-6.1,5.2-.5,16.8-33.6,15-36.8Z"/>
    <g id="tentacle_03">
      <path id="shape_21" class="st10" d="M30.9,107.4c.5-3.5,6-4.3,7-1.8-1.9,2-5.2,2.4-7,1.8Z"/>
    </g>
    <g id="tentacle_04">
      <path id="shape_22" class="st10" d="M38.9,105.6c-.4-3.6,5.5-5,6.6-3.2,0,0-1,1.3-1.5,1.6-1.4,1.1-2.3,1.8-5.1,1.6Z"/>
    </g>
    <g id="tentacle_02">
      <path id="shape_20" class="st10" d="M50,93.6c.8,0,1.5.6,1.8,1.2,0,0-1.5,2.1-2.2,2.9-1.6,1.7-2.8,1.7-2.8,1.7-.2-.6-.6-1.6-.4-2.8.2-2,1.7-3.4,3.7-3.1h0Z"/>
    </g>
  </g>
  <path id="shape_16" class="st4" d="M65.1,11.9c-18.6,0-32.2,14.5-32.2,30.2s4.5,18,10.7,21.8c4.3,2.3,12.3,3.6,21.5,3.6s18.3-.8,22.3-3.9c4.8-3.7,10-10.5,10-21.7s-11.7-30-32.3-30Z"/>
  <path id="shape_155" class="st8" d="M83,72.2l-36.2-.7c-18.7-1.3-8.2,8.6-7.8,8.9,4,3.3,5.8,8.2,9.3,8.1,11.7-.4,22.7-2.7,32.7-.6s16.5-5.4,11.9-5.9,0-9.4,0-9.4c-5.7-4.3-5.9-.3-10-.4h0Z"/>
  <path id="shape_17" class="st5" d="M89.3,61.6c-3.2,1.9-8.3,4.9-24.8,5-11,0-19.6-1.4-25.7-5.3-3.8-2.1-5.5,2.4-2.5,5.3,3.7,3.9,12.5,6.6,28.7,6.7,8.5,0,16.8-.7,21.8-3.1,6.5-2.9,7-6.2,5.1-8.7-.8-.5-1.6-.3-2.6.1Z"/>
  <path class="st6" d="M103.9,17.9"/>
  <path id="shape_40" class="st10" d="M42.9,49.2c-2,0-4.8,1.8-4.8,4.5s2.2,4.6,4.5,4.5c2.4,0,4.9-1.7,4.8-4.5,0-2.5-2.1-4.5-4.5-4.5Z"/>
  <path id="shape_41" class="st10" d="M85.6,50c-2.3,0-4.7,1.8-4.6,4.5,0,2.5,2,4.5,4.6,4.5s4.4-1.9,4.5-4.4c0-2.3-2-4.6-4.5-4.6Z"/>
  <path id="shape_38" class="st9" d="M58.8,50c-1,0-1.2.5-1,2.5.5,2.6,2.2,5.6,6.5,5.7,5.5,0,7.6-3.6,7.3-7.2-.2-.8-.6-1.4-1.6-1.3-2.5.8-6.9,1.1-11.2.3Z"/>
  <path id="shape_39" class="st11" d="M64.5,53.7c-1.7,0-4.2,1.1-4,2,1.3,2.4,6.8,2.6,8.1,0,.7-.7-1.8-2-4.1-2Z"/>
  <circle id="eye_left" class="st9" cx="51.1" cy="43" r="6.6"/>
  <path id="shape_35" class="st13" d="M48.5,38.9c-.9,0-2,.6-1.9,2,.3,2.6,3.7,2.6,3.8,0,0-1.2-.9-2-1.9-2Z"/>
  <circle id="eye_right" class="st9" cx="78.4" cy="43.1" r="6.6"/>
  <path id="shape_351" class="st13" d="M75.5,38.9c-.9,0-2,.6-1.9,2,.3,2.6,3.7,2.6,3.8,0,0-1.2-.9-2-1.9-2Z"/>
  <path id="shape_71" class="st3" d="M57.2,33.9c-2.2-3.1-10.4-3-12.4,0"/>
  <path id="shape_72" class="st3" d="M73,33.5c2.1-3,9.8-2.9,11.7,0"/>
  <path class="st3" d="M25.7,70.5"/>
  <path class="st0" d="M93,34.2c1.2.2,1,2.2,1.4,3,.7.8,7.6,1.3,7.3-1.8,0-4.1-9.2-11.1-15.8-8-5.2,2.5-5.4,9.9-5.3,12.8,2.4,9.7-4.6,22.2-11.8,31.4-3.1,5.6-9.6,9.9-9.7,9.3-6.8.8-11.4-.9-10.1-.5-4.6-2.9-7-6.9-8.5-10.1s-3-3.7-5.3-4c-5.8-.6-10.1,6.7-5.6,14.6,2.8,4.9,15.3,21.7,29.5,13.9.7-.3,3.6-2.1,3.6-2.1,10.1-4.7,28-21.8,29.8-32.2,1.4-1.3,4.4-7.7,1.5-11.5.4-1.1,1.4-6.3-2.8-8.5-2.4-2.4-1.3-7,1.8-6.3h0Z"/>
  <path id="shape_2611" class="st10" d="M92.3,41.6c-1.4,1.7-2,3.6-1.4,5.1.4,1,1.4,1.4,2.4,1.4,1.4-2.4,0-4.7-.9-6.5h0Z"/>
  <path id="shape_2711" class="st10" d="M94.1,50.3c0,1,1.5,3.1-.9,6.7h0c-1.9-.8-1.6-4.8.9-6.8h0Z"/>
  <path id="shape_2811" class="st10" d="M92.3,59.4c-2-.3-4.6,3.6-3.1,6.1,2.4-1.7,3-3.9,3.1-6.1Z"/>
  <path id="shape_2911" class="st10" d="M88.3,66.7c-1.7-1.4-4.9,1.3-3.4,4.3,1.6-1.1,3-2.6,3.4-4.3Z"/>
  <metadata>
    <ns1:sfw>
      <ns1:slices/>
      <ns1:sliceSourceBounds x="1.16" y="1.36" width="127.56" height="126.94" bottomLeftOrigin="true"/>
    </ns1:sfw>
    <ns1:sfw>
      <ns1:slices/>
      <ns1:sliceSourceBounds x="1.16" y="1.36" width="127.56" height="126.94" bottomLeftOrigin="true"/>
    </ns1:sfw>
    <sfw xmlns="http://ns.adobe.com/SaveForWeb/1.0/">
      <slices/>
      <sliceSourceBounds x="3.53" y="-0.93" width="124.97" height="130.13" bottomLeftOrigin="true"/>
    </sfw>
  </metadata>
</svg>