<svg xmlns="http://www.w3.org/2000/svg" viewBox="0 0 1024 1024" width="1024" height="1024" preserveAspectRatio="xMidYMid meet">
<defs>
<linearGradient id="bodyGrad" x1="0" y1="0" x2="0" y2="1"><stop offset="0" stop-color="#b881e9" /><stop offset="1" stop-color="#7a49a8" /></linearGradient>
<linearGradient id="bodyShade" x1="0" y1="0" x2="1" y2="1"><stop offset="0" stop-color="#000" stop-opacity="0.0" /><stop offset="1" stop-color="#000" stop-opacity="0.24" /></linearGradient>
<radialGradient id="bodyHighlight" cx="40%" cy="28%" r="50%"><stop offset="0" stop-color="#ffffff" stop-opacity="0.42" /><stop offset="1" stop-color="#ffffff" stop-opacity="0" /></radialGradient>
<linearGradient id="tentacleGrad1" x1="0" y1="0" x2="0" y2="1"><stop offset="0" stop-color="#b176e5" /><stop offset="1" stop-color="#6c3f98" /></linearGradient>
<linearGradient id="tentacleGrad2" x1="0" y1="0" x2="0" y2="1"><stop offset="0" stop-color="#b176e5" /><stop offset="1" stop-color="#6c3f98" /></linearGradient>
<linearGradient id="tentacleGrad3" x1="0" y1="0" x2="0" y2="1"><stop offset="0" stop-color="#b176e5" /><stop offset="1" stop-color="#6c3f98" /></linearGradient>
<linearGradient id="tentacleGrad4" x1="0" y1="0" x2="0" y2="1"><stop offset="0" stop-color="#b176e5" /><stop offset="1" stop-color="#6c3f98" /></linearGradient>
<linearGradient id="tentacleGrad5" x1="0" y1="0" x2="0" y2="1"><stop offset="0" stop-color="#b176e5" /><stop offset="1" stop-color="#6c3f98" /></linearGradient>
<linearGradient id="tentacleGrad6" x1="0" y1="0" x2="0" y2="1"><stop offset="0" stop-color="#b176e5" /><stop offset="1" stop-color="#6c3f98" /></linearGradient>
<linearGradient id="tentacleGrad7" x1="0" y1="0" x2="0" y2="1"><stop offset="0" stop-color="#b176e5" /><stop offset="1" stop-color="#6c3f98" /></linearGradient>
<linearGradient id="tentacleGrad8" x1="0" y1="0" x2="0" y2="1"><stop offset="0" stop-color="#b176e5" /><stop offset="1" stop-color="#6c3f98" /></linearGradient>
<clipPath id="clip_tentacle_01"><path d="M 320.16 540.27 L 311.85 546.52 L 303.80 553.03 L 295.99 559.78 L 288.43 566.77 L 281.12 573.99 L 274.03 581.41 L 267.18 589.03 L 260.55 596.84 L 254.13 604.84 L 247.93 613.01 L 241.94 621.34 L 236.15 629.84 L 230.55 638.49 L 225.15 647.28 L 219.93 656.22 L 214.90 665.29 L 210.04 674.49 L 205.37 683.81 L 200.86 693.25 L 196.52 702.81 L 192.36 712.48 L 188.35 722.24 L 184.51 732.11 L 180.82 742.07 L 177.30 752.12 L 173.93 762.25 L 170.71 772.47 L 167.65 782.75 L 164.73 793.11 L 161.97 803.52 L 159.36 814.00 L 156.90 824.53 L 154.58 835.11 L 152.41 845.73 L 150.39 856.39 L 148.51 867.08 L 146.78 877.80 L 145.19 888.54 L 143.75 899.29 L 142.45 910.06 L 141.30 920.83 L 140.29 931.60 L 179.71 938.40 L 182.41 928.47 L 185.23 918.59 L 188.18 908.77 L 191.26 899.01 L 194.46 889.31 L 197.78 879.68 L 201.23 870.14 L 204.80 860.68 L 208.48 851.32 L 212.29 842.05 L 216.21 832.89 L 220.24 823.85 L 224.39 814.93 L 228.65 806.14 L 233.02 797.48 L 237.49 788.96 L 242.07 780.60 L 246.76 772.39 L 251.54 764.34 L 256.42 756.47 L 261.39 748.77 L 266.46 741.26 L 271.61 733.95 L 276.85 726.83 L 282.17 719.92 L 287.56 713.22 L 293.02 706.74 L 298.56 700.49 L 304.15 694.48 L 309.80 688.70 L 315.50 683.17 L 321.25 677.89 L 327.04 672.87 L 332.86 668.11 L 338.70 663.61 L 344.57 659.38 L 350.45 655.42 L 356.34 651.74 L 362.23 648.32 L 368.11 645.19 L 373.98 642.32 L 379.84 639.73 Z" /></clipPath><clipPath id="clip_tentacle_02"><path d="M 373.12 567.86 L 366.70 574.89 L 360.51 582.13 L 354.57 589.56 L 348.85 597.18 L 343.37 604.98 L 338.11 612.94 L 333.07 621.07 L 328.24 629.35 L 323.63 637.79 L 319.23 646.37 L 315.04 655.09 L 311.05 663.94 L 307.27 672.93 L 303.68 682.05 L 300.29 691.28 L 297.10 700.64 L 294.10 710.11 L 291.29 719.69 L 288.68 729.37 L 286.26 739.16 L 284.03 749.04 L 282.00 759.02 L 280.15 769.09 L 278.50 779.24 L 277.04 789.48 L 275.77 799.79 L 274.69 810.18 L 273.80 820.63 L 273.11 831.15 L 272.61 841.73 L 272.31 852.37 L 272.20 863.06 L 272.29 873.79 L 272.58 884.57 L 273.06 895.39 L 273.74 906.24 L 274.63 917.12 L 275.71 928.02 L 277.00 938.95 L 278.49 949.89 L 280.19 960.84 L 282.09 971.79 L 317.91 968.21 L 317.87 957.77 L 318.03 947.41 L 318.39 937.12 L 318.94 926.91 L 319.67 916.79 L 320.60 906.76 L 321.71 896.83 L 323.00 887.01 L 324.46 877.28 L 326.10 867.68 L 327.91 858.19 L 329.89 848.82 L 332.04 839.58 L 334.34 830.48 L 336.81 821.51 L 339.43 812.69 L 342.20 804.02 L 345.12 795.51 L 348.18 787.15 L 351.38 778.97 L 354.72 770.96 L 358.18 763.12 L 361.78 755.47 L 365.50 748.01 L 369.34 740.74 L 373.29 733.68 L 377.35 726.82 L 381.51 720.18 L 385.76 713.75 L 390.11 707.54 L 394.55 701.57 L 399.06 695.82 L 403.64 690.32 L 408.29 685.06 L 413.00 680.04 L 417.75 675.28 L 422.55 670.77 L 427.38 666.52 L 432.24 662.54 L 437.11 658.81 L 441.99 655.34 L 446.88 652.14 Z" /></clipPath><clipPath id="clip_tentacle_03"><path d="M 415.53 598.36 L 413.54 605.22 L 411.59 612.26 L 409.67 619.48 L 407.79 626.87 L 405.95 634.44 L 404.16 642.18 L 402.41 650.08 L 400.73 658.15 L 399.10 666.38 L 397.53 674.76 L 396.04 683.29 L 394.62 691.97 L 393.28 700.79 L 392.03 709.75 L 390.86 718.84 L 389.79 728.05 L 388.82 737.39 L 387.96 746.84 L 387.21 756.40 L 386.58 766.07 L 386.07 775.84 L 385.69 785.71 L 385.45 795.66 L 385.34 805.70 L 385.38 815.82 L 385.57 826.01 L 385.91 836.26 L 386.42 846.58 L 387.09 856.95 L 387.94 867.37 L 388.96 877.83 L 390.17 888.33 L 391.57 898.86 L 393.16 909.42 L 394.95 919.99 L 396.94 930.58 L 399.14 941.17 L 401.56 951.76 L 404.20 962.34 L 407.06 972.91 L 410.15 983.46 L 413.47 993.99 L 446.53 986.01 L 445.09 975.82 L 443.88 965.67 L 442.89 955.56 L 442.13 945.50 L 441.57 935.48 L 441.22 925.51 L 441.07 915.61 L 441.11 905.76 L 441.34 895.99 L 441.75 886.28 L 442.33 876.64 L 443.08 867.09 L 443.99 857.62 L 445.06 848.24 L 446.28 838.94 L 447.65 829.75 L 449.15 820.66 L 450.78 811.67 L 452.54 802.80 L 454.43 794.04 L 456.43 785.41 L 458.53 776.90 L 460.75 768.52 L 463.06 760.27 L 465.46 752.17 L 467.95 744.22 L 470.52 736.42 L 473.16 728.77 L 475.87 721.29 L 478.64 713.98 L 481.47 706.84 L 484.36 699.88 L 487.28 693.11 L 490.24 686.53 L 493.23 680.15 L 496.25 673.97 L 499.29 668.01 L 502.33 662.27 L 505.38 656.75 L 508.43 651.47 L 511.46 646.43 L 514.47 641.64 Z" /></clipPath><clipPath id="clip_tentacle_04"><path d="M 469.55 612.39 L 468.79 619.21 L 468.09 626.20 L 467.45 633.36 L 466.87 640.70 L 466.35 648.21 L 465.90 655.90 L 465.50 663.75 L 465.16 671.77 L 464.88 679.96 L 464.66 688.30 L 464.50 696.80 L 464.41 705.44 L 464.38 714.23 L 464.41 723.16 L 464.52 732.22 L 464.69 741.41 L 464.93 750.72 L 465.24 760.14 L 465.63 769.68 L 466.10 779.31 L 466.64 789.04 L 467.26 798.85 L 467.96 808.75 L 468.75 818.73 L 469.62 828.77 L 470.57 838.87 L 471.62 849.02 L 472.75 859.22 L 473.98 869.46 L 475.31 879.73 L 476.73 890.03 L 478.24 900.35 L 479.86 910.67 L 481.58 921.00 L 483.41 931.32 L 485.34 941.63 L 487.38 951.92 L 489.52 962.19 L 491.78 972.42 L 494.16 982.60 L 496.64 992.74 L 499.25 1002.81 L 530.75 997.19 L 529.90 987.22 L 529.17 977.21 L 528.56 967.19 L 528.05 957.15 L 527.66 947.10 L 527.37 937.06 L 527.20 927.01 L 527.12 916.98 L 527.15 906.97 L 527.27 896.98 L 527.49 887.03 L 527.81 877.12 L 528.22 867.25 L 528.73 857.44 L 529.32 847.70 L 530.00 838.02 L 530.76 828.43 L 531.60 818.91 L 532.53 809.49 L 533.53 800.17 L 534.61 790.96 L 535.76 781.87 L 536.99 772.89 L 538.28 764.05 L 539.64 755.35 L 541.07 746.80 L 542.56 738.40 L 544.11 730.17 L 545.71 722.11 L 547.37 714.24 L 549.08 706.55 L 550.85 699.07 L 552.65 691.79 L 554.51 684.74 L 556.40 677.92 L 558.33 671.33 L 560.29 665.00 L 562.29 658.94 L 564.30 653.15 L 566.34 647.66 L 568.39 642.47 L 570.45 637.61 Z" /></clipPath><clipPath id="clip_tentacle_05"><path d="M 518.10 628.24 L 519.38 634.47 L 520.72 640.88 L 522.12 647.48 L 523.58 654.26 L 525.10 661.23 L 526.68 668.39 L 528.31 675.73 L 530.00 683.25 L 531.73 690.94 L 533.51 698.79 L 535.34 706.82 L 537.21 715.00 L 539.12 723.33 L 541.07 731.81 L 543.06 740.43 L 545.09 749.19 L 547.15 758.07 L 549.25 767.08 L 551.38 776.20 L 553.53 785.43 L 555.71 794.76 L 557.92 804.19 L 560.14 813.71 L 562.39 823.31 L 564.66 832.99 L 566.94 842.73 L 569.24 852.54 L 571.56 862.40 L 573.88 872.31 L 576.21 882.26 L 578.55 892.24 L 580.89 902.25 L 583.24 912.28 L 585.59 922.32 L 587.93 932.37 L 590.28 942.42 L 592.62 952.45 L 594.95 962.47 L 597.27 972.47 L 599.58 982.44 L 601.88 992.37 L 604.16 1002.26 L 635.84 997.74 L 635.25 987.58 L 634.64 977.37 L 634.03 967.13 L 633.40 956.86 L 632.76 946.58 L 632.11 936.27 L 631.46 925.96 L 630.81 915.66 L 630.16 905.36 L 629.51 895.08 L 628.86 884.82 L 628.22 874.59 L 627.59 864.41 L 626.96 854.27 L 626.35 844.18 L 625.75 834.16 L 625.17 824.20 L 624.60 814.33 L 624.06 804.53 L 623.54 794.83 L 623.04 785.24 L 622.57 775.75 L 622.12 766.37 L 621.71 757.12 L 621.33 748.00 L 620.99 739.03 L 620.68 730.20 L 620.41 721.52 L 620.18 713.02 L 619.99 704.68 L 619.85 696.53 L 619.76 688.57 L 619.72 680.81 L 619.73 673.27 L 619.79 665.94 L 619.91 658.84 L 620.08 651.98 L 620.32 645.38 L 620.62 639.04 L 620.98 632.98 L 621.40 627.21 L 621.90 621.76 Z" /></clipPath><clipPath id="clip_tentacle_06"><path d="M 568.46 636.11 L 571.16 641.79 L 573.95 647.66 L 576.80 653.73 L 579.73 659.99 L 582.73 666.43 L 585.79 673.06 L 588.92 679.86 L 592.11 686.84 L 595.36 693.99 L 598.67 701.31 L 602.03 708.79 L 605.44 716.42 L 608.90 724.21 L 612.41 732.15 L 615.97 740.23 L 619.56 748.45 L 623.20 756.80 L 626.87 765.29 L 630.57 773.89 L 634.31 782.62 L 638.07 791.46 L 641.85 800.40 L 645.66 809.46 L 649.49 818.61 L 653.34 827.85 L 657.20 837.19 L 661.07 846.61 L 664.95 856.11 L 668.83 865.68 L 672.72 875.32 L 676.61 885.02 L 680.50 894.78 L 684.38 904.60 L 688.25 914.46 L 692.11 924.37 L 695.96 934.32 L 699.79 944.30 L 703.61 954.31 L 707.40 964.34 L 711.16 974.39 L 714.90 984.45 L 718.61 994.52 L 751.39 985.48 L 749.35 974.84 L 747.28 964.20 L 745.18 953.57 L 743.05 942.95 L 740.90 932.35 L 738.73 921.77 L 736.54 911.23 L 734.34 900.72 L 732.13 890.25 L 729.90 879.83 L 727.67 869.46 L 725.44 859.14 L 723.21 848.89 L 720.98 838.71 L 718.75 828.60 L 716.54 818.57 L 714.33 808.62 L 712.14 798.77 L 709.97 789.01 L 707.81 779.35 L 705.68 769.79 L 703.58 760.35 L 701.50 751.03 L 699.46 741.83 L 697.45 732.76 L 695.48 723.82 L 693.55 715.02 L 691.66 706.37 L 689.82 697.87 L 688.03 689.52 L 686.29 681.34 L 684.61 673.33 L 682.98 665.49 L 681.42 657.84 L 679.92 650.37 L 678.50 643.09 L 677.14 636.02 L 675.86 629.15 L 674.65 622.50 L 673.53 616.06 L 672.49 609.86 L 671.54 603.89 Z" /></clipPath><clipPath id="clip_tentacle_07"><path d="M 632.48 646.44 L 636.50 649.85 L 640.59 653.56 L 644.74 657.58 L 648.95 661.89 L 653.19 666.50 L 657.47 671.38 L 661.77 676.53 L 666.08 681.95 L 670.39 687.62 L 674.71 693.54 L 679.03 699.70 L 683.33 706.09 L 687.62 712.70 L 691.89 719.53 L 696.13 726.57 L 700.35 733.82 L 704.54 741.26 L 708.69 748.89 L 712.81 756.70 L 716.89 764.68 L 720.92 772.84 L 724.91 781.16 L 728.86 789.64 L 732.75 798.26 L 736.59 807.04 L 740.38 815.95 L 744.11 825.00 L 747.79 834.17 L 751.41 843.47 L 754.96 852.88 L 758.45 862.40 L 761.88 872.03 L 765.24 881.76 L 768.53 891.58 L 771.76 901.50 L 774.91 911.50 L 777.99 921.57 L 780.99 931.72 L 783.92 941.94 L 786.78 952.22 L 789.55 962.56 L 792.24 972.96 L 827.76 967.04 L 826.79 956.04 L 825.74 945.07 L 824.61 934.12 L 823.39 923.21 L 822.08 912.34 L 820.69 901.51 L 819.22 890.72 L 817.66 879.99 L 816.02 869.32 L 814.31 858.70 L 812.51 848.16 L 810.64 837.68 L 808.68 827.27 L 806.65 816.94 L 804.55 806.70 L 802.36 796.53 L 800.11 786.46 L 797.77 776.49 L 795.37 766.61 L 792.88 756.83 L 790.33 747.16 L 787.69 737.60 L 784.99 728.15 L 782.21 718.81 L 779.35 709.59 L 776.42 700.50 L 773.42 691.53 L 770.33 682.69 L 767.17 673.98 L 763.93 665.40 L 760.60 656.96 L 757.19 648.65 L 753.70 640.48 L 750.11 632.46 L 746.43 624.58 L 742.65 616.84 L 738.76 609.25 L 734.77 601.81 L 730.65 594.52 L 726.42 587.38 L 722.04 580.39 L 717.52 573.56 Z" /></clipPath><clipPath id="clip_tentacle_08"><path d="M 702.83 638.26 L 707.88 640.67 L 712.96 643.36 L 718.05 646.33 L 723.15 649.58 L 728.25 653.12 L 733.35 656.95 L 738.44 661.05 L 743.51 665.44 L 748.55 670.11 L 753.56 675.05 L 758.53 680.26 L 763.45 685.73 L 768.32 691.47 L 773.12 697.45 L 777.87 703.68 L 782.54 710.15 L 787.14 716.85 L 791.66 723.78 L 796.09 730.91 L 800.44 738.26 L 804.70 745.81 L 808.87 753.55 L 812.94 761.47 L 816.91 769.57 L 820.79 777.84 L 824.56 786.27 L 828.23 794.86 L 831.79 803.59 L 835.24 812.46 L 838.59 821.46 L 841.83 830.59 L 844.96 839.83 L 847.98 849.18 L 850.89 858.63 L 853.69 868.17 L 856.37 877.81 L 858.95 887.52 L 861.40 897.31 L 863.75 907.16 L 865.98 917.08 L 868.10 927.04 L 870.11 937.06 L 909.89 932.94 L 909.64 922.26 L 909.25 911.58 L 908.75 900.90 L 908.11 890.24 L 907.35 879.59 L 906.45 868.96 L 905.43 858.35 L 904.28 847.78 L 902.99 837.25 L 901.57 826.76 L 900.01 816.31 L 898.32 805.91 L 896.48 795.58 L 894.51 785.30 L 892.39 775.09 L 890.13 764.94 L 887.72 754.88 L 885.16 744.89 L 882.44 734.98 L 879.58 725.17 L 876.55 715.44 L 873.36 705.81 L 870.00 696.29 L 866.48 686.87 L 862.78 677.55 L 858.90 668.36 L 854.83 659.28 L 850.58 650.32 L 846.13 641.50 L 841.48 632.81 L 836.62 624.26 L 831.54 615.85 L 826.24 607.60 L 820.71 599.51 L 814.94 591.59 L 808.92 583.84 L 802.65 576.28 L 796.11 568.93 L 789.30 561.78 L 782.21 554.85 L 774.84 548.17 L 767.17 541.74 Z" /></clipPath></defs>
<g id="character_octopus">
<g id="tentacle_01" data-rig="tentacle">
<path id="tentacle_01_fill" d="M 320.16 540.27 L 311.85 546.52 L 303.80 553.03 L 295.99 559.78 L 288.43 566.77 L 281.12 573.99 L 274.03 581.41 L 267.18 589.03 L 260.55 596.84 L 254.13 604.84 L 247.93 613.01 L 241.94 621.34 L 236.15 629.84 L 230.55 638.49 L 225.15 647.28 L 219.93 656.22 L 214.90 665.29 L 210.04 674.49 L 205.37 683.81 L 200.86 693.25 L 196.52 702.81 L 192.36 712.48 L 188.35 722.24 L 184.51 732.11 L 180.82 742.07 L 177.30 752.12 L 173.93 762.25 L 170.71 772.47 L 167.65 782.75 L 164.73 793.11 L 161.97 803.52 L 159.36 814.00 L 156.90 824.53 L 154.58 835.11 L 152.41 845.73 L 150.39 856.39 L 148.51 867.08 L 146.78 877.80 L 145.19 888.54 L 143.75 899.29 L 142.45 910.06 L 141.30 920.83 L 140.29 931.60 L 179.71 938.40 L 182.41 928.47 L 185.23 918.59 L 188.18 908.77 L 191.26 899.01 L 194.46 889.31 L 197.78 879.68 L 201.23 870.14 L 204.80 860.68 L 208.48 851.32 L 212.29 842.05 L 216.21 832.89 L 220.24 823.85 L 224.39 814.93 L 228.65 806.14 L 233.02 797.48 L 237.49 788.96 L 242.07 780.60 L 246.76 772.39 L 251.54 764.34 L 256.42 756.47 L 261.39 748.77 L 266.46 741.26 L 271.61 733.95 L 276.85 726.83 L 282.17 719.92 L 287.56 713.22 L 293.02 706.74 L 298.56 700.49 L 304.15 694.48 L 309.80 688.70 L 315.50 683.17 L 321.25 677.89 L 327.04 672.87 L 332.86 668.11 L 338.70 663.61 L 344.57 659.38 L 350.45 655.42 L 356.34 651.74 L 362.23 648.32 L 368.11 645.19 L 373.98 642.32 L 379.84 639.73 Z" fill="url(#tentacleGrad1)" />
<path id="tentacle_01_shadow" d="M 320.16 540.27 L 311.85 546.52 L 303.80 553.03 L 295.99 559.78 L 288.43 566.77 L 281.12 573.99 L 274.03 581.41 L 267.18 589.03 L 260.55 596.84 L 254.13 604.84 L 247.93 613.01 L 241.94 621.34 L 236.15 629.84 L 230.55 638.49 L 225.15 647.28 L 219.93 656.22 L 214.90 665.29 L 210.04 674.49 L 205.37 683.81 L 200.86 693.25 L 196.52 702.81 L 192.36 712.48 L 188.35 722.24 L 184.51 732.11 L 180.82 742.07 L 177.30 752.12 L 173.93 762.25 L 170.71 772.47 L 167.65 782.75 L 164.73 793.11 L 161.97 803.52 L 159.36 814.00 L 156.90 824.53 L 154.58 835.11 L 152.41 845.73 L 150.39 856.39 L 148.51 867.08 L 146.78 877.80 L 145.19 888.54 L 143.75 899.29 L 142.45 910.06 L 141.30 920.83 L 140.29 931.60 L 179.71 938.40 L 182.41 928.47 L 185.23 918.59 L 188.18 908.77 L 191.26 899.01 L 194.46 889.31 L 197.78 879.68 L 201.23 870.14 L 204.80 860.68 L 208.48 851.32 L 212.29 842.05 L 216.21 832.89 L 220.24 823.85 L 224.39 814.93 L 228.65 806.14 L 233.02 797.48 L 237.49 788.96 L 242.07 780.60 L 246.76 772.39 L 251.54 764.34 L 256.42 756.47 L 261.39 748.77 L 266.46 741.26 L 271.61 733.95 L 276.85 726.83 L 282.17 719.92 L 287.56 713.22 L 293.02 706.74 L 298.56 700.49 L 304.15 694.48 L 309.80 688.70 L 315.50 683.17 L 321.25 677.89 L 327.04 672.87 L 332.86 668.11 L 338.70 663.61 L 344.57 659.38 L 350.45 655.42 L 356.34 651.74 L 362.23 648.32 L 368.11 645.19 L 373.98 642.32 L 379.84 639.73 Z" fill="#2f1b47" opacity="0.18" clip-path="url(#clip_tentacle_01)" />
<path id="tentacle_01_highlight" d="M 350.00 590.00 L 342.92 594.42 L 335.95 599.11 L 329.11 604.05 L 322.39 609.25 L 315.78 614.70 L 309.30 620.39 L 302.94 626.32 L 296.70 632.47 L 290.58 638.85 L 284.59 645.45 L 278.72 652.26 L 272.97 659.27 L 267.35 666.48 L 261.85 673.89 L 256.48 681.48 L 251.23 689.25 L 246.11 697.20 L 241.11 705.32 L 236.24 713.60 L 231.49 722.04 L 226.88 730.62 L 222.39 739.36 L 218.02 748.23 L 213.79 757.23 L 209.69 766.36 L 205.71 775.61 L 201.86 784.97 L 198.15 794.44 L 194.56 804.02 L 191.11 813.69 L 187.78 823.45 L 184.59 833.29 L 181.53 843.21 L 178.60 853.21 L 175.81 863.26 L 173.15 873.38 L 170.62 883.55 L 168.23 893.77 L 165.97 904.03 L 163.84 914.33 L 161.85 924.65 L 160.00 935.00" fill="none" stroke="#ffffff" stroke-opacity="0.22" stroke-width="7" stroke-linecap="round" clip-path="url(#clip_tentacle_01)" />
<circle id="tentacle_01_sucker_01" cx="283.23" cy="667.47" r="10.50" fill="#f6c6df" clip-path="url(#clip_tentacle_01)" />
<circle id="tentacle_01_sucker_01_core" cx="283.23" cy="667.47" r="4.41" fill="#d98ab2" opacity="0.9" clip-path="url(#clip_tentacle_01)" />
<circle id="tentacle_01_sucker_02" cx="266.32" cy="688.28" r="9.57" fill="#f6c6df" clip-path="url(#clip_tentacle_01)" />
<circle id="tentacle_01_sucker_02_core" cx="266.32" cy="688.28" r="4.02" fill="#d98ab2" opacity="0.9" clip-path="url(#clip_tentacle_01)" />
<circle id="tentacle_01_sucker_03" cx="250.36" cy="710.89" r="8.64" fill="#f6c6df" clip-path="url(#clip_tentacle_01)" />
<circle id="tentacle_01_sucker_03_core" cx="250.36" cy="710.89" r="3.63" fill="#d98ab2" opacity="0.9" clip-path="url(#clip_tentacle_01)" />
<circle id="tentacle_01_sucker_04" cx="235.41" cy="735.11" r="7.71" fill="#f6c6df" clip-path="url(#clip_tentacle_01)" />
<circle id="tentacle_01_sucker_04_core" cx="235.41" cy="735.11" r="3.24" fill="#d98ab2" opacity="0.9" clip-path="url(#clip_tentacle_01)" />
<circle id="tentacle_01_sucker_05" cx="221.50" cy="760.77" r="6.79" fill="#f6c6df" clip-path="url(#clip_tentacle_01)" />
<circle id="tentacle_01_sucker_05_core" cx="221.50" cy="760.77" r="2.85" fill="#d98ab2" opacity="0.9" clip-path="url(#clip_tentacle_01)" />
<circle id="tentacle_01_sucker_06" cx="208.66" cy="787.70" r="5.86" fill="#f6c6df" clip-path="url(#clip_tentacle_01)" />
<circle id="tentacle_01_sucker_06_core" cx="208.66" cy="787.70" r="2.46" fill="#d98ab2" opacity="0.9" clip-path="url(#clip_tentacle_01)" />
<circle id="tentacle_01_sucker_07" cx="196.92" cy="815.72" r="4.93" fill="#f6c6df" clip-path="url(#clip_tentacle_01)" />
<circle id="tentacle_01_sucker_07_core" cx="196.92" cy="815.72" r="2.07" fill="#d98ab2" opacity="0.9" clip-path="url(#clip_tentacle_01)" />
<circle id="tentacle_01_sucker_08" cx="186.32" cy="844.65" r="4.00" fill="#f6c6df" clip-path="url(#clip_tentacle_01)" />
<circle id="tentacle_01_sucker_08_core" cx="186.32" cy="844.65" r="1.68" fill="#d98ab2" opacity="0.9" clip-path="url(#clip_tentacle_01)" />
</g>
<g id="tentacle_02" data-rig="tentacle">
<path id="tentacle_02_fill" d="M 373.12 567.86 L 366.70 574.89 L 360.51 582.13 L 354.57 589.56 L 348.85 597.18 L 343.37 604.98 L 338.11 612.94 L 333.07 621.07 L 328.24 629.35 L 323.63 637.79 L 319.23 646.37 L 315.04 655.09 L 311.05 663.94 L 307.27 672.93 L 303.68 682.05 L 300.29 691.28 L 297.10 700.64 L 294.10 710.11 L 291.29 719.69 L 288.68 729.37 L 286.26 739.16 L 284.03 749.04 L 282.00 759.02 L 280.15 769.09 L 278.50 779.24 L 277.04 789.48 L 275.77 799.79 L 274.69 810.18 L 273.80 820.63 L 273.11 831.15 L 272.61 841.73 L 272.31 852.37 L 272.20 863.06 L 272.29 873.79 L 272.58 884.57 L 273.06 895.39 L 273.74 906.24 L 274.63 917.12 L 275.71 928.02 L 277.00 938.95 L 278.49 949.89 L 280.19 960.84 L 282.09 971.79 L 317.91 968.21 L 317.87 957.77 L 318.03 947.41 L 318.39 937.12 L 318.94 926.91 L 319.67 916.79 L 320.60 906.76 L 321.71 896.83 L 323.00 887.01 L 324.46 877.28 L 326.10 867.68 L 327.91 858.19 L 329.89 848.82 L 332.04 839.58 L 334.34 830.48 L 336.81 821.51 L 339.43 812.69 L 342.20 804.02 L 345.12 795.51 L 348.18 787.15 L 351.38 778.97 L 354.72 770.96 L 358.18 763.12 L 361.78 755.47 L 365.50 748.01 L 369.34 740.74 L 373.29 733.68 L 377.35 726.82 L 381.51 720.18 L 385.76 713.75 L 390.11 707.54 L 394.55 701.57 L 399.06 695.82 L 403.64 690.32 L 408.29 685.06 L 413.00 680.04 L 417.75 675.28 L 422.55 670.77 L 427.38 666.52 L 432.24 662.54 L 437.11 658.81 L 441.99 655.34 L 446.88 652.14 Z" fill="url(#tentacleGrad2)" />
<path id="tentacle_02_shadow" d="M 373.12 567.86 L 366.70 574.89 L 360.51 582.13 L 354.57 589.56 L 348.85 597.18 L 343.37 604.98 L 338.11 612.94 L 333.07 621.07 L 328.24 629.35 L 323.63 637.79 L 319.23 646.37 L 315.04 655.09 L 311.05 663.94 L 307.27 672.93 L 303.68 682.05 L 300.29 691.28 L 297.10 700.64 L 294.10 710.11 L 291.29 719.69 L 288.68 729.37 L 286.26 739.16 L 284.03 749.04 L 282.00 759.02 L 280.15 769.09 L 278.50 779.24 L 277.04 789.48 L 275.77 799.79 L 274.69 810.18 L 273.80 820.63 L 273.11 831.15 L 272.61 841.73 L 272.31 852.37 L 272.20 863.06 L 272.29 873.79 L 272.58 884.57 L 273.06 895.39 L 273.74 906.24 L 274.63 917.12 L 275.71 928.02 L 277.00 938.95 L 278.49 949.89 L 280.19 960.84 L 282.09 971.79 L 317.91 968.21 L 317.87 957.77 L 318.03 947.41 L 318.39 937.12 L 318.94 926.91 L 319.67 916.79 L 320.60 906.76 L 321.71 896.83 L 323.00 887.01 L 324.46 877.28 L 326.10 867.68 L 327.91 858.19 L 329.89 848.82 L 332.04 839.58 L 334.34 830.48 L 336.81 821.51 L 339.43 812.69 L 342.20 804.02 L 345.12 795.51 L 348.18 787.15 L 351.38 778.97 L 354.72 770.96 L 358.18 763.12 L 361.78 755.47 L 365.50 748.01 L 369.34 740.74 L 373.29 733.68 L 377.35 726.82 L 381.51 720.18 L 385.76 713.75 L 390.11 707.54 L 394.55 701.57 L 399.06 695.82 L 403.64 690.32 L 408.29 685.06 L 413.00 680.04 L 417.75 675.28 L 422.55 670.77 L 427.38 666.52 L 432.24 662.54 L 437.11 658.81 L 441.99 655.34 L 446.88 652.14 Z" fill="#2f1b47" opacity="0.18" clip-path="url(#clip_tentacle_02)" />
<path id="tentacle_02_highlight" d="M 410.00 610.00 L 404.35 615.12 L 398.81 620.47 L 393.40 626.05 L 388.12 631.85 L 382.96 637.87 L 377.93 644.11 L 373.03 650.56 L 368.27 657.20 L 363.64 664.05 L 359.15 671.09 L 354.79 678.33 L 350.58 685.74 L 346.52 693.34 L 342.59 701.11 L 338.82 709.05 L 335.19 717.16 L 331.72 725.43 L 328.40 733.85 L 325.23 742.42 L 322.22 751.14 L 319.38 760.00 L 316.69 769.00 L 314.17 778.12 L 311.81 787.38 L 309.62 796.75 L 307.60 806.24 L 305.75 815.85 L 304.07 825.56 L 302.57 835.37 L 301.25 845.28 L 300.11 855.28 L 299.15 865.37 L 298.38 875.54 L 297.79 885.79 L 297.38 896.11 L 297.17 906.50 L 297.15 916.95 L 297.33 927.47 L 297.69 938.03 L 298.26 948.65 L 299.03 959.30 L 300.00 970.00" fill="none" stroke="#ffffff" stroke-opacity="0.22" stroke-width="7" stroke-linecap="round" clip-path="url(#clip_tentacle_02)" />
<circle id="tentacle_02_sucker_01" cx="362.08" cy="692.08" r="10.50" fill="#f6c6df" clip-path="url(#clip_tentacle_02)" />
<circle id="tentacle_02_sucker_01_core" cx="362.08" cy="692.08" r="4.41" fill="#d98ab2" opacity="0.9" clip-path="url(#clip_tentacle_02)" />
<circle id="tentacle_02_sucker_02" cx="349.68" cy="714.06" r="9.57" fill="#f6c6df" clip-path="url(#clip_tentacle_02)" />
<circle id="tentacle_02_sucker_02_core" cx="349.68" cy="714.06" r="4.02" fill="#d98ab2" opacity="0.9" clip-path="url(#clip_tentacle_02)" />
<circle id="tentacle_02_sucker_03" cx="338.49" cy="737.70" r="8.64" fill="#f6c6df" clip-path="url(#clip_tentacle_02)" />
<circle id="tentacle_02_sucker_03_core" cx="338.49" cy="737.70" r="3.63" fill="#d98ab2" opacity="0.9" clip-path="url(#clip_tentacle_02)" />
<circle id="tentacle_02_sucker_04" cx="328.59" cy="762.86" r="7.71" fill="#f6c6df" clip-path="url(#clip_tentacle_02)" />
<circle id="tentacle_02_sucker_04_core" cx="328.59" cy="762.86" r="3.24" fill="#d98ab2" opacity="0.9" clip-path="url(#clip_tentacle_02)" />
<circle id="tentacle_02_sucker_05" cx="320.05" cy="789.39" r="6.79" fill="#f6c6df" clip-path="url(#clip_tentacle_02)" />
<circle id="tentacle_02_sucker_05_core" cx="320.05" cy="789.39" r="2.85" fill="#d98ab2" opacity="0.9" clip-path="url(#clip_tentacle_02)" />
<circle id="tentacle_02_sucker_06" cx="312.95" cy="817.16" r="5.86" fill="#f6c6df" clip-path="url(#clip_tentacle_02)" />
<circle id="tentacle_02_sucker_06_core" cx="312.95" cy="817.16" r="2.46" fill="#d98ab2" opacity="0.9" clip-path="url(#clip_tentacle_02)" />
<circle id="tentacle_02_sucker_07" cx="307.37" cy="846.03" r="4.93" fill="#f6c6df" clip-path="url(#clip_tentacle_02)" />
<circle id="tentacle_02_sucker_07_core" cx="307.37" cy="846.03" r="2.07" fill="#d98ab2" opacity="0.9" clip-path="url(#clip_tentacle_02)" />
<circle id="tentacle_02_sucker_08" cx="303.37" cy="875.87" r="4.00" fill="#f6c6df" clip-path="url(#clip_tentacle_02)" />
<circle id="tentacle_02_sucker_08_core" cx="303.37" cy="875.87" r="1.68" fill="#d98ab2" opacity="0.9" clip-path="url(#clip_tentacle_02)" />
</g>
<g id="tentacle_03" data-rig="tentacle">
<path id="tentacle_03_fill" d="M 415.53 598.36 L 413.54 605.22 L 411.59 612.26 L 409.67 619.48 L 407.79 626.87 L 405.95 634.44 L 404.16 642.18 L 402.41 650.08 L 400.73 658.15 L 399.10 666.38 L 397.53 674.76 L 396.04 683.29 L 394.62 691.97 L 393.28 700.79 L 392.03 709.75 L 390.86 718.84 L 389.79 728.05 L 388.82 737.39 L 387.96 746.84 L 387.21 756.40 L 386.58 766.07 L 386.07 775.84 L 385.69 785.71 L 385.45 795.66 L 385.34 805.70 L 385.38 815.82 L 385.57 826.01 L 385.91 836.26 L 386.42 846.58 L 387.09 856.95 L 387.94 867.37 L 388.96 877.83 L 390.17 888.33 L 391.57 898.86 L 393.16 909.42 L 394.95 919.99 L 396.94 930.58 L 399.14 941.17 L 401.56 951.76 L 404.20 962.34 L 407.06 972.91 L 410.15 983.46 L 413.47 993.99 L 446.53 986.01 L 445.09 975.82 L 443.88 965.67 L 442.89 955.56 L 442.13 945.50 L 441.57 935.48 L 441.22 925.51 L 441.07 915.61 L 441.11 905.76 L 441.34 895.99 L 441.75 886.28 L 442.33 876.64 L 443.08 867.09 L 443.99 857.62 L 445.06 848.24 L 446.28 838.94 L 447.65 829.75 L 449.15 820.66 L 450.78 811.67 L 452.54 802.80 L 454.43 794.04 L 456.43 785.41 L 458.53 776.90 L 460.75 768.52 L 463.06 760.27 L 465.46 752.17 L 467.95 744.22 L 470.52 736.42 L 473.16 728.77 L 475.87 721.29 L 478.64 713.98 L 481.47 706.84 L 484.36 699.88 L 487.28 693.11 L 490.24 686.53 L 493.23 680.15 L 496.25 673.97 L 499.29 668.01 L 502.33 662.27 L 505.38 656.75 L 508.43 651.47 L 511.46 646.43 L 514.47 641.64 Z" fill="url(#tentacleGrad3)" />
<path id="tentacle_03_shadow" d="M 415.53 598.36 L 413.54 605.22 L 411.59 612.26 L 409.67 619.48 L 407.79 626.87 L 405.95 634.44 L 404.16 642.18 L 402.41 650.08 L 400.73 658.15 L 399.10 666.38 L 397.53 674.76 L 396.04 683.29 L 394.62 691.97 L 393.28 700.79 L 392.03 709.75 L 390.86 718.84 L 389.79 728.05 L 388.82 737.39 L 387.96 746.84 L 387.21 756.40 L 386.58 766.07 L 386.07 775.84 L 385.69 785.71 L 385.45 795.66 L 385.34 805.70 L 385.38 815.82 L 385.57 826.01 L 385.91 836.26 L 386.42 846.58 L 387.09 856.95 L 387.94 867.37 L 388.96 877.83 L 390.17 888.33 L 391.57 898.86 L 393.16 909.42 L 394.95 919.99 L 396.94 930.58 L 399.14 941.17 L 401.56 951.76 L 404.20 962.34 L 407.06 972.91 L 410.15 983.46 L 413.47 993.99 L 446.53 986.01 L 445.09 975.82 L 443.88 965.67 L 442.89 955.56 L 442.13 945.50 L 441.57 935.48 L 441.22 925.51 L 441.07 915.61 L 441.11 905.76 L 441.34 895.99 L 441.75 886.28 L 442.33 876.64 L 443.08 867.09 L 443.99 857.62 L 445.06 848.24 L 446.28 838.94 L 447.65 829.75 L 449.15 820.66 L 450.78 811.67 L 452.54 802.80 L 454.43 794.04 L 456.43 785.41 L 458.53 776.90 L 460.75 768.52 L 463.06 760.27 L 465.46 752.17 L 467.95 744.22 L 470.52 736.42 L 473.16 728.77 L 475.87 721.29 L 478.64 713.98 L 481.47 706.84 L 484.36 699.88 L 487.28 693.11 L 490.24 686.53 L 493.23 680.15 L 496.25 673.97 L 499.29 668.01 L 502.33 662.27 L 505.38 656.75 L 508.43 651.47 L 511.46 646.43 L 514.47 641.64 Z" fill="#2f1b47" opacity="0.18" clip-path="url(#clip_tentacle_03)" />
<path id="tentacle_03_highlight" d="M 465.00 620.00 L 462.50 625.82 L 460.01 631.86 L 457.53 638.11 L 455.06 644.57 L 452.62 651.23 L 450.20 658.08 L 447.82 665.12 L 445.48 672.34 L 443.19 679.74 L 440.94 687.32 L 438.76 695.07 L 436.63 702.97 L 434.58 711.04 L 432.59 719.26 L 430.69 727.63 L 428.87 736.13 L 427.14 744.78 L 425.51 753.56 L 423.98 762.46 L 422.56 771.48 L 421.25 780.62 L 420.06 789.88 L 419.00 799.23 L 418.06 808.69 L 417.26 818.24 L 416.61 827.88 L 416.10 837.60 L 415.74 847.41 L 415.54 857.28 L 415.51 867.23 L 415.65 877.24 L 415.96 887.31 L 416.45 897.43 L 417.14 907.59 L 418.01 917.80 L 419.08 928.05 L 420.36 938.32 L 421.84 948.63 L 423.55 958.95 L 425.47 969.29 L 427.62 979.64 L 430.00 990.00" fill="none" stroke="#ffffff" stroke-opacity="0.22" stroke-width="7" stroke-linecap="round" clip-path="url(#clip_tentacle_03)" />
<circle id="tentacle_03_sucker_01" cx="449.33" cy="706.30" r="10.50" fill="#f6c6df" clip-path="url(#clip_tentacle_03)" />
<circle id="tentacle_03_sucker_01_core" cx="449.33" cy="706.30" r="4.41" fill="#d98ab2" opacity="0.9" clip-path="url(#clip_tentacle_03)" />
<circle id="tentacle_03_sucker_02" cx="442.37" cy="730.20" r="9.57" fill="#f6c6df" clip-path="url(#clip_tentacle_03)" />
<circle id="tentacle_03_sucker_02_core" cx="442.37" cy="730.20" r="4.02" fill="#d98ab2" opacity="0.9" clip-path="url(#clip_tentacle_03)" />
<circle id="tentacle_03_sucker_03" cx="436.14" cy="755.46" r="8.64" fill="#f6c6df" clip-path="url(#clip_tentacle_03)" />
<circle id="tentacle_03_sucker_03_core" cx="436.14" cy="755.46" r="3.63" fill="#d98ab2" opacity="0.9" clip-path="url(#clip_tentacle_03)" />
<circle id="tentacle_03_sucker_04" cx="430.80" cy="781.92" r="7.71" fill="#f6c6df" clip-path="url(#clip_tentacle_03)" />
<circle id="tentacle_03_sucker_04_core" cx="430.80" cy="781.92" r="3.24" fill="#d98ab2" opacity="0.9" clip-path="url(#clip_tentacle_03)" />
<circle id="tentacle_03_sucker_05" cx="426.51" cy="809.46" r="6.79" fill="#f6c6df" clip-path="url(#clip_tentacle_03)" />
<circle id="tentacle_03_sucker_05_core" cx="426.51" cy="809.46" r="2.85" fill="#d98ab2" opacity="0.9" clip-path="url(#clip_tentacle_03)" />
<circle id="tentacle_03_sucker_06" cx="423.41" cy="837.93" r="5.86" fill="#f6c6df" clip-path="url(#clip_tentacle_03)" />
<circle id="tentacle_03_sucker_06_core" cx="423.41" cy="837.93" r="2.46" fill="#d98ab2" opacity="0.9" clip-path="url(#clip_tentacle_03)" />
<circle id="tentacle_03_sucker_07" cx="421.67" cy="867.20" r="4.93" fill="#f6c6df" clip-path="url(#clip_tentacle_03)" />
<circle id="tentacle_03_sucker_07_core" cx="421.67" cy="867.20" r="2.07" fill="#d98ab2" opacity="0.9" clip-path="url(#clip_tentacle_03)" />
<circle id="tentacle_03_sucker_08" cx="421.45" cy="897.14" r="4.00" fill="#f6c6df" clip-path="url(#clip_tentacle_03)" />
<circle id="tentacle_03_sucker_08_core" cx="421.45" cy="897.14" r="1.68" fill="#d98ab2" opacity="0.9" clip-path="url(#clip_tentacle_03)" />
</g>
<g id="tentacle_04" data-rig="tentacle">
<path id="tentacle_04_fill" d="M 469.55 612.39 L 468.79 619.21 L 468.09 626.20 L 467.45 633.36 L 466.87 640.70 L 466.35 648.21 L 465.90 655.90 L 465.50 663.75 L 465.16 671.77 L 464.88 679.96 L 464.66 688.30 L 464.50 696.80 L 464.41 705.44 L 464.38 714.23 L 464.41 723.16 L 464.52 732.22 L 464.69 741.41 L 464.93 750.72 L 465.24 760.14 L 465.63 769.68 L 466.10 779.31 L 466.64 789.04 L 467.26 798.85 L 467.96 808.75 L 468.75 818.73 L 469.62 828.77 L 470.57 838.87 L 471.62 849.02 L 472.75 859.22 L 473.98 869.46 L 475.31 879.73 L 476.73 890.03 L 478.24 900.35 L 479.86 910.67 L 481.58 921.00 L 483.41 931.32 L 485.34 941.63 L 487.38 951.92 L 489.52 962.19 L 491.78 972.42 L 494.16 982.60 L 496.64 992.74 L 499.25 1002.81 L 530.75 997.19 L 529.90 987.22 L 529.17 977.21 L 528.56 967.19 L 528.05 957.15 L 527.66 947.10 L 527.37 937.06 L 527.20 927.01 L 527.12 916.98 L 527.15 906.97 L 527.27 896.98 L 527.49 887.03 L 527.81 877.12 L 528.22 867.25 L 528.73 857.44 L 529.32 847.70 L 530.00 838.02 L 530.76 828.43 L 531.60 818.91 L 532.53 809.49 L 533.53 800.17 L 534.61 790.96 L 535.76 781.87 L 536.99 772.89 L 538.28 764.05 L 539.64 755.35 L 541.07 746.80 L 542.56 738.40 L 544.11 730.17 L 545.71 722.11 L 547.37 714.24 L 549.08 706.55 L 550.85 699.07 L 552.65 691.79 L 554.51 684.74 L 556.40 677.92 L 558.33 671.33 L 560.29 665.00 L 562.29 658.94 L 564.30 653.15 L 566.34 647.66 L 568.39 642.47 L 570.45 637.61 Z" fill="url(#tentacleGrad4)" />
<path id="tentacle_04_shadow" d="M 469.55 612.39 L 468.79 619.21 L 468.09 626.20 L 467.45 633.36 L 466.87 640.70 L 466.35 648.21 L 465.90 655.90 L 465.50 663.75 L 465.16 671.77 L 464.88 679.96 L 464.66 688.30 L 464.50 696.80 L 464.41 705.44 L 464.38 714.23 L 464.41 723.16 L 464.52 732.22 L 464.69 741.41 L 464.93 750.72 L 465.24 760.14 L 465.63 769.68 L 466.10 779.31 L 466.64 789.04 L 467.26 798.85 L 467.96 808.75 L 468.75 818.73 L 469.62 828.77 L 470.57 838.87 L 471.62 849.02 L 472.75 859.22 L 473.98 869.46 L 475.31 879.73 L 476.73 890.03 L 478.24 900.35 L 479.86 910.67 L 481.58 921.00 L 483.41 931.32 L 485.34 941.63 L 487.38 951.92 L 489.52 962.19 L 491.78 972.42 L 494.16 982.60 L 496.64 992.74 L 499.25 1002.81 L 530.75 997.19 L 529.90 987.22 L 529.17 977.21 L 528.56 967.19 L 528.05 957.15 L 527.66 947.10 L 527.37 937.06 L 527.20 927.01 L 527.12 916.98 L 527.15 906.97 L 527.27 896.98 L 527.49 887.03 L 527.81 877.12 L 528.22 867.25 L 528.73 857.44 L 529.32 847.70 L 530.00 838.02 L 530.76 828.43 L 531.60 818.91 L 532.53 809.49 L 533.53 800.17 L 534.61 790.96 L 535.76 781.87 L 536.99 772.89 L 538.28 764.05 L 539.64 755.35 L 541.07 746.80 L 542.56 738.40 L 544.11 730.17 L 545.71 722.11 L 547.37 714.24 L 549.08 706.55 L 550.85 699.07 L 552.65 691.79 L 554.51 684.74 L 556.40 677.92 L 558.33 671.33 L 560.29 665.00 L 562.29 658.94 L 564.30 653.15 L 566.34 647.66 L 568.39 642.47 L 570.45 637.61 Z" fill="#2f1b47" opacity="0.18" clip-path="url(#clip_tentacle_04)" />
<path id="tentacle_04_highlight" d="M 520.00 625.00 L 518.59 630.84 L 517.21 636.93 L 515.88 643.26 L 514.58 649.82 L 513.32 656.61 L 512.11 663.62 L 510.95 670.83 L 509.83 678.26 L 508.77 685.87 L 507.75 693.68 L 506.79 701.67 L 505.89 709.84 L 505.04 718.17 L 504.26 726.67 L 503.54 735.31 L 502.88 744.11 L 502.29 753.04 L 501.76 762.10 L 501.31 771.29 L 500.93 780.59 L 500.62 790.00 L 500.40 799.51 L 500.25 809.12 L 500.17 818.82 L 500.19 828.60 L 500.28 838.45 L 500.47 848.36 L 500.74 858.33 L 501.10 868.36 L 501.56 878.43 L 502.11 888.53 L 502.76 898.66 L 503.50 908.82 L 504.35 918.99 L 505.30 929.17 L 506.36 939.34 L 507.52 949.51 L 508.79 959.67 L 510.17 969.80 L 511.66 979.91 L 513.27 989.98 L 515.00 1000.00" fill="none" stroke="#ffffff" stroke-opacity="0.22" stroke-width="7" stroke-linecap="round" clip-path="url(#clip_tentacle_04)" />
<circle id="tentacle_04_sucker_01" cx="518.94" cy="711.22" r="10.50" fill="#f6c6df" clip-path="url(#clip_tentacle_04)" />
<circle id="tentacle_04_sucker_01_core" cx="518.94" cy="711.22" r="4.41" fill="#d98ab2" opacity="0.9" clip-path="url(#clip_tentacle_04)" />
<circle id="tentacle_04_sucker_02" cx="515.46" cy="736.26" r="9.57" fill="#f6c6df" clip-path="url(#clip_tentacle_04)" />
<circle id="tentacle_04_sucker_02_core" cx="515.46" cy="736.26" r="4.02" fill="#d98ab2" opacity="0.9" clip-path="url(#clip_tentacle_04)" />
<circle id="tentacle_04_sucker_03" cx="512.55" cy="762.68" r="8.64" fill="#f6c6df" clip-path="url(#clip_tentacle_04)" />
<circle id="tentacle_04_sucker_03_core" cx="512.55" cy="762.68" r="3.63" fill="#d98ab2" opacity="0.9" clip-path="url(#clip_tentacle_04)" />
<circle id="tentacle_04_sucker_04" cx="510.26" cy="790.27" r="7.71" fill="#f6c6df" clip-path="url(#clip_tentacle_04)" />
<circle id="tentacle_04_sucker_04_core" cx="510.26" cy="790.27" r="3.24" fill="#d98ab2" opacity="0.9" clip-path="url(#clip_tentacle_04)" />
<circle id="tentacle_04_sucker_05" cx="508.66" cy="818.84" r="6.79" fill="#f6c6df" clip-path="url(#clip_tentacle_04)" />
<circle id="tentacle_04_sucker_05_core" cx="508.66" cy="818.84" r="2.85" fill="#d98ab2" opacity="0.9" clip-path="url(#clip_tentacle_04)" />
<circle id="tentacle_04_sucker_06" cx="507.79" cy="848.19" r="5.86" fill="#f6c6df" clip-path="url(#clip_tentacle_04)" />
<circle id="tentacle_04_sucker_06_core" cx="507.79" cy="848.19" r="2.46" fill="#d98ab2" opacity="0.9" clip-path="url(#clip_tentacle_04)" />
<circle id="tentacle_04_sucker_07" cx="507.71" cy="878.12" r="4.93" fill="#f6c6df" clip-path="url(#clip_tentacle_04)" />
<circle id="tentacle_04_sucker_07_core" cx="507.71" cy="878.12" r="2.07" fill="#d98ab2" opacity="0.9" clip-path="url(#clip_tentacle_04)" />
<circle id="tentacle_04_sucker_08" cx="508.49" cy="908.43" r="4.00" fill="#f6c6df" clip-path="url(#clip_tentacle_04)" />
<circle id="tentacle_04_sucker_08_core" cx="508.49" cy="908.43" r="1.68" fill="#d98ab2" opacity="0.9" clip-path="url(#clip_tentacle_04)" />
</g>
<g id="tentacle_05" data-rig="tentacle">
<path id="tentacle_05_fill" d="M 518.10 628.24 L 519.38 634.47 L 520.72 640.88 L 522.12 647.48 L 523.58 654.26 L 525.10 661.23 L 526.68 668.39 L 528.31 675.73 L 530.00 683.25 L 531.73 690.94 L 533.51 698.79 L 535.34 706.82 L 537.21 715.00 L 539.12 723.33 L 541.07 731.81 L 543.06 740.43 L 545.09 749.19 L 547.15 758.07 L 549.25 767.08 L 551.38 776.20 L 553.53 785.43 L 555.71 794.76 L 557.92 804.19 L 560.14 813.71 L 562.39 823.31 L 564.66 832.99 L 566.94 842.73 L 569.24 852.54 L 571.56 862.40 L 573.88 872.31 L 576.21 882.26 L 578.55 892.24 L 580.89 902.25 L 583.24 912.28 L 585.59 922.32 L 587.93 932.37 L 590.28 942.42 L 592.62 952.45 L 594.95 962.47 L 597.27 972.47 L 599.58 982.44 L 601.88 992.37 L 604.16 1002.26 L 635.84 997.74 L 635.25 987.58 L 634.64 977.37 L 634.03 967.13 L 633.40 956.86 L 632.76 946.58 L 632.11 936.27 L 631.46 925.96 L 630.81 915.66 L 630.16 905.36 L 629.51 895.08 L 628.86 884.82 L 628.22 874.59 L 627.59 864.41 L 626.96 854.27 L 626.35 844.18 L 625.75 834.16 L 625.17 824.20 L 624.60 814.33 L 624.06 804.53 L 623.54 794.83 L 623.04 785.24 L 622.57 775.75 L 622.12 766.37 L 621.71 757.12 L 621.33 748.00 L 620.99 739.03 L 620.68 730.20 L 620.41 721.52 L 620.18 713.02 L 619.99 704.68 L 619.85 696.53 L 619.76 688.57 L 619.72 680.81 L 619.73 673.27 L 619.79 665.94 L 619.91 658.84 L 620.08 651.98 L 620.32 645.38 L 620.62 639.04 L 620.98 632.98 L 621.40 627.21 L 621.90 621.76 Z" fill="url(#tentacleGrad5)" />
<path id="tentacle_05_shadow" d="M 518.10 628.24 L 519.38 634.47 L 520.72 640.88 L 522.12 647.48 L 523.58 654.26 L 525.10 661.23 L 526.68 668.39 L 528.31 675.73 L 530.00 683.25 L 531.73 690.94 L 533.51 698.79 L 535.34 706.82 L 537.21 715.00 L 539.12 723.33 L 541.07 731.81 L 543.06 740.43 L 545.09 749.19 L 547.15 758.07 L 549.25 767.08 L 551.38 776.20 L 553.53 785.43 L 555.71 794.76 L 557.92 804.19 L 560.14 813.71 L 562.39 823.31 L 564.66 832.99 L 566.94 842.73 L 569.24 852.54 L 571.56 862.40 L 573.88 872.31 L 576.21 882.26 L 578.55 892.24 L 580.89 902.25 L 583.24 912.28 L 585.59 922.32 L 587.93 932.37 L 590.28 942.42 L 592.62 952.45 L 594.95 962.47 L 597.27 972.47 L 599.58 982.44 L 601.88 992.37 L 604.16 1002.26 L 635.84 997.74 L 635.25 987.58 L 634.64 977.37 L 634.03 967.13 L 633.40 956.86 L 632.76 946.58 L 632.11 936.27 L 631.46 925.96 L 630.81 915.66 L 630.16 905.36 L 629.51 895.08 L 628.86 884.82 L 628.22 874.59 L 627.59 864.41 L 626.96 854.27 L 626.35 844.18 L 625.75 834.16 L 625.17 824.20 L 624.60 814.33 L 624.06 804.53 L 623.54 794.83 L 623.04 785.24 L 622.57 775.75 L 622.12 766.37 L 621.71 757.12 L 621.33 748.00 L 620.99 739.03 L 620.68 730.20 L 620.41 721.52 L 620.18 713.02 L 619.99 704.68 L 619.85 696.53 L 619.76 688.57 L 619.72 680.81 L 619.73 673.27 L 619.79 665.94 L 619.91 658.84 L 620.08 651.98 L 620.32 645.38 L 620.62 639.04 L 620.98 632.98 L 621.40 627.21 L 621.90 621.76 Z" fill="#2f1b47" opacity="0.18" clip-path="url(#clip_tentacle_05)" />
<path id="tentacle_05_highlight" d="M 570.00 625.00 L 570.39 630.84 L 570.85 636.93 L 571.37 643.26 L 571.95 649.82 L 572.59 656.61 L 573.29 663.62 L 574.05 670.83 L 574.86 678.26 L 575.72 685.87 L 576.64 693.68 L 577.60 701.67 L 578.60 709.84 L 579.65 718.17 L 580.74 726.67 L 581.87 735.31 L 583.04 744.11 L 584.24 753.04 L 585.48 762.10 L 586.75 771.29 L 588.05 780.59 L 589.38 790.00 L 590.73 799.51 L 592.10 809.12 L 593.50 818.82 L 594.91 828.60 L 596.35 838.45 L 597.80 848.36 L 599.26 858.33 L 600.73 868.36 L 602.22 878.43 L 603.71 888.53 L 605.20 898.66 L 606.70 908.82 L 608.20 918.99 L 609.70 929.17 L 611.20 939.34 L 612.69 949.51 L 614.17 959.67 L 615.65 969.80 L 617.11 979.91 L 618.56 989.98 L 620.00 1000.00" fill="none" stroke="#ffffff" stroke-opacity="0.22" stroke-width="7" stroke-linecap="round" clip-path="url(#clip_tentacle_05)" />
<circle id="tentacle_05_sucker_01" cx="565.58" cy="711.46" r="10.50" fill="#f6c6df" clip-path="url(#clip_tentacle_05)" />
<circle id="tentacle_05_sucker_01_core" cx="565.58" cy="711.46" r="4.41" fill="#d98ab2" opacity="0.9" clip-path="url(#clip_tentacle_05)" />
<circle id="tentacle_05_sucker_02" cx="570.01" cy="736.88" r="9.57" fill="#f6c6df" clip-path="url(#clip_tentacle_05)" />
<circle id="tentacle_05_sucker_02_core" cx="570.01" cy="736.88" r="4.02" fill="#d98ab2" opacity="0.9" clip-path="url(#clip_tentacle_05)" />
<circle id="tentacle_05_sucker_03" cx="574.78" cy="763.57" r="8.64" fill="#f6c6df" clip-path="url(#clip_tentacle_05)" />
<circle id="tentacle_05_sucker_03_core" cx="574.78" cy="763.57" r="3.63" fill="#d98ab2" opacity="0.9" clip-path="url(#clip_tentacle_05)" />
<circle id="tentacle_05_sucker_04" cx="579.83" cy="791.35" r="7.71" fill="#f6c6df" clip-path="url(#clip_tentacle_05)" />
<circle id="tentacle_05_sucker_04_core" cx="579.83" cy="791.35" r="3.24" fill="#d98ab2" opacity="0.9" clip-path="url(#clip_tentacle_05)" />
<circle id="tentacle_05_sucker_05" cx="585.10" cy="820.03" r="6.79" fill="#f6c6df" clip-path="url(#clip_tentacle_05)" />
<circle id="tentacle_05_sucker_05_core" cx="585.10" cy="820.03" r="2.85" fill="#d98ab2" opacity="0.9" clip-path="url(#clip_tentacle_05)" />
<circle id="tentacle_05_sucker_06" cx="590.55" cy="849.42" r="5.86" fill="#f6c6df" clip-path="url(#clip_tentacle_05)" />
<circle id="tentacle_05_sucker_06_core" cx="590.55" cy="849.42" r="2.46" fill="#d98ab2" opacity="0.9" clip-path="url(#clip_tentacle_05)" />
<circle id="tentacle_05_sucker_07" cx="596.12" cy="879.32" r="4.93" fill="#f6c6df" clip-path="url(#clip_tentacle_05)" />
<circle id="tentacle_05_sucker_07_core" cx="596.12" cy="879.32" r="2.07" fill="#d98ab2" opacity="0.9" clip-path="url(#clip_tentacle_05)" />
<circle id="tentacle_05_sucker_08" cx="601.75" cy="909.55" r="4.00" fill="#f6c6df" clip-path="url(#clip_tentacle_05)" />
<circle id="tentacle_05_sucker_08_core" cx="601.75" cy="909.55" r="1.68" fill="#d98ab2" opacity="0.9" clip-path="url(#clip_tentacle_05)" />
</g>
<g id="tentacle_06" data-rig="tentacle">
<path id="tentacle_06_fill" d="M 568.46 636.11 L 571.16 641.79 L 573.95 647.66 L 576.80 653.73 L 579.73 659.99 L 582.73 666.43 L 585.79 673.06 L 588.92 679.86 L 592.11 686.84 L 595.36 693.99 L 598.67 701.31 L 602.03 708.79 L 605.44 716.42 L 608.90 724.21 L 612.41 732.15 L 615.97 740.23 L 619.56 748.45 L 623.20 756.80 L 626.87 765.29 L 630.57 773.89 L 634.31 782.62 L 638.07 791.46 L 641.85 800.40 L 645.66 809.46 L 649.49 818.61 L 653.34 827.85 L 657.20 837.19 L 661.07 846.61 L 664.95 856.11 L 668.83 865.68 L 672.72 875.32 L 676.61 885.02 L 680.50 894.78 L 684.38 904.60 L 688.25 914.46 L 692.11 924.37 L 695.96 934.32 L 699.79 944.30 L 703.61 954.31 L 707.40 964.34 L 711.16 974.39 L 714.90 984.45 L 718.61 994.52 L 751.39 985.48 L 749.35 974.84 L 747.28 964.20 L 745.18 953.57 L 743.05 942.95 L 740.90 932.35 L 738.73 921.77 L 736.54 911.23 L 734.34 900.72 L 732.13 890.25 L 729.90 879.83 L 727.67 869.46 L 725.44 859.14 L 723.21 848.89 L 720.98 838.71 L 718.75 828.60 L 716.54 818.57 L 714.33 808.62 L 712.14 798.77 L 709.97 789.01 L 707.81 779.35 L 705.68 769.79 L 703.58 760.35 L 701.50 751.03 L 699.46 741.83 L 697.45 732.76 L 695.48 723.82 L 693.55 715.02 L 691.66 706.37 L 689.82 697.87 L 688.03 689.52 L 686.29 681.34 L 684.61 673.33 L 682.98 665.49 L 681.42 657.84 L 679.92 650.37 L 678.50 643.09 L 677.14 636.02 L 675.86 629.15 L 674.65 622.50 L 673.53 616.06 L 672.49 609.86 L 671.54 603.89 Z" fill="url(#tentacleGrad6)" />
<path id="tentacle_06_shadow" d="M 568.46 636.11 L 571.16 641.79 L 573.95 647.66 L 576.80 653.73 L 579.73 659.99 L 582.73 666.43 L 585.79 673.06 L 588.92 679.86 L 592.11 686.84 L 595.36 693.99 L 598.67 701.31 L 602.03 708.79 L 605.44 716.42 L 608.90 724.21 L 612.41 732.15 L 615.97 740.23 L 619.56 748.45 L 623.20 756.80 L 626.87 765.29 L 630.57 773.89 L 634.31 782.62 L 638.07 791.46 L 641.85 800.40 L 645.66 809.46 L 649.49 818.61 L 653.34 827.85 L 657.20 837.19 L 661.07 846.61 L 664.95 856.11 L 668.83 865.68 L 672.72 875.32 L 676.61 885.02 L 680.50 894.78 L 684.38 904.60 L 688.25 914.46 L 692.11 924.37 L 695.96 934.32 L 699.79 944.30 L 703.61 954.31 L 707.40 964.34 L 711.16 974.39 L 714.90 984.45 L 718.61 994.52 L 751.39 985.48 L 749.35 974.84 L 747.28 964.20 L 745.18 953.57 L 743.05 942.95 L 740.90 932.35 L 738.73 921.77 L 736.54 911.23 L 734.34 900.72 L 732.13 890.25 L 729.90 879.83 L 727.67 869.46 L 725.44 859.14 L 723.21 848.89 L 720.98 838.71 L 718.75 828.60 L 716.54 818.57 L 714.33 808.62 L 712.14 798.77 L 709.97 789.01 L 707.81 779.35 L 705.68 769.79 L 703.58 760.35 L 701.50 751.03 L 699.46 741.83 L 697.45 732.76 L 695.48 723.82 L 693.55 715.02 L 691.66 706.37 L 689.82 697.87 L 688.03 689.52 L 686.29 681.34 L 684.61 673.33 L 682.98 665.49 L 681.42 657.84 L 679.92 650.37 L 678.50 643.09 L 677.14 636.02 L 675.86 629.15 L 674.65 622.50 L 673.53 616.06 L 672.49 609.86 L 671.54 603.89 Z" fill="#2f1b47" opacity="0.18" clip-path="url(#clip_tentacle_06)" />
<path id="tentacle_06_highlight" d="M 620.00 620.00 L 621.83 625.82 L 623.74 631.86 L 625.73 638.11 L 627.79 644.57 L 629.93 651.23 L 632.14 658.08 L 634.42 665.12 L 636.76 672.34 L 639.17 679.74 L 641.64 687.32 L 644.16 695.07 L 646.73 702.97 L 649.36 711.04 L 652.04 719.26 L 654.76 727.63 L 657.52 736.13 L 660.32 744.78 L 663.16 753.56 L 666.04 762.46 L 668.94 771.48 L 671.88 780.62 L 674.83 789.88 L 677.82 799.23 L 680.82 808.69 L 683.83 818.24 L 686.87 827.88 L 689.91 837.60 L 692.96 847.41 L 696.02 857.28 L 699.08 867.23 L 702.14 877.24 L 705.20 887.31 L 708.25 897.43 L 711.30 907.59 L 714.33 917.80 L 717.35 928.05 L 720.35 938.32 L 723.33 948.63 L 726.29 958.95 L 729.22 969.29 L 732.13 979.64 L 735.00 990.00" fill="none" stroke="#ffffff" stroke-opacity="0.22" stroke-width="7" stroke-linecap="round" clip-path="url(#clip_tentacle_06)" />
<circle id="tentacle_06_sucker_01" cx="634.26" cy="707.04" r="10.50" fill="#f6c6df" clip-path="url(#clip_tentacle_06)" />
<circle id="tentacle_06_sucker_01_core" cx="634.26" cy="707.04" r="4.41" fill="#d98ab2" opacity="0.9" clip-path="url(#clip_tentacle_06)" />
<circle id="tentacle_06_sucker_02" cx="643.38" cy="731.32" r="9.57" fill="#f6c6df" clip-path="url(#clip_tentacle_06)" />
<circle id="tentacle_06_sucker_02_core" cx="643.38" cy="731.32" r="4.02" fill="#d98ab2" opacity="0.9" clip-path="url(#clip_tentacle_06)" />
<circle id="tentacle_06_sucker_03" cx="652.88" cy="756.88" r="8.64" fill="#f6c6df" clip-path="url(#clip_tentacle_06)" />
<circle id="tentacle_06_sucker_03_core" cx="652.88" cy="756.88" r="3.63" fill="#d98ab2" opacity="0.9" clip-path="url(#clip_tentacle_06)" />
<circle id="tentacle_06_sucker_04" cx="662.69" cy="783.57" r="7.71" fill="#f6c6df" clip-path="url(#clip_tentacle_06)" />
<circle id="tentacle_06_sucker_04_core" cx="662.69" cy="783.57" r="3.24" fill="#d98ab2" opacity="0.9" clip-path="url(#clip_tentacle_06)" />
<circle id="tentacle_06_sucker_05" cx="672.73" cy="811.25" r="6.79" fill="#f6c6df" clip-path="url(#clip_tentacle_06)" />
<circle id="tentacle_06_sucker_05_core" cx="672.73" cy="811.25" r="2.85" fill="#d98ab2" opacity="0.9" clip-path="url(#clip_tentacle_06)" />
<circle id="tentacle_06_sucker_06" cx="682.92" cy="839.79" r="5.86" fill="#f6c6df" clip-path="url(#clip_tentacle_06)" />
<circle id="tentacle_06_sucker_06_core" cx="682.92" cy="839.79" r="2.46" fill="#d98ab2" opacity="0.9" clip-path="url(#clip_tentacle_06)" />
<circle id="tentacle_06_sucker_07" cx="693.19" cy="869.04" r="4.93" fill="#f6c6df" clip-path="url(#clip_tentacle_06)" />
<circle id="tentacle_06_sucker_07_core" cx="693.19" cy="869.04" r="2.07" fill="#d98ab2" opacity="0.9" clip-path="url(#clip_tentacle_06)" />
<circle id="tentacle_06_sucker_08" cx="703.46" cy="898.86" r="4.00" fill="#f6c6df" clip-path="url(#clip_tentacle_06)" />
<circle id="tentacle_06_sucker_08_core" cx="703.46" cy="898.86" r="1.68" fill="#d98ab2" opacity="0.9" clip-path="url(#clip_tentacle_06)" />
</g>
<g id="tentacle_07" data-rig="tentacle">
<path id="tentacle_07_fill" d="M 632.48 646.44 L 636.50 649.85 L 640.59 653.56 L 644.74 657.58 L 648.95 661.89 L 653.19 666.50 L 657.47 671.38 L 661.77 676.53 L 666.08 681.95 L 670.39 687.62 L 674.71 693.54 L 679.03 699.70 L 683.33 706.09 L 687.62 712.70 L 691.89 719.53 L 696.13 726.57 L 700.35 733.82 L 704.54 741.26 L 708.69 748.89 L 712.81 756.70 L 716.89 764.68 L 720.92 772.84 L 724.91 781.16 L 728.86 789.64 L 732.75 798.26 L 736.59 807.04 L 740.38 815.95 L 744.11 825.00 L 747.79 834.17 L 751.41 843.47 L 754.96 852.88 L 758.45 862.40 L 761.88 872.03 L 765.24 881.76 L 768.53 891.58 L 771.76 901.50 L 774.91 911.50 L 777.99 921.57 L 780.99 931.72 L 783.92 941.94 L 786.78 952.22 L 789.55 962.56 L 792.24 972.96 L 827.76 967.04 L 826.79 956.04 L 825.74 945.07 L 824.61 934.12 L 823.39 923.21 L 822.08 912.34 L 820.69 901.51 L 819.22 890.72 L 817.66 879.99 L 816.02 869.32 L 814.31 858.70 L 812.51 848.16 L 810.64 837.68 L 808.68 827.27 L 806.65 816.94 L 804.55 806.70 L 802.36 796.53 L 800.11 786.46 L 797.77 776.49 L 795.37 766.61 L 792.88 756.83 L 790.33 747.16 L 787.69 737.60 L 784.99 728.15 L 782.21 718.81 L 779.35 709.59 L 776.42 700.50 L 773.42 691.53 L 770.33 682.69 L 767.17 673.98 L 763.93 665.40 L 760.60 656.96 L 757.19 648.65 L 753.70 640.48 L 750.11 632.46 L 746.43 624.58 L 742.65 616.84 L 738.76 609.25 L 734.77 601.81 L 730.65 594.52 L 726.42 587.38 L 722.04 580.39 L 717.52 573.56 Z" fill="url(#tentacleGrad7)" />
<path id="tentacle_07_shadow" d="M 632.48 646.44 L 636.50 649.85 L 640.59 653.56 L 644.74 657.58 L 648.95 661.89 L 653.19 666.50 L 657.47 671.38 L 661.77 676.53 L 666.08 681.95 L 670.39 687.62 L 674.71 693.54 L 679.03 699.70 L 683.33 706.09 L 687.62 712.70 L 691.89 719.53 L 696.13 726.57 L 700.35 733.82 L 704.54 741.26 L 708.69 748.89 L 712.81 756.70 L 716.89 764.68 L 720.92 772.84 L 724.91 781.16 L 728.86 789.64 L 732.75 798.26 L 736.59 807.04 L 740.38 815.95 L 744.11 825.00 L 747.79 834.17 L 751.41 843.47 L 754.96 852.88 L 758.45 862.40 L 761.88 872.03 L 765.24 881.76 L 768.53 891.58 L 771.76 901.50 L 774.91 911.50 L 777.99 921.57 L 780.99 931.72 L 783.92 941.94 L 786.78 952.22 L 789.55 962.56 L 792.24 972.96 L 827.76 967.04 L 826.79 956.04 L 825.74 945.07 L 824.61 934.12 L 823.39 923.21 L 822.08 912.34 L 820.69 901.51 L 819.22 890.72 L 817.66 879.99 L 816.02 869.32 L 814.31 858.70 L 812.51 848.16 L 810.64 837.68 L 808.68 827.27 L 806.65 816.94 L 804.55 806.70 L 802.36 796.53 L 800.11 786.46 L 797.77 776.49 L 795.37 766.61 L 792.88 756.83 L 790.33 747.16 L 787.69 737.60 L 784.99 728.15 L 782.21 718.81 L 779.35 709.59 L 776.42 700.50 L 773.42 691.53 L 770.33 682.69 L 767.17 673.98 L 763.93 665.40 L 760.60 656.96 L 757.19 648.65 L 753.70 640.48 L 750.11 632.46 L 746.43 624.58 L 742.65 616.84 L 738.76 609.25 L 734.77 601.81 L 730.65 594.52 L 726.42 587.38 L 722.04 580.39 L 717.52 573.56 Z" fill="#2f1b47" opacity="0.18" clip-path="url(#clip_tentacle_07)" />
<path id="tentacle_07_highlight" d="M 675.00 610.00 L 679.27 615.12 L 683.50 620.47 L 687.70 626.05 L 691.86 631.85 L 695.98 637.87 L 700.06 644.11 L 704.10 650.56 L 708.09 657.20 L 712.05 664.05 L 715.95 671.09 L 719.82 678.33 L 723.63 685.74 L 727.40 693.34 L 731.11 701.11 L 734.78 709.05 L 738.39 717.16 L 741.95 725.43 L 745.45 733.85 L 748.90 742.42 L 752.29 751.14 L 755.62 760.00 L 758.90 769.00 L 762.11 778.12 L 765.26 787.38 L 768.35 796.75 L 771.37 806.24 L 774.33 815.85 L 777.22 825.56 L 780.05 835.37 L 782.80 845.28 L 785.48 855.28 L 788.09 865.37 L 790.63 875.54 L 793.10 885.79 L 795.49 896.11 L 797.80 906.50 L 800.03 916.95 L 802.19 927.47 L 804.27 938.03 L 806.26 948.65 L 808.17 959.30 L 810.00 970.00" fill="none" stroke="#ffffff" stroke-opacity="0.22" stroke-width="7" stroke-linecap="round" clip-path="url(#clip_tentacle_07)" />
<circle id="tentacle_07_sucker_01" cx="711.91" cy="691.66" r="10.50" fill="#f6c6df" clip-path="url(#clip_tentacle_07)" />
<circle id="tentacle_07_sucker_01_core" cx="711.91" cy="691.66" r="4.41" fill="#d98ab2" opacity="0.9" clip-path="url(#clip_tentacle_07)" />
<circle id="tentacle_07_sucker_02" cx="723.88" cy="713.99" r="9.57" fill="#f6c6df" clip-path="url(#clip_tentacle_07)" />
<circle id="tentacle_07_sucker_02_core" cx="723.88" cy="713.99" r="4.02" fill="#d98ab2" opacity="0.9" clip-path="url(#clip_tentacle_07)" />
<circle id="tentacle_07_sucker_03" cx="735.45" cy="737.94" r="8.64" fill="#f6c6df" clip-path="url(#clip_tentacle_07)" />
<circle id="tentacle_07_sucker_03_core" cx="735.45" cy="737.94" r="3.63" fill="#d98ab2" opacity="0.9" clip-path="url(#clip_tentacle_07)" />
<circle id="tentacle_07_sucker_04" cx="746.58" cy="763.35" r="7.71" fill="#f6c6df" clip-path="url(#clip_tentacle_07)" />
<circle id="tentacle_07_sucker_04_core" cx="746.58" cy="763.35" r="3.24" fill="#d98ab2" opacity="0.9" clip-path="url(#clip_tentacle_07)" />
<circle id="tentacle_07_sucker_05" cx="757.22" cy="790.07" r="6.79" fill="#f6c6df" clip-path="url(#clip_tentacle_07)" />
<circle id="tentacle_07_sucker_05_core" cx="757.22" cy="790.07" r="2.85" fill="#d98ab2" opacity="0.9" clip-path="url(#clip_tentacle_07)" />
<circle id="tentacle_07_sucker_06" cx="767.32" cy="817.97" r="5.86" fill="#f6c6df" clip-path="url(#clip_tentacle_07)" />
<circle id="tentacle_07_sucker_06_core" cx="767.32" cy="817.97" r="2.46" fill="#d98ab2" opacity="0.9" clip-path="url(#clip_tentacle_07)" />
<circle id="tentacle_07_sucker_07" cx="776.86" cy="846.90" r="4.93" fill="#f6c6df" clip-path="url(#clip_tentacle_07)" />
<circle id="tentacle_07_sucker_07_core" cx="776.86" cy="846.90" r="2.07" fill="#d98ab2" opacity="0.9" clip-path="url(#clip_tentacle_07)" />
<circle id="tentacle_07_sucker_08" cx="785.78" cy="876.73" r="4.00" fill="#f6c6df" clip-path="url(#clip_tentacle_07)" />
<circle id="tentacle_07_sucker_08_core" cx="785.78" cy="876.73" r="1.68" fill="#d98ab2" opacity="0.9" clip-path="url(#clip_tentacle_07)" />
</g>
<g id="tentacle_08" data-rig="tentacle">
<path id="tentacle_08_fill" d="M 702.83 638.26 L 707.88 640.67 L 712.96 643.36 L 718.05 646.33 L 723.15 649.58 L 728.25 653.12 L 733.35 656.95 L 738.44 661.05 L 743.51 665.44 L 748.55 670.11 L 753.56 675.05 L 758.53 680.26 L 763.45 685.73 L 768.32 691.47 L 773.12 697.45 L 777.87 703.68 L 782.54 710.15 L 787.14 716.85 L 791.66 723.78 L 796.09 730.91 L 800.44 738.26 L 804.70 745.81 L 808.87 753.55 L 812.94 761.47 L 816.91 769.57 L 820.79 777.84 L 824.56 786.27 L 828.23 794.86 L 831.79 803.59 L 835.24 812.46 L 838.59 821.46 L 841.83 830.59 L 844.96 839.83 L 847.98 849.18 L 850.89 858.63 L 853.69 868.17 L 856.37 877.81 L 858.95 887.52 L 861.40 897.31 L 863.75 907.16 L 865.98 917.08 L 868.10 927.04 L 870.11 937.06 L 909.89 932.94 L 909.64 922.26 L 909.25 911.58 L 908.75 900.90 L 908.11 890.24 L 907.35 879.59 L 906.45 868.96 L 905.43 858.35 L 904.28 847.78 L 902.99 837.25 L 901.57 826.76 L 900.01 816.31 L 898.32 805.91 L 896.48 795.58 L 894.51 785.30 L 892.39 775.09 L 890.13 764.94 L 887.72 754.88 L 885.16 744.89 L 882.44 734.98 L 879.58 725.17 L 876.55 715.44 L 873.36 705.81 L 870.00 696.29 L 866.48 686.87 L 862.78 677.55 L 858.90 668.36 L 854.83 659.28 L 850.58 650.32 L 846.13 641.50 L 841.48 632.81 L 836.62 624.26 L 831.54 615.85 L 826.24 607.60 L 820.71 599.51 L 814.94 591.59 L 808.92 583.84 L 802.65 576.28 L 796.11 568.93 L 789.30 561.78 L 782.21 554.85 L 774.84 548.17 L 767.17 541.74 Z" fill="url(#tentacleGrad8)" />
<path id="tentacle_08_shadow" d="M 702.83 638.26 L 707.88 640.67 L 712.96 643.36 L 718.05 646.33 L 723.15 649.58 L 728.25 653.12 L 733.35 656.95 L 738.44 661.05 L 743.51 665.44 L 748.55 670.11 L 753.56 675.05 L 758.53 680.26 L 763.45 685.73 L 768.32 691.47 L 773.12 697.45 L 777.87 703.68 L 782.54 710.15 L 787.14 716.85 L 791.66 723.78 L 796.09 730.91 L 800.44 738.26 L 804.70 745.81 L 808.87 753.55 L 812.94 761.47 L 816.91 769.57 L 820.79 777.84 L 824.56 786.27 L 828.23 794.86 L 831.79 803.59 L 835.24 812.46 L 838.59 821.46 L 841.83 830.59 L 844.96 839.83 L 847.98 849.18 L 850.89 858.63 L 853.69 868.17 L 856.37 877.81 L 858.95 887.52 L 861.40 897.31 L 863.75 907.16 L 865.98 917.08 L 868.10 927.04 L 870.11 937.06 L 909.89 932.94 L 909.64 922.26 L 909.25 911.58 L 908.75 900.90 L 908.11 890.24 L 907.35 879.59 L 906.45 868.96 L 905.43 858.35 L 904.28 847.78 L 902.99 837.25 L 901.57 826.76 L 900.01 816.31 L 898.32 805.91 L 896.48 795.58 L 894.51 785.30 L 892.39 775.09 L 890.13 764.94 L 887.72 754.88 L 885.16 744.89 L 882.44 734.98 L 879.58 725.17 L 876.55 715.44 L 873.36 705.81 L 870.00 696.29 L 866.48 686.87 L 862.78 677.55 L 858.90 668.36 L 854.83 659.28 L 850.58 650.32 L 846.13 641.50 L 841.48 632.81 L 836.62 624.26 L 831.54 615.85 L 826.24 607.60 L 820.71 599.51 L 814.94 591.59 L 808.92 583.84 L 802.65 576.28 L 796.11 568.93 L 789.30 561.78 L 782.21 554.85 L 774.84 548.17 L 767.17 541.74 Z" fill="#2f1b47" opacity="0.18" clip-path="url(#clip_tentacle_08)" />
<path id="tentacle_08_highlight" d="M 735.00 590.00 L 741.36 594.42 L 747.59 599.11 L 753.68 604.05 L 759.63 609.25 L 765.45 614.70 L 771.14 620.39 L 776.69 626.32 L 782.11 632.47 L 787.40 638.85 L 792.55 645.45 L 797.57 652.26 L 802.46 659.27 L 807.22 666.48 L 811.85 673.89 L 816.35 681.48 L 820.72 689.25 L 824.96 697.20 L 829.07 705.32 L 833.05 713.60 L 836.90 722.04 L 840.62 730.62 L 844.22 739.36 L 847.69 748.23 L 851.03 757.23 L 854.25 766.36 L 857.34 775.61 L 860.31 784.97 L 863.15 794.44 L 865.86 804.02 L 868.45 813.69 L 870.92 823.45 L 873.27 833.29 L 875.49 843.21 L 877.58 853.21 L 879.56 863.26 L 881.41 873.38 L 883.15 883.55 L 884.76 893.77 L 886.25 904.03 L 887.62 914.33 L 888.87 924.65 L 890.00 935.00" fill="none" stroke="#ffffff" stroke-opacity="0.22" stroke-width="7" stroke-linecap="round" clip-path="url(#clip_tentacle_08)" />
<circle id="tentacle_08_sucker_01" cx="791.60" cy="666.64" r="10.50" fill="#f6c6df" clip-path="url(#clip_tentacle_08)" />
<circle id="tentacle_08_sucker_01_core" cx="791.60" cy="666.64" r="4.41" fill="#d98ab2" opacity="0.9" clip-path="url(#clip_tentacle_08)" />
<circle id="tentacle_08_sucker_02" cx="805.99" cy="687.46" r="9.57" fill="#f6c6df" clip-path="url(#clip_tentacle_08)" />
<circle id="tentacle_08_sucker_02_core" cx="805.99" cy="687.46" r="4.02" fill="#d98ab2" opacity="0.9" clip-path="url(#clip_tentacle_08)" />
<circle id="tentacle_08_sucker_03" cx="819.38" cy="710.10" r="8.64" fill="#f6c6df" clip-path="url(#clip_tentacle_08)" />
<circle id="tentacle_08_sucker_03_core" cx="819.38" cy="710.10" r="3.63" fill="#d98ab2" opacity="0.9" clip-path="url(#clip_tentacle_08)" />
<circle id="tentacle_08_sucker_04" cx="831.74" cy="734.38" r="7.71" fill="#f6c6df" clip-path="url(#clip_tentacle_08)" />
<circle id="tentacle_08_sucker_04_core" cx="831.74" cy="734.38" r="3.24" fill="#d98ab2" opacity="0.9" clip-path="url(#clip_tentacle_08)" />
<circle id="tentacle_08_sucker_05" cx="843.06" cy="760.12" r="6.79" fill="#f6c6df" clip-path="url(#clip_tentacle_08)" />
<circle id="tentacle_08_sucker_05_core" cx="843.06" cy="760.12" r="2.85" fill="#d98ab2" opacity="0.9" clip-path="url(#clip_tentacle_08)" />
<circle id="tentacle_08_sucker_06" cx="853.31" cy="787.13" r="5.86" fill="#f6c6df" clip-path="url(#clip_tentacle_08)" />
<circle id="tentacle_08_sucker_06_core" cx="853.31" cy="787.13" r="2.46" fill="#d98ab2" opacity="0.9" clip-path="url(#clip_tentacle_08)" />
<circle id="tentacle_08_sucker_07" cx="862.49" cy="815.24" r="4.93" fill="#f6c6df" clip-path="url(#clip_tentacle_08)" />
<circle id="tentacle_08_sucker_07_core" cx="862.49" cy="815.24" r="2.07" fill="#d98ab2" opacity="0.9" clip-path="url(#clip_tentacle_08)" />
<circle id="tentacle_08_sucker_08" cx="870.60" cy="844.27" r="4.00" fill="#f6c6df" clip-path="url(#clip_tentacle_08)" />
<circle id="tentacle_08_sucker_08_core" cx="870.60" cy="844.27" r="1.68" fill="#d98ab2" opacity="0.9" clip-path="url(#clip_tentacle_08)" />
</g>
<g id="body">
<ellipse id="body_fill" cx="512" cy="390" rx="250" ry="230.0" fill="url(#bodyGrad)" />
<ellipse id="body_shade" cx="547" cy="425" rx="237.5" ry="210.0" fill="url(#bodyShade)" />
<ellipse id="body_highlight" cx="447" cy="310" rx="145.0" ry="105.0" fill="url(#bodyHighlight)" />
</g>
<g id="face">
<ellipse id="eye_l_white" cx="430" cy="360" rx="62" ry="68" fill="#f6fbff" />
<ellipse id="eye_r_white" cx="594" cy="360" rx="62" ry="68" fill="#f6fbff" />
<circle id="eye_l_pupil" cx="430" cy="372" r="30" fill="#242633" />
<circle id="eye_r_pupil" cx="594" cy="372" r="30" fill="#242633" />
<circle id="eye_l_glint" cx="418" cy="360" r="9" fill="#fff" />
<circle id="eye_r_glint" cx="582" cy="360" r="9" fill="#fff" />
<path id="mouth" d="M 455 470 C 490 510 535 510 569 470" fill="none" stroke="#542f73" stroke-width="14" stroke-linecap="round" />
</g>
</g>
</svg>
