<svg xmlns="http://www.w3.org/2000/svg" viewBox="0 0 2048 2048" width="1024" height="1024" preserveAspectRatio="xMidYMid meet">
<defs>
<radialGradient id="bg" cx="50%" cy="20%" r="90%"><stop offset="0" stop-color="#f0fbff"/><stop offset="1" stop-color="#d7ecf7"/></radialGradient>
<linearGradient id="bodyGrad" x1="0" y1="0" x2="0" y2="1"><stop offset="0" stop-color="#cd8cf2"/><stop offset="1" stop-color="#7a46ab"/></linearGradient>
<radialGradient id="bodyHi" cx="35%" cy="26%" r="58%"><stop offset="0" stop-color="#ffffff" stop-opacity="0.50"/><stop offset="1" stop-color="#ffffff" stop-opacity="0"/></radialGradient>
<linearGradient id="bodyLow" x1="0" y1="0" x2="1" y2="1"><stop offset="0" stop-color="#4b2a67" stop-opacity="0"/><stop offset="1" stop-color="#3b224f" stop-opacity="0.30"/></linearGradient>
<linearGradient id="tg1" x1="0" y1="0" x2="0" y2="1"><stop offset="0" stop-color="#be7fe9"/><stop offset="1" stop-color="#653a92"/></linearGradient>
<linearGradient id="tg2" x1="0" y1="0" x2="0" y2="1"><stop offset="0" stop-color="#be7fe9"/><stop offset="1" stop-color="#653a92"/></linearGradient>
<linearGradient id="tg3" x1="0" y1="0" x2="0" y2="1"><stop offset="0" stop-color="#be7fe9"/><stop offset="1" stop-color="#653a92"/></linearGradient>
<linearGradient id="tg4" x1="0" y1="0" x2="0" y2="1"><stop offset="0" stop-color="#be7fe9"/><stop offset="1" stop-color="#653a92"/></linearGradient>
<linearGradient id="tg5" x1="0" y1="0" x2="0" y2="1"><stop offset="0" stop-color="#be7fe9"/><stop offset="1" stop-color="#653a92"/></linearGradient>
<linearGradient id="tg6" x1="0" y1="0" x2="0" y2="1"><stop offset="0" stop-color="#be7fe9"/><stop offset="1" stop-color="#653a92"/></linearGradient>
<linearGradient id="tg7" x1="0" y1="0" x2="0" y2="1"><stop offset="0" stop-color="#be7fe9"/><stop offset="1" stop-color="#653a92"/></linearGradient>
<linearGradient id="tg8" x1="0" y1="0" x2="0" y2="1"><stop offset="0" stop-color="#be7fe9"/><stop offset="1" stop-color="#653a92"/></linearGradient>
</defs>
<rect width="2048" height="2048" fill="url(#bg)"/>
<g id="octopus_beauty">
<g id="tentacle_01">
<path d="M 667.33 1063.43 L 653.64 1072.70 L 640.27 1082.31 L 627.20 1092.26 L 614.43 1102.52 L 601.97 1113.08 L 589.80 1123.94 L 577.93 1135.08 L 566.34 1146.48 L 555.04 1158.15 L 544.02 1170.07 L 533.28 1182.23 L 522.80 1194.63 L 512.60 1207.25 L 502.65 1220.09 L 492.97 1233.13 L 483.53 1246.38 L 474.35 1259.82 L 465.41 1273.45 L 456.72 1287.27 L 448.27 1301.26 L 440.05 1315.42 L 432.06 1329.74 L 424.30 1344.22 L 416.77 1358.86 L 409.47 1373.64 L 402.38 1388.56 L 395.52 1403.62 L 388.87 1418.81 L 382.43 1434.13 L 376.22 1449.56 L 370.21 1465.11 L 364.41 1480.77 L 358.82 1496.54 L 353.45 1512.40 L 348.27 1528.36 L 343.31 1544.41 L 338.54 1560.54 L 333.98 1576.74 L 329.63 1593.02 L 325.48 1609.37 L 321.53 1625.78 L 317.78 1642.24 L 314.23 1658.76 L 310.88 1675.32 L 307.73 1691.92 L 304.79 1708.55 L 302.04 1725.21 L 299.49 1741.90 L 297.14 1758.60 L 295.00 1775.31 L 293.05 1792.03 L 291.30 1808.75 L 289.75 1825.46 L 288.40 1842.16 L 287.25 1858.85 L 286.30 1875.51 L 353.70 1884.49 L 357.23 1869.01 L 360.94 1853.57 L 364.82 1838.16 L 368.89 1822.81 L 373.14 1807.51 L 377.56 1792.27 L 382.15 1777.10 L 386.92 1762.01 L 391.86 1747.00 L 396.98 1732.07 L 402.26 1717.24 L 407.71 1702.51 L 413.32 1687.89 L 419.10 1673.38 L 425.04 1659.00 L 431.14 1644.74 L 437.40 1630.62 L 443.82 1616.64 L 450.39 1602.81 L 457.12 1589.14 L 463.99 1575.62 L 471.02 1562.28 L 478.19 1549.12 L 485.50 1536.13 L 492.95 1523.34 L 500.55 1510.75 L 508.27 1498.36 L 516.13 1486.19 L 524.12 1474.23 L 532.23 1462.50 L 540.47 1451.00 L 548.83 1439.74 L 557.30 1428.73 L 565.88 1417.97 L 574.56 1407.47 L 583.35 1397.24 L 592.24 1387.28 L 601.22 1377.60 L 610.29 1368.21 L 619.44 1359.10 L 628.67 1350.29 L 637.97 1341.79 L 647.34 1333.59 L 656.77 1325.71 L 666.26 1318.14 L 675.80 1310.89 L 685.38 1303.96 L 695.00 1297.36 L 704.65 1291.10 L 714.33 1285.16 L 724.03 1279.56 L 733.74 1274.29 L 743.47 1269.36 L 753.20 1264.76 L 762.94 1260.50 L 772.67 1256.57 Z" fill="url(#tg1)"/>
<path d="M 667.33 1063.43 L 653.64 1072.70 L 640.27 1082.31 L 627.20 1092.26 L 614.43 1102.52 L 601.97 1113.08 L 589.80 1123.94 L 577.93 1135.08 L 566.34 1146.48 L 555.04 1158.15 L 544.02 1170.07 L 533.28 1182.23 L 522.80 1194.63 L 512.60 1207.25 L 502.65 1220.09 L 492.97 1233.13 L 483.53 1246.38 L 474.35 1259.82 L 465.41 1273.45 L 456.72 1287.27 L 448.27 1301.26 L 440.05 1315.42 L 432.06 1329.74 L 424.30 1344.22 L 416.77 1358.86 L 409.47 1373.64 L 402.38 1388.56 L 395.52 1403.62 L 388.87 1418.81 L 382.43 1434.13 L 376.22 1449.56 L 370.21 1465.11 L 364.41 1480.77 L 358.82 1496.54 L 353.45 1512.40 L 348.27 1528.36 L 343.31 1544.41 L 338.54 1560.54 L 333.98 1576.74 L 329.63 1593.02 L 325.48 1609.37 L 321.53 1625.78 L 317.78 1642.24 L 314.23 1658.76 L 310.88 1675.32 L 307.73 1691.92 L 304.79 1708.55 L 302.04 1725.21 L 299.49 1741.90 L 297.14 1758.60 L 295.00 1775.31 L 293.05 1792.03 L 291.30 1808.75 L 289.75 1825.46 L 288.40 1842.16 L 287.25 1858.85 L 286.30 1875.51 L 353.70 1884.49 L 357.23 1869.01 L 360.94 1853.57 L 364.82 1838.16 L 368.89 1822.81 L 373.14 1807.51 L 377.56 1792.27 L 382.15 1777.10 L 386.92 1762.01 L 391.86 1747.00 L 396.98 1732.07 L 402.26 1717.24 L 407.71 1702.51 L 413.32 1687.89 L 419.10 1673.38 L 425.04 1659.00 L 431.14 1644.74 L 437.40 1630.62 L 443.82 1616.64 L 450.39 1602.81 L 457.12 1589.14 L 463.99 1575.62 L 471.02 1562.28 L 478.19 1549.12 L 485.50 1536.13 L 492.95 1523.34 L 500.55 1510.75 L 508.27 1498.36 L 516.13 1486.19 L 524.12 1474.23 L 532.23 1462.50 L 540.47 1451.00 L 548.83 1439.74 L 557.30 1428.73 L 565.88 1417.97 L 574.56 1407.47 L 583.35 1397.24 L 592.24 1387.28 L 601.22 1377.60 L 610.29 1368.21 L 619.44 1359.10 L 628.67 1350.29 L 637.97 1341.79 L 647.34 1333.59 L 656.77 1325.71 L 666.26 1318.14 L 675.80 1310.89 L 685.38 1303.96 L 695.00 1297.36 L 704.65 1291.10 L 714.33 1285.16 L 724.03 1279.56 L 733.74 1274.29 L 743.47 1269.36 L 753.20 1264.76 L 762.94 1260.50 L 772.67 1256.57 Z" fill="#2b173f" opacity="0.13"/>
<path d="M 720.0,1160.0 L708.3,1166.6 L696.7,1173.5 L685.3,1180.8 L674.1,1188.4 L663.0,1196.3 L652.1,1204.5 L641.3,1213.1 L630.7,1221.9 L620.2,1231.1 L609.9,1240.5 L599.8,1250.2 L589.8,1260.2 L580.0,1270.4 L570.3,1280.9 L560.8,1291.7 L551.5,1302.7 L542.3,1314.0 L533.3,1325.5 L524.5,1337.3 L515.8,1349.2 L507.3,1361.4 L499.0,1373.9 L490.8,1386.5 L482.8,1399.3 L475.0,1412.3 L467.3,1425.5 L459.8,1438.9 L452.5,1452.5 L445.4,1466.2 L438.4,1480.2 L431.6,1494.2 L425.0,1508.5 L418.5,1522.8 L412.2,1537.3 L406.1,1552.0 L400.2,1566.8 L394.5,1581.7 L388.9,1596.7 L383.5,1611.8 L378.3,1627.1 L373.3,1642.4 L368.4,1657.8 L363.8,1673.3 L359.3,1688.9 L355.0,1704.6 L350.9,1720.3 L347.0,1736.1 L343.2,1752.0 L339.6,1767.9 L336.3,1783.8 L333.1,1799.8 L330.1,1815.8 L327.3,1831.8 L324.7,1847.9 L322.2,1863.9 L320.0,1880.0" fill="none" stroke="#fff" stroke-opacity="0.18" stroke-width="14" stroke-linecap="round"/>
<circle cx="580.47" cy="1308.68" r="22.00" fill="#f6c7df"/>
<circle cx="580.47" cy="1308.68" r="9.46" fill="#dc8eb5"/>
<circle cx="552.46" cy="1340.21" r="20.44" fill="#f6c7df"/>
<circle cx="552.46" cy="1340.21" r="8.79" fill="#dc8eb5"/>
<circle cx="525.70" cy="1374.03" r="18.89" fill="#f6c7df"/>
<circle cx="525.70" cy="1374.03" r="8.12" fill="#dc8eb5"/>
<circle cx="500.24" cy="1409.98" r="17.33" fill="#f6c7df"/>
<circle cx="500.24" cy="1409.98" r="7.45" fill="#dc8eb5"/>
<circle cx="476.14" cy="1447.89" r="15.78" fill="#f6c7df"/>
<circle cx="476.14" cy="1447.89" r="6.78" fill="#dc8eb5"/>
<circle cx="453.44" cy="1487.57" r="14.22" fill="#f6c7df"/>
<circle cx="453.44" cy="1487.57" r="6.12" fill="#dc8eb5"/>
<circle cx="432.18" cy="1528.85" r="12.67" fill="#f6c7df"/>
<circle cx="432.18" cy="1528.85" r="5.45" fill="#dc8eb5"/>
<circle cx="412.41" cy="1571.57" r="11.11" fill="#f6c7df"/>
<circle cx="412.41" cy="1571.57" r="4.78" fill="#dc8eb5"/>
<circle cx="394.16" cy="1615.54" r="9.56" fill="#f6c7df"/>
<circle cx="394.16" cy="1615.54" r="4.11" fill="#dc8eb5"/>
<circle cx="377.46" cy="1660.59" r="8.00" fill="#f6c7df"/>
<circle cx="377.46" cy="1660.59" r="3.44" fill="#dc8eb5"/>
</g>
<g id="tentacle_02">
<path d="M 771.89 1131.41 L 762.82 1141.19 L 753.96 1151.22 L 745.30 1161.49 L 736.85 1171.98 L 728.60 1182.71 L 720.53 1193.65 L 712.65 1204.81 L 704.95 1216.19 L 697.43 1227.76 L 690.08 1239.55 L 682.91 1251.52 L 675.91 1263.70 L 669.08 1276.06 L 662.43 1288.61 L 655.94 1301.34 L 649.63 1314.25 L 643.48 1327.33 L 637.51 1340.58 L 631.71 1353.99 L 626.08 1367.56 L 620.63 1381.30 L 615.35 1395.18 L 610.25 1409.21 L 605.33 1423.38 L 600.59 1437.69 L 596.03 1452.13 L 591.66 1466.71 L 587.48 1481.40 L 583.48 1496.22 L 579.68 1511.15 L 576.07 1526.19 L 572.67 1541.33 L 569.46 1556.58 L 566.46 1571.92 L 563.66 1587.34 L 561.07 1602.86 L 558.70 1618.45 L 556.54 1634.11 L 554.60 1649.84 L 552.88 1665.64 L 551.38 1681.49 L 550.11 1697.39 L 549.08 1713.34 L 548.28 1729.33 L 547.71 1745.35 L 547.39 1761.40 L 547.31 1777.48 L 547.47 1793.57 L 547.89 1809.67 L 548.56 1825.78 L 549.49 1841.89 L 550.67 1857.99 L 552.12 1874.08 L 553.84 1890.14 L 555.82 1906.19 L 558.08 1922.20 L 621.92 1917.80 L 622.30 1902.74 L 622.94 1887.73 L 623.83 1872.76 L 624.96 1857.84 L 626.34 1842.98 L 627.95 1828.19 L 629.80 1813.45 L 631.88 1798.79 L 634.19 1784.21 L 636.72 1769.71 L 639.46 1755.29 L 642.42 1740.97 L 645.58 1726.74 L 648.95 1712.61 L 652.52 1698.59 L 656.28 1684.69 L 660.23 1670.90 L 664.37 1657.23 L 668.69 1643.69 L 673.19 1630.29 L 677.86 1617.03 L 682.70 1603.91 L 687.71 1590.95 L 692.87 1578.14 L 698.19 1565.50 L 703.66 1553.02 L 709.27 1540.72 L 715.02 1528.60 L 720.91 1516.66 L 726.93 1504.92 L 733.07 1493.38 L 739.34 1482.04 L 745.71 1470.92 L 752.20 1460.01 L 758.79 1449.33 L 765.47 1438.88 L 772.25 1428.66 L 779.11 1418.70 L 786.04 1408.98 L 793.05 1399.51 L 800.13 1390.32 L 807.26 1381.39 L 814.44 1372.74 L 821.66 1364.38 L 828.92 1356.30 L 836.20 1348.53 L 843.49 1341.06 L 850.80 1333.90 L 858.10 1327.06 L 865.38 1320.55 L 872.64 1314.36 L 879.86 1308.51 L 887.03 1303.01 L 894.14 1297.85 L 901.17 1293.04 L 908.11 1288.59 Z" fill="url(#tg2)"/>
<path d="M 771.89 1131.41 L 762.82 1141.19 L 753.96 1151.22 L 745.30 1161.49 L 736.85 1171.98 L 728.60 1182.71 L 720.53 1193.65 L 712.65 1204.81 L 704.95 1216.19 L 697.43 1227.76 L 690.08 1239.55 L 682.91 1251.52 L 675.91 1263.70 L 669.08 1276.06 L 662.43 1288.61 L 655.94 1301.34 L 649.63 1314.25 L 643.48 1327.33 L 637.51 1340.58 L 631.71 1353.99 L 626.08 1367.56 L 620.63 1381.30 L 615.35 1395.18 L 610.25 1409.21 L 605.33 1423.38 L 600.59 1437.69 L 596.03 1452.13 L 591.66 1466.71 L 587.48 1481.40 L 583.48 1496.22 L 579.68 1511.15 L 576.07 1526.19 L 572.67 1541.33 L 569.46 1556.58 L 566.46 1571.92 L 563.66 1587.34 L 561.07 1602.86 L 558.70 1618.45 L 556.54 1634.11 L 554.60 1649.84 L 552.88 1665.64 L 551.38 1681.49 L 550.11 1697.39 L 549.08 1713.34 L 548.28 1729.33 L 547.71 1745.35 L 547.39 1761.40 L 547.31 1777.48 L 547.47 1793.57 L 547.89 1809.67 L 548.56 1825.78 L 549.49 1841.89 L 550.67 1857.99 L 552.12 1874.08 L 553.84 1890.14 L 555.82 1906.19 L 558.08 1922.20 L 621.92 1917.80 L 622.30 1902.74 L 622.94 1887.73 L 623.83 1872.76 L 624.96 1857.84 L 626.34 1842.98 L 627.95 1828.19 L 629.80 1813.45 L 631.88 1798.79 L 634.19 1784.21 L 636.72 1769.71 L 639.46 1755.29 L 642.42 1740.97 L 645.58 1726.74 L 648.95 1712.61 L 652.52 1698.59 L 656.28 1684.69 L 660.23 1670.90 L 664.37 1657.23 L 668.69 1643.69 L 673.19 1630.29 L 677.86 1617.03 L 682.70 1603.91 L 687.71 1590.95 L 692.87 1578.14 L 698.19 1565.50 L 703.66 1553.02 L 709.27 1540.72 L 715.02 1528.60 L 720.91 1516.66 L 726.93 1504.92 L 733.07 1493.38 L 739.34 1482.04 L 745.71 1470.92 L 752.20 1460.01 L 758.79 1449.33 L 765.47 1438.88 L 772.25 1428.66 L 779.11 1418.70 L 786.04 1408.98 L 793.05 1399.51 L 800.13 1390.32 L 807.26 1381.39 L 814.44 1372.74 L 821.66 1364.38 L 828.92 1356.30 L 836.20 1348.53 L 843.49 1341.06 L 850.80 1333.90 L 858.10 1327.06 L 865.38 1320.55 L 872.64 1314.36 L 879.86 1308.51 L 887.03 1303.01 L 894.14 1297.85 L 901.17 1293.04 L 908.11 1288.59 Z" fill="#2b173f" opacity="0.13"/>
<path d="M 840.0,1210.0 L832.0,1217.1 L824.0,1224.5 L816.2,1232.2 L808.4,1240.2 L800.6,1248.5 L793.0,1257.1 L785.4,1265.9 L777.9,1275.0 L770.5,1284.4 L763.1,1294.0 L755.9,1303.9 L748.8,1314.0 L741.8,1324.4 L734.8,1335.0 L728.0,1345.8 L721.3,1356.9 L714.8,1368.2 L708.3,1379.6 L702.0,1391.3 L695.8,1403.2 L689.7,1415.3 L683.8,1427.6 L678.0,1440.1 L672.3,1452.7 L666.8,1465.5 L661.5,1478.5 L656.3,1491.7 L651.2,1505.0 L646.4,1518.5 L641.7,1532.1 L637.1,1545.8 L632.8,1559.7 L628.6,1573.8 L624.6,1587.9 L620.8,1602.2 L617.1,1616.6 L613.7,1631.1 L610.5,1645.7 L607.4,1660.4 L604.6,1675.2 L601.9,1690.0 L599.5,1705.0 L597.3,1720.0 L595.3,1735.1 L593.6,1750.3 L592.1,1765.6 L590.7,1780.8 L589.7,1796.2 L588.8,1811.6 L588.3,1827.0 L587.9,1842.4 L587.8,1857.9 L588.0,1873.4 L588.4,1888.9 L589.1,1904.5 L590.0,1920.0" fill="none" stroke="#fff" stroke-opacity="0.18" stroke-width="14" stroke-linecap="round"/>
<circle cx="750.13" cy="1359.46" r="22.00" fill="#f6c7df"/>
<circle cx="750.13" cy="1359.46" r="9.46" fill="#dc8eb5"/>
<circle cx="729.43" cy="1391.29" r="20.44" fill="#f6c7df"/>
<circle cx="729.43" cy="1391.29" r="8.79" fill="#dc8eb5"/>
<circle cx="709.70" cy="1425.16" r="18.89" fill="#f6c7df"/>
<circle cx="709.70" cy="1425.16" r="8.12" fill="#dc8eb5"/>
<circle cx="691.07" cy="1460.91" r="17.33" fill="#f6c7df"/>
<circle cx="691.07" cy="1460.91" r="7.45" fill="#dc8eb5"/>
<circle cx="673.65" cy="1498.40" r="15.78" fill="#f6c7df"/>
<circle cx="673.65" cy="1498.40" r="6.78" fill="#dc8eb5"/>
<circle cx="657.57" cy="1537.45" r="14.22" fill="#f6c7df"/>
<circle cx="657.57" cy="1537.45" r="6.12" fill="#dc8eb5"/>
<circle cx="642.94" cy="1577.94" r="12.67" fill="#f6c7df"/>
<circle cx="642.94" cy="1577.94" r="5.45" fill="#dc8eb5"/>
<circle cx="629.87" cy="1619.69" r="11.11" fill="#f6c7df"/>
<circle cx="629.87" cy="1619.69" r="4.78" fill="#dc8eb5"/>
<circle cx="618.47" cy="1662.57" r="9.56" fill="#f6c7df"/>
<circle cx="618.47" cy="1662.57" r="4.11" fill="#dc8eb5"/>
<circle cx="608.86" cy="1706.44" r="8.00" fill="#f6c7df"/>
<circle cx="608.86" cy="1706.44" r="3.44" fill="#dc8eb5"/>
</g>
<g id="tentacle_03">
<path d="M 876.54 1188.64 L 872.42 1197.81 L 868.37 1207.20 L 864.39 1216.80 L 860.47 1226.62 L 856.61 1236.66 L 852.82 1246.91 L 849.09 1257.38 L 845.42 1268.06 L 841.82 1278.96 L 838.28 1290.06 L 834.82 1301.38 L 831.43 1312.89 L 828.12 1324.61 L 824.89 1336.53 L 821.75 1348.65 L 818.69 1360.95 L 815.74 1373.44 L 812.88 1386.11 L 810.13 1398.95 L 807.48 1411.97 L 804.95 1425.15 L 802.54 1438.50 L 800.26 1452.00 L 798.11 1465.66 L 796.09 1479.46 L 794.21 1493.40 L 792.48 1507.48 L 790.90 1521.69 L 789.47 1536.02 L 788.21 1550.47 L 787.12 1565.03 L 786.21 1579.70 L 785.47 1594.46 L 784.92 1609.33 L 784.56 1624.28 L 784.39 1639.31 L 784.43 1654.42 L 784.67 1669.60 L 785.13 1684.84 L 785.81 1700.14 L 786.71 1715.49 L 787.84 1730.89 L 789.21 1746.32 L 790.82 1761.78 L 792.68 1777.27 L 794.79 1792.77 L 797.15 1808.29 L 799.78 1823.81 L 802.68 1839.33 L 805.85 1854.83 L 809.30 1870.32 L 813.03 1885.79 L 817.05 1901.22 L 821.37 1916.62 L 825.98 1931.97 L 830.90 1947.28 L 889.10 1932.72 L 886.83 1918.01 L 884.84 1903.32 L 883.15 1888.66 L 881.74 1874.03 L 880.61 1859.44 L 879.75 1844.90 L 879.16 1830.40 L 878.82 1815.96 L 878.73 1801.57 L 878.89 1787.25 L 879.29 1772.99 L 879.91 1758.81 L 880.77 1744.70 L 881.84 1730.67 L 883.13 1716.74 L 884.63 1702.89 L 886.33 1689.14 L 888.22 1675.49 L 890.30 1661.95 L 892.57 1648.52 L 895.02 1635.21 L 897.63 1622.03 L 900.41 1608.97 L 903.36 1596.05 L 906.45 1583.26 L 909.70 1570.63 L 913.08 1558.14 L 916.60 1545.81 L 920.25 1533.65 L 924.03 1521.65 L 927.92 1509.83 L 931.92 1498.19 L 936.03 1486.74 L 940.24 1475.48 L 944.54 1464.42 L 948.92 1453.56 L 953.39 1442.92 L 957.93 1432.50 L 962.53 1422.31 L 967.19 1412.35 L 971.91 1402.63 L 976.67 1393.15 L 981.47 1383.94 L 986.30 1374.98 L 991.16 1366.30 L 996.03 1357.90 L 1000.90 1349.79 L 1005.78 1341.97 L 1010.64 1334.46 L 1015.48 1327.26 L 1020.29 1320.40 L 1025.06 1313.87 L 1029.78 1307.68 L 1034.43 1301.86 L 1038.99 1296.42 L 1043.46 1291.36 Z" fill="url(#tg3)"/>
<path d="M 876.54 1188.64 L 872.42 1197.81 L 868.37 1207.20 L 864.39 1216.80 L 860.47 1226.62 L 856.61 1236.66 L 852.82 1246.91 L 849.09 1257.38 L 845.42 1268.06 L 841.82 1278.96 L 838.28 1290.06 L 834.82 1301.38 L 831.43 1312.89 L 828.12 1324.61 L 824.89 1336.53 L 821.75 1348.65 L 818.69 1360.95 L 815.74 1373.44 L 812.88 1386.11 L 810.13 1398.95 L 807.48 1411.97 L 804.95 1425.15 L 802.54 1438.50 L 800.26 1452.00 L 798.11 1465.66 L 796.09 1479.46 L 794.21 1493.40 L 792.48 1507.48 L 790.90 1521.69 L 789.47 1536.02 L 788.21 1550.47 L 787.12 1565.03 L 786.21 1579.70 L 785.47 1594.46 L 784.92 1609.33 L 784.56 1624.28 L 784.39 1639.31 L 784.43 1654.42 L 784.67 1669.60 L 785.13 1684.84 L 785.81 1700.14 L 786.71 1715.49 L 787.84 1730.89 L 789.21 1746.32 L 790.82 1761.78 L 792.68 1777.27 L 794.79 1792.77 L 797.15 1808.29 L 799.78 1823.81 L 802.68 1839.33 L 805.85 1854.83 L 809.30 1870.32 L 813.03 1885.79 L 817.05 1901.22 L 821.37 1916.62 L 825.98 1931.97 L 830.90 1947.28 L 889.10 1932.72 L 886.83 1918.01 L 884.84 1903.32 L 883.15 1888.66 L 881.74 1874.03 L 880.61 1859.44 L 879.75 1844.90 L 879.16 1830.40 L 878.82 1815.96 L 878.73 1801.57 L 878.89 1787.25 L 879.29 1772.99 L 879.91 1758.81 L 880.77 1744.70 L 881.84 1730.67 L 883.13 1716.74 L 884.63 1702.89 L 886.33 1689.14 L 888.22 1675.49 L 890.30 1661.95 L 892.57 1648.52 L 895.02 1635.21 L 897.63 1622.03 L 900.41 1608.97 L 903.36 1596.05 L 906.45 1583.26 L 909.70 1570.63 L 913.08 1558.14 L 916.60 1545.81 L 920.25 1533.65 L 924.03 1521.65 L 927.92 1509.83 L 931.92 1498.19 L 936.03 1486.74 L 940.24 1475.48 L 944.54 1464.42 L 948.92 1453.56 L 953.39 1442.92 L 957.93 1432.50 L 962.53 1422.31 L 967.19 1412.35 L 971.91 1402.63 L 976.67 1393.15 L 981.47 1383.94 L 986.30 1374.98 L 991.16 1366.30 L 996.03 1357.90 L 1000.90 1349.79 L 1005.78 1341.97 L 1010.64 1334.46 L 1015.48 1327.26 L 1020.29 1320.40 L 1025.06 1313.87 L 1029.78 1307.68 L 1034.43 1301.86 L 1038.99 1296.42 L 1043.46 1291.36 Z" fill="#2b173f" opacity="0.13"/>
<path d="M 960.0,1240.0 L955.7,1247.1 L951.4,1254.5 L947.1,1262.2 L942.8,1270.2 L938.5,1278.5 L934.2,1287.1 L929.9,1295.9 L925.6,1305.0 L921.4,1314.4 L917.2,1324.0 L913.0,1333.8 L908.9,1343.9 L904.8,1354.3 L900.8,1364.8 L896.8,1375.6 L892.9,1386.6 L889.1,1397.9 L885.4,1409.3 L881.8,1420.9 L878.2,1432.8 L874.7,1444.8 L871.4,1457.0 L868.1,1469.4 L865.0,1481.9 L862.0,1494.6 L859.1,1507.5 L856.4,1520.6 L853.8,1533.8 L851.3,1547.1 L849.0,1560.5 L846.8,1574.1 L844.8,1587.9 L842.9,1601.7 L841.3,1615.7 L839.8,1629.7 L838.5,1643.9 L837.4,1658.2 L836.4,1672.5 L835.7,1687.0 L835.2,1701.5 L834.9,1716.1 L834.8,1730.8 L835.0,1745.5 L835.4,1760.3 L836.0,1775.1 L836.8,1790.0 L837.9,1804.9 L839.3,1819.9 L840.9,1834.9 L842.8,1849.9 L845.0,1864.9 L847.4,1879.9 L850.1,1894.9 L853.1,1910.0 L856.4,1925.0 L860.0,1940.0" fill="none" stroke="#fff" stroke-opacity="0.18" stroke-width="14" stroke-linecap="round"/>
<circle cx="921.26" cy="1384.42" r="22.00" fill="#f6c7df"/>
<circle cx="921.26" cy="1384.42" r="9.46" fill="#dc8eb5"/>
<circle cx="908.38" cy="1416.65" r="20.44" fill="#f6c7df"/>
<circle cx="908.38" cy="1416.65" r="8.79" fill="#dc8eb5"/>
<circle cx="896.20" cy="1450.82" r="18.89" fill="#f6c7df"/>
<circle cx="896.20" cy="1450.82" r="8.12" fill="#dc8eb5"/>
<circle cx="884.89" cy="1486.76" r="17.33" fill="#f6c7df"/>
<circle cx="884.89" cy="1486.76" r="7.45" fill="#dc8eb5"/>
<circle cx="874.60" cy="1524.30" r="15.78" fill="#f6c7df"/>
<circle cx="874.60" cy="1524.30" r="6.78" fill="#dc8eb5"/>
<circle cx="865.51" cy="1563.29" r="14.22" fill="#f6c7df"/>
<circle cx="865.51" cy="1563.29" r="6.12" fill="#dc8eb5"/>
<circle cx="857.77" cy="1603.59" r="12.67" fill="#f6c7df"/>
<circle cx="857.77" cy="1603.59" r="5.45" fill="#dc8eb5"/>
<circle cx="851.54" cy="1645.03" r="11.11" fill="#f6c7df"/>
<circle cx="851.54" cy="1645.03" r="4.78" fill="#dc8eb5"/>
<circle cx="846.99" cy="1687.47" r="9.56" fill="#f6c7df"/>
<circle cx="846.99" cy="1687.47" r="4.11" fill="#dc8eb5"/>
<circle cx="844.28" cy="1730.76" r="8.00" fill="#f6c7df"/>
<circle cx="844.28" cy="1730.76" r="3.44" fill="#dc8eb5"/>
</g>
<g id="tentacle_04">
<path d="M 958.41 1228.86 L 957.77 1237.04 L 957.13 1245.50 L 956.50 1254.25 L 955.88 1263.28 L 955.26 1272.60 L 954.65 1282.20 L 954.05 1292.08 L 953.46 1302.24 L 952.88 1312.66 L 952.32 1323.35 L 951.78 1334.30 L 951.25 1345.50 L 950.75 1356.95 L 950.28 1368.64 L 949.83 1380.56 L 949.42 1392.71 L 949.03 1405.07 L 948.69 1417.65 L 948.38 1430.44 L 948.12 1443.41 L 947.90 1456.58 L 947.73 1469.93 L 947.61 1483.46 L 947.55 1497.15 L 947.54 1510.99 L 947.59 1524.99 L 947.71 1539.13 L 947.89 1553.40 L 948.14 1567.80 L 948.46 1582.32 L 948.86 1596.95 L 949.34 1611.68 L 949.90 1626.50 L 950.54 1641.41 L 951.27 1656.40 L 952.09 1671.45 L 953.01 1686.57 L 954.02 1701.74 L 955.14 1716.95 L 956.35 1732.20 L 957.67 1747.47 L 959.10 1762.77 L 960.65 1778.07 L 962.30 1793.38 L 964.08 1808.68 L 965.98 1823.97 L 968.00 1839.23 L 970.15 1854.46 L 972.43 1869.65 L 974.84 1884.79 L 977.40 1899.87 L 980.09 1914.89 L 982.92 1929.83 L 985.90 1944.68 L 989.02 1959.44 L 992.30 1974.10 L 1047.70 1965.90 L 1046.84 1951.53 L 1046.14 1937.10 L 1045.57 1922.60 L 1045.15 1908.04 L 1044.87 1893.43 L 1044.73 1878.78 L 1044.72 1864.10 L 1044.84 1849.39 L 1045.08 1834.66 L 1045.45 1819.91 L 1045.93 1805.17 L 1046.54 1790.42 L 1047.26 1775.69 L 1048.08 1760.98 L 1049.02 1746.30 L 1050.06 1731.65 L 1051.21 1717.05 L 1052.45 1702.49 L 1053.79 1688.00 L 1055.22 1673.58 L 1056.73 1659.23 L 1058.34 1644.96 L 1060.03 1630.79 L 1061.80 1616.72 L 1063.64 1602.75 L 1065.56 1588.91 L 1067.55 1575.18 L 1069.61 1561.60 L 1071.74 1548.15 L 1073.92 1534.85 L 1076.16 1521.72 L 1078.46 1508.74 L 1080.81 1495.95 L 1083.21 1483.34 L 1085.66 1470.92 L 1088.14 1458.70 L 1090.67 1446.69 L 1093.23 1434.90 L 1095.83 1423.34 L 1098.46 1412.02 L 1101.11 1400.94 L 1103.78 1390.11 L 1106.48 1379.55 L 1109.19 1369.26 L 1111.91 1359.26 L 1114.65 1349.55 L 1117.39 1340.15 L 1120.13 1331.06 L 1122.87 1322.29 L 1125.60 1313.87 L 1128.32 1305.79 L 1131.03 1298.07 L 1133.71 1290.73 L 1136.37 1283.79 L 1139.00 1277.25 L 1141.59 1271.14 Z" fill="url(#tg4)"/>
<path d="M 958.41 1228.86 L 957.77 1237.04 L 957.13 1245.50 L 956.50 1254.25 L 955.88 1263.28 L 955.26 1272.60 L 954.65 1282.20 L 954.05 1292.08 L 953.46 1302.24 L 952.88 1312.66 L 952.32 1323.35 L 951.78 1334.30 L 951.25 1345.50 L 950.75 1356.95 L 950.28 1368.64 L 949.83 1380.56 L 949.42 1392.71 L 949.03 1405.07 L 948.69 1417.65 L 948.38 1430.44 L 948.12 1443.41 L 947.90 1456.58 L 947.73 1469.93 L 947.61 1483.46 L 947.55 1497.15 L 947.54 1510.99 L 947.59 1524.99 L 947.71 1539.13 L 947.89 1553.40 L 948.14 1567.80 L 948.46 1582.32 L 948.86 1596.95 L 949.34 1611.68 L 949.90 1626.50 L 950.54 1641.41 L 951.27 1656.40 L 952.09 1671.45 L 953.01 1686.57 L 954.02 1701.74 L 955.14 1716.95 L 956.35 1732.20 L 957.67 1747.47 L 959.10 1762.77 L 960.65 1778.07 L 962.30 1793.38 L 964.08 1808.68 L 965.98 1823.97 L 968.00 1839.23 L 970.15 1854.46 L 972.43 1869.65 L 974.84 1884.79 L 977.40 1899.87 L 980.09 1914.89 L 982.92 1929.83 L 985.90 1944.68 L 989.02 1959.44 L 992.30 1974.10 L 1047.70 1965.90 L 1046.84 1951.53 L 1046.14 1937.10 L 1045.57 1922.60 L 1045.15 1908.04 L 1044.87 1893.43 L 1044.73 1878.78 L 1044.72 1864.10 L 1044.84 1849.39 L 1045.08 1834.66 L 1045.45 1819.91 L 1045.93 1805.17 L 1046.54 1790.42 L 1047.26 1775.69 L 1048.08 1760.98 L 1049.02 1746.30 L 1050.06 1731.65 L 1051.21 1717.05 L 1052.45 1702.49 L 1053.79 1688.00 L 1055.22 1673.58 L 1056.73 1659.23 L 1058.34 1644.96 L 1060.03 1630.79 L 1061.80 1616.72 L 1063.64 1602.75 L 1065.56 1588.91 L 1067.55 1575.18 L 1069.61 1561.60 L 1071.74 1548.15 L 1073.92 1534.85 L 1076.16 1521.72 L 1078.46 1508.74 L 1080.81 1495.95 L 1083.21 1483.34 L 1085.66 1470.92 L 1088.14 1458.70 L 1090.67 1446.69 L 1093.23 1434.90 L 1095.83 1423.34 L 1098.46 1412.02 L 1101.11 1400.94 L 1103.78 1390.11 L 1106.48 1379.55 L 1109.19 1369.26 L 1111.91 1359.26 L 1114.65 1349.55 L 1117.39 1340.15 L 1120.13 1331.06 L 1122.87 1322.29 L 1125.60 1313.87 L 1128.32 1305.79 L 1131.03 1298.07 L 1133.71 1290.73 L 1136.37 1283.79 L 1139.00 1277.25 L 1141.59 1271.14 Z" fill="#2b173f" opacity="0.13"/>
<path d="M 1050.0,1250.0 L1048.4,1257.1 L1046.8,1264.6 L1045.1,1272.5 L1043.5,1280.7 L1041.8,1289.2 L1040.1,1298.0 L1038.5,1307.2 L1036.8,1316.6 L1035.1,1326.4 L1033.5,1336.5 L1031.8,1346.8 L1030.2,1357.4 L1028.6,1368.3 L1027.0,1379.4 L1025.5,1390.7 L1023.9,1402.4 L1022.4,1414.2 L1021.0,1426.3 L1019.5,1438.6 L1018.1,1451.1 L1016.8,1463.8 L1015.5,1476.6 L1014.2,1489.7 L1013.0,1502.9 L1011.9,1516.4 L1010.8,1529.9 L1009.7,1543.6 L1008.8,1557.5 L1007.8,1571.5 L1007.0,1585.6 L1006.3,1599.9 L1005.6,1614.2 L1005.0,1628.6 L1004.4,1643.2 L1004.0,1657.8 L1003.7,1672.5 L1003.4,1687.3 L1003.2,1702.1 L1003.2,1717.0 L1003.2,1731.9 L1003.3,1746.9 L1003.6,1761.9 L1004.0,1776.9 L1004.4,1791.9 L1005.0,1806.9 L1005.7,1821.9 L1006.5,1836.9 L1007.5,1851.9 L1008.6,1866.9 L1009.8,1881.8 L1011.1,1896.7 L1012.6,1911.5 L1014.2,1926.2 L1016.0,1940.9 L1017.9,1955.5 L1020.0,1970.0" fill="none" stroke="#fff" stroke-opacity="0.18" stroke-width="14" stroke-linecap="round"/>
<circle cx="1051.20" cy="1394.21" r="22.00" fill="#f6c7df"/>
<circle cx="1051.20" cy="1394.21" r="9.46" fill="#dc8eb5"/>
<circle cx="1044.92" cy="1429.14" r="20.44" fill="#f6c7df"/>
<circle cx="1044.92" cy="1429.14" r="8.79" fill="#dc8eb5"/>
<circle cx="1038.95" cy="1466.06" r="18.89" fill="#f6c7df"/>
<circle cx="1038.95" cy="1466.06" r="8.12" fill="#dc8eb5"/>
<circle cx="1033.38" cy="1504.75" r="17.33" fill="#f6c7df"/>
<circle cx="1033.38" cy="1504.75" r="7.45" fill="#dc8eb5"/>
<circle cx="1028.29" cy="1544.99" r="15.78" fill="#f6c7df"/>
<circle cx="1028.29" cy="1544.99" r="6.78" fill="#dc8eb5"/>
<circle cx="1023.77" cy="1586.56" r="14.22" fill="#f6c7df"/>
<circle cx="1023.77" cy="1586.56" r="6.12" fill="#dc8eb5"/>
<circle cx="1019.90" cy="1629.23" r="12.67" fill="#f6c7df"/>
<circle cx="1019.90" cy="1629.23" r="5.45" fill="#dc8eb5"/>
<circle cx="1016.76" cy="1672.78" r="11.11" fill="#f6c7df"/>
<circle cx="1016.76" cy="1672.78" r="4.78" fill="#dc8eb5"/>
<circle cx="1014.45" cy="1717.01" r="9.56" fill="#f6c7df"/>
<circle cx="1014.45" cy="1717.01" r="4.11" fill="#dc8eb5"/>
<circle cx="1013.03" cy="1761.69" r="8.00" fill="#f6c7df"/>
<circle cx="1013.03" cy="1761.69" r="3.44" fill="#dc8eb5"/>
</g>
<g id="tentacle_05">
<path d="M 1048.41 1271.14 L 1051.00 1277.26 L 1053.64 1283.82 L 1056.31 1290.82 L 1059.02 1298.21 L 1061.76 1305.99 L 1064.52 1314.15 L 1067.30 1322.66 L 1070.10 1331.52 L 1072.92 1340.71 L 1075.75 1350.21 L 1078.59 1360.03 L 1081.44 1370.15 L 1084.30 1380.55 L 1087.16 1391.23 L 1090.03 1402.17 L 1092.90 1413.38 L 1095.77 1424.83 L 1098.64 1436.51 L 1101.50 1448.43 L 1104.36 1460.57 L 1107.22 1472.91 L 1110.07 1485.46 L 1112.90 1498.20 L 1115.73 1511.13 L 1118.55 1524.23 L 1121.35 1537.49 L 1124.13 1550.92 L 1126.90 1564.49 L 1129.65 1578.21 L 1132.39 1592.05 L 1135.10 1606.02 L 1137.79 1620.11 L 1140.45 1634.30 L 1143.09 1648.59 L 1145.71 1662.97 L 1148.29 1677.43 L 1150.85 1691.96 L 1153.37 1706.56 L 1155.87 1721.22 L 1158.33 1735.92 L 1160.75 1750.66 L 1163.14 1765.44 L 1165.49 1780.24 L 1167.81 1795.05 L 1170.08 1809.87 L 1172.31 1824.69 L 1174.50 1839.50 L 1176.64 1854.30 L 1178.74 1869.07 L 1180.79 1883.80 L 1182.79 1898.49 L 1184.74 1913.13 L 1186.64 1927.72 L 1188.49 1942.23 L 1190.28 1956.68 L 1192.02 1971.04 L 1247.98 1968.96 L 1248.59 1954.30 L 1249.14 1939.55 L 1249.64 1924.71 L 1250.08 1909.80 L 1250.48 1894.82 L 1250.82 1879.78 L 1251.11 1864.68 L 1251.35 1849.55 L 1251.54 1834.38 L 1251.69 1819.19 L 1251.80 1803.97 L 1251.86 1788.75 L 1251.88 1773.53 L 1251.86 1758.31 L 1251.80 1743.11 L 1251.70 1727.93 L 1251.57 1712.78 L 1251.40 1697.67 L 1251.20 1682.61 L 1250.97 1667.60 L 1250.70 1652.66 L 1250.41 1637.79 L 1250.08 1622.99 L 1249.74 1608.29 L 1249.36 1593.68 L 1248.96 1579.18 L 1248.54 1564.78 L 1248.10 1550.51 L 1247.63 1536.36 L 1247.15 1522.35 L 1246.65 1508.48 L 1246.14 1494.76 L 1245.60 1481.20 L 1245.06 1467.81 L 1244.50 1454.59 L 1243.93 1441.55 L 1243.35 1428.70 L 1242.76 1416.04 L 1242.17 1403.59 L 1241.56 1391.35 L 1240.95 1379.32 L 1240.34 1367.52 L 1239.72 1355.95 L 1239.10 1344.62 L 1238.48 1333.53 L 1237.85 1322.69 L 1237.23 1312.10 L 1236.61 1301.78 L 1235.98 1291.71 L 1235.36 1281.92 L 1234.74 1272.40 L 1234.11 1263.15 L 1233.49 1254.17 L 1232.86 1245.46 L 1232.23 1237.03 L 1231.59 1228.86 Z" fill="url(#tg5)"/>
<path d="M 1048.41 1271.14 L 1051.00 1277.26 L 1053.64 1283.82 L 1056.31 1290.82 L 1059.02 1298.21 L 1061.76 1305.99 L 1064.52 1314.15 L 1067.30 1322.66 L 1070.10 1331.52 L 1072.92 1340.71 L 1075.75 1350.21 L 1078.59 1360.03 L 1081.44 1370.15 L 1084.30 1380.55 L 1087.16 1391.23 L 1090.03 1402.17 L 1092.90 1413.38 L 1095.77 1424.83 L 1098.64 1436.51 L 1101.50 1448.43 L 1104.36 1460.57 L 1107.22 1472.91 L 1110.07 1485.46 L 1112.90 1498.20 L 1115.73 1511.13 L 1118.55 1524.23 L 1121.35 1537.49 L 1124.13 1550.92 L 1126.90 1564.49 L 1129.65 1578.21 L 1132.39 1592.05 L 1135.10 1606.02 L 1137.79 1620.11 L 1140.45 1634.30 L 1143.09 1648.59 L 1145.71 1662.97 L 1148.29 1677.43 L 1150.85 1691.96 L 1153.37 1706.56 L 1155.87 1721.22 L 1158.33 1735.92 L 1160.75 1750.66 L 1163.14 1765.44 L 1165.49 1780.24 L 1167.81 1795.05 L 1170.08 1809.87 L 1172.31 1824.69 L 1174.50 1839.50 L 1176.64 1854.30 L 1178.74 1869.07 L 1180.79 1883.80 L 1182.79 1898.49 L 1184.74 1913.13 L 1186.64 1927.72 L 1188.49 1942.23 L 1190.28 1956.68 L 1192.02 1971.04 L 1247.98 1968.96 L 1248.59 1954.30 L 1249.14 1939.55 L 1249.64 1924.71 L 1250.08 1909.80 L 1250.48 1894.82 L 1250.82 1879.78 L 1251.11 1864.68 L 1251.35 1849.55 L 1251.54 1834.38 L 1251.69 1819.19 L 1251.80 1803.97 L 1251.86 1788.75 L 1251.88 1773.53 L 1251.86 1758.31 L 1251.80 1743.11 L 1251.70 1727.93 L 1251.57 1712.78 L 1251.40 1697.67 L 1251.20 1682.61 L 1250.97 1667.60 L 1250.70 1652.66 L 1250.41 1637.79 L 1250.08 1622.99 L 1249.74 1608.29 L 1249.36 1593.68 L 1248.96 1579.18 L 1248.54 1564.78 L 1248.10 1550.51 L 1247.63 1536.36 L 1247.15 1522.35 L 1246.65 1508.48 L 1246.14 1494.76 L 1245.60 1481.20 L 1245.06 1467.81 L 1244.50 1454.59 L 1243.93 1441.55 L 1243.35 1428.70 L 1242.76 1416.04 L 1242.17 1403.59 L 1241.56 1391.35 L 1240.95 1379.32 L 1240.34 1367.52 L 1239.72 1355.95 L 1239.10 1344.62 L 1238.48 1333.53 L 1237.85 1322.69 L 1237.23 1312.10 L 1236.61 1301.78 L 1235.98 1291.71 L 1235.36 1281.92 L 1234.74 1272.40 L 1234.11 1263.15 L 1233.49 1254.17 L 1232.86 1245.46 L 1232.23 1237.03 L 1231.59 1228.86 Z" fill="#2b173f" opacity="0.13"/>
<path d="M 1140.0,1250.0 L1141.6,1257.1 L1143.3,1264.6 L1144.9,1272.5 L1146.6,1280.7 L1148.2,1289.2 L1149.9,1298.0 L1151.6,1307.2 L1153.4,1316.6 L1155.1,1326.4 L1156.8,1336.5 L1158.5,1346.8 L1160.3,1357.4 L1162.0,1368.3 L1163.8,1379.4 L1165.5,1390.7 L1167.2,1402.4 L1169.0,1414.2 L1170.7,1426.3 L1172.4,1438.6 L1174.1,1451.1 L1175.9,1463.8 L1177.6,1476.6 L1179.3,1489.7 L1180.9,1502.9 L1182.6,1516.4 L1184.2,1529.9 L1185.9,1543.6 L1187.5,1557.5 L1189.1,1571.5 L1190.7,1585.6 L1192.2,1599.9 L1193.8,1614.2 L1195.3,1628.6 L1196.7,1643.2 L1198.2,1657.8 L1199.6,1672.5 L1201.0,1687.3 L1202.4,1702.1 L1203.7,1717.0 L1205.0,1731.9 L1206.3,1746.9 L1207.5,1761.9 L1208.7,1776.9 L1209.8,1791.9 L1210.9,1806.9 L1212.0,1821.9 L1213.0,1836.9 L1214.0,1851.9 L1214.9,1866.9 L1215.8,1881.8 L1216.6,1896.7 L1217.4,1911.5 L1218.1,1926.2 L1218.8,1940.9 L1219.4,1955.5 L1220.0,1970.0" fill="none" stroke="#fff" stroke-opacity="0.18" stroke-width="14" stroke-linecap="round"/>
<circle cx="1139.82" cy="1394.63" r="22.00" fill="#f6c7df"/>
<circle cx="1139.82" cy="1394.63" r="9.46" fill="#dc8eb5"/>
<circle cx="1146.82" cy="1429.67" r="20.44" fill="#f6c7df"/>
<circle cx="1146.82" cy="1429.67" r="8.79" fill="#dc8eb5"/>
<circle cx="1153.77" cy="1466.70" r="18.89" fill="#f6c7df"/>
<circle cx="1153.77" cy="1466.70" r="8.12" fill="#dc8eb5"/>
<circle cx="1160.64" cy="1505.49" r="17.33" fill="#f6c7df"/>
<circle cx="1160.64" cy="1505.49" r="7.45" fill="#dc8eb5"/>
<circle cx="1167.39" cy="1545.82" r="15.78" fill="#f6c7df"/>
<circle cx="1167.39" cy="1545.82" r="6.78" fill="#dc8eb5"/>
<circle cx="1173.99" cy="1587.46" r="14.22" fill="#f6c7df"/>
<circle cx="1173.99" cy="1587.46" r="6.12" fill="#dc8eb5"/>
<circle cx="1180.40" cy="1630.18" r="12.67" fill="#f6c7df"/>
<circle cx="1180.40" cy="1630.18" r="5.45" fill="#dc8eb5"/>
<circle cx="1186.58" cy="1673.76" r="11.11" fill="#f6c7df"/>
<circle cx="1186.58" cy="1673.76" r="4.78" fill="#dc8eb5"/>
<circle cx="1192.49" cy="1717.99" r="9.56" fill="#f6c7df"/>
<circle cx="1192.49" cy="1717.99" r="4.11" fill="#dc8eb5"/>
<circle cx="1198.09" cy="1762.63" r="8.00" fill="#f6c7df"/>
<circle cx="1198.09" cy="1762.63" r="3.44" fill="#dc8eb5"/>
</g>
<g id="tentacle_06">
<path d="M 1146.54 1291.36 L 1151.02 1296.44 L 1155.62 1301.94 L 1160.34 1307.86 L 1165.15 1314.17 L 1170.04 1320.85 L 1175.01 1327.91 L 1180.05 1335.31 L 1185.14 1343.06 L 1190.29 1351.13 L 1195.48 1359.51 L 1200.72 1368.21 L 1206.00 1377.19 L 1211.31 1386.47 L 1216.64 1396.01 L 1222.01 1405.83 L 1227.40 1415.90 L 1232.81 1426.22 L 1238.24 1436.79 L 1243.68 1447.58 L 1249.14 1458.61 L 1254.61 1469.84 L 1260.08 1481.29 L 1265.57 1492.94 L 1271.06 1504.79 L 1276.55 1516.83 L 1282.04 1529.04 L 1287.54 1541.43 L 1293.03 1553.99 L 1298.53 1566.71 L 1304.01 1579.58 L 1309.49 1592.60 L 1314.97 1605.75 L 1320.43 1619.05 L 1325.89 1632.47 L 1331.33 1646.01 L 1336.76 1659.66 L 1342.18 1673.43 L 1347.58 1687.29 L 1352.97 1701.26 L 1358.34 1715.31 L 1363.69 1729.44 L 1369.02 1743.65 L 1374.32 1757.93 L 1379.61 1772.28 L 1384.87 1786.69 L 1390.11 1801.14 L 1395.32 1815.65 L 1400.51 1830.19 L 1405.67 1844.77 L 1410.80 1859.38 L 1415.90 1874.01 L 1420.96 1888.65 L 1426.00 1903.31 L 1431.00 1917.97 L 1435.96 1932.63 L 1440.90 1947.28 L 1499.10 1932.72 L 1496.50 1917.36 L 1493.85 1901.97 L 1491.17 1886.57 L 1488.45 1871.16 L 1485.69 1855.76 L 1482.90 1840.35 L 1480.07 1824.95 L 1477.22 1809.57 L 1474.33 1794.21 L 1471.40 1778.88 L 1468.45 1763.58 L 1465.47 1748.31 L 1462.46 1733.09 L 1459.42 1717.91 L 1456.36 1702.79 L 1453.27 1687.73 L 1450.15 1672.73 L 1447.01 1657.80 L 1443.85 1642.94 L 1440.67 1628.17 L 1437.46 1613.48 L 1434.23 1598.89 L 1430.98 1584.39 L 1427.72 1569.99 L 1424.43 1555.70 L 1421.13 1541.52 L 1417.80 1527.45 L 1414.47 1513.51 L 1411.11 1499.70 L 1407.74 1486.01 L 1404.36 1472.46 L 1400.96 1459.06 L 1397.54 1445.80 L 1394.11 1432.68 L 1390.67 1419.73 L 1387.21 1406.93 L 1383.74 1394.29 L 1380.26 1381.82 L 1376.76 1369.52 L 1373.24 1357.39 L 1369.71 1345.44 L 1366.17 1333.67 L 1362.61 1322.09 L 1359.03 1310.69 L 1355.42 1299.47 L 1351.80 1288.45 L 1348.15 1277.61 L 1344.48 1266.97 L 1340.77 1256.52 L 1337.03 1246.27 L 1333.25 1236.20 L 1329.42 1226.32 L 1325.54 1216.63 L 1321.59 1207.12 L 1317.57 1197.79 L 1313.46 1188.64 Z" fill="url(#tg6)"/>
<path d="M 1146.54 1291.36 L 1151.02 1296.44 L 1155.62 1301.94 L 1160.34 1307.86 L 1165.15 1314.17 L 1170.04 1320.85 L 1175.01 1327.91 L 1180.05 1335.31 L 1185.14 1343.06 L 1190.29 1351.13 L 1195.48 1359.51 L 1200.72 1368.21 L 1206.00 1377.19 L 1211.31 1386.47 L 1216.64 1396.01 L 1222.01 1405.83 L 1227.40 1415.90 L 1232.81 1426.22 L 1238.24 1436.79 L 1243.68 1447.58 L 1249.14 1458.61 L 1254.61 1469.84 L 1260.08 1481.29 L 1265.57 1492.94 L 1271.06 1504.79 L 1276.55 1516.83 L 1282.04 1529.04 L 1287.54 1541.43 L 1293.03 1553.99 L 1298.53 1566.71 L 1304.01 1579.58 L 1309.49 1592.60 L 1314.97 1605.75 L 1320.43 1619.05 L 1325.89 1632.47 L 1331.33 1646.01 L 1336.76 1659.66 L 1342.18 1673.43 L 1347.58 1687.29 L 1352.97 1701.26 L 1358.34 1715.31 L 1363.69 1729.44 L 1369.02 1743.65 L 1374.32 1757.93 L 1379.61 1772.28 L 1384.87 1786.69 L 1390.11 1801.14 L 1395.32 1815.65 L 1400.51 1830.19 L 1405.67 1844.77 L 1410.80 1859.38 L 1415.90 1874.01 L 1420.96 1888.65 L 1426.00 1903.31 L 1431.00 1917.97 L 1435.96 1932.63 L 1440.90 1947.28 L 1499.10 1932.72 L 1496.50 1917.36 L 1493.85 1901.97 L 1491.17 1886.57 L 1488.45 1871.16 L 1485.69 1855.76 L 1482.90 1840.35 L 1480.07 1824.95 L 1477.22 1809.57 L 1474.33 1794.21 L 1471.40 1778.88 L 1468.45 1763.58 L 1465.47 1748.31 L 1462.46 1733.09 L 1459.42 1717.91 L 1456.36 1702.79 L 1453.27 1687.73 L 1450.15 1672.73 L 1447.01 1657.80 L 1443.85 1642.94 L 1440.67 1628.17 L 1437.46 1613.48 L 1434.23 1598.89 L 1430.98 1584.39 L 1427.72 1569.99 L 1424.43 1555.70 L 1421.13 1541.52 L 1417.80 1527.45 L 1414.47 1513.51 L 1411.11 1499.70 L 1407.74 1486.01 L 1404.36 1472.46 L 1400.96 1459.06 L 1397.54 1445.80 L 1394.11 1432.68 L 1390.67 1419.73 L 1387.21 1406.93 L 1383.74 1394.29 L 1380.26 1381.82 L 1376.76 1369.52 L 1373.24 1357.39 L 1369.71 1345.44 L 1366.17 1333.67 L 1362.61 1322.09 L 1359.03 1310.69 L 1355.42 1299.47 L 1351.80 1288.45 L 1348.15 1277.61 L 1344.48 1266.97 L 1340.77 1256.52 L 1337.03 1246.27 L 1333.25 1236.20 L 1329.42 1226.32 L 1325.54 1216.63 L 1321.59 1207.12 L 1317.57 1197.79 L 1313.46 1188.64 Z" fill="#2b173f" opacity="0.13"/>
<path d="M 1230.0,1240.0 L1234.3,1247.1 L1238.6,1254.5 L1242.9,1262.2 L1247.3,1270.2 L1251.6,1278.5 L1256.0,1287.1 L1260.4,1295.9 L1264.8,1305.0 L1269.2,1314.4 L1273.6,1324.0 L1278.1,1333.8 L1282.5,1343.9 L1287.0,1354.3 L1291.4,1364.8 L1295.9,1375.6 L1300.3,1386.6 L1304.8,1397.9 L1309.2,1409.3 L1313.7,1420.9 L1318.2,1432.8 L1322.6,1444.8 L1327.1,1457.0 L1331.6,1469.4 L1336.0,1481.9 L1340.5,1494.6 L1344.9,1507.5 L1349.3,1520.6 L1353.8,1533.8 L1358.2,1547.1 L1362.6,1560.5 L1367.0,1574.1 L1371.3,1587.9 L1375.7,1601.7 L1380.1,1615.7 L1384.4,1629.7 L1388.7,1643.9 L1393.0,1658.2 L1397.3,1672.5 L1401.6,1687.0 L1405.8,1701.5 L1410.0,1716.1 L1414.2,1730.8 L1418.4,1745.5 L1422.5,1760.3 L1426.7,1775.1 L1430.8,1790.0 L1434.8,1804.9 L1438.9,1819.9 L1442.9,1834.9 L1446.8,1849.9 L1450.8,1864.9 L1454.7,1879.9 L1458.6,1894.9 L1462.4,1910.0 L1466.2,1925.0 L1470.0,1940.0" fill="none" stroke="#fff" stroke-opacity="0.18" stroke-width="14" stroke-linecap="round"/>
<circle cx="1271.83" cy="1385.46" r="22.00" fill="#f6c7df"/>
<circle cx="1271.83" cy="1385.46" r="9.46" fill="#dc8eb5"/>
<circle cx="1286.75" cy="1418.01" r="20.44" fill="#f6c7df"/>
<circle cx="1286.75" cy="1418.01" r="8.79" fill="#dc8eb5"/>
<circle cx="1301.72" cy="1452.49" r="18.89" fill="#f6c7df"/>
<circle cx="1301.72" cy="1452.49" r="8.12" fill="#dc8eb5"/>
<circle cx="1316.71" cy="1488.72" r="17.33" fill="#f6c7df"/>
<circle cx="1316.71" cy="1488.72" r="7.45" fill="#dc8eb5"/>
<circle cx="1331.69" cy="1526.52" r="15.78" fill="#f6c7df"/>
<circle cx="1331.69" cy="1526.52" r="6.78" fill="#dc8eb5"/>
<circle cx="1346.61" cy="1565.73" r="14.22" fill="#f6c7df"/>
<circle cx="1346.61" cy="1565.73" r="6.12" fill="#dc8eb5"/>
<circle cx="1361.45" cy="1606.19" r="12.67" fill="#f6c7df"/>
<circle cx="1361.45" cy="1606.19" r="5.45" fill="#dc8eb5"/>
<circle cx="1376.17" cy="1647.72" r="11.11" fill="#f6c7df"/>
<circle cx="1376.17" cy="1647.72" r="4.78" fill="#dc8eb5"/>
<circle cx="1390.74" cy="1690.17" r="9.56" fill="#f6c7df"/>
<circle cx="1390.74" cy="1690.17" r="4.11" fill="#dc8eb5"/>
<circle cx="1405.14" cy="1733.37" r="8.00" fill="#f6c7df"/>
<circle cx="1405.14" cy="1733.37" r="3.44" fill="#dc8eb5"/>
</g>
<g id="tentacle_07">
<path d="M 1281.89 1288.59 L 1288.83 1293.04 L 1295.87 1297.86 L 1303.00 1303.03 L 1310.20 1308.56 L 1317.46 1314.44 L 1324.77 1320.66 L 1332.12 1327.22 L 1339.49 1334.11 L 1346.88 1341.32 L 1354.27 1348.86 L 1361.67 1356.70 L 1369.06 1364.85 L 1376.43 1373.29 L 1383.78 1382.03 L 1391.09 1391.04 L 1398.37 1400.34 L 1405.61 1409.90 L 1412.80 1419.72 L 1419.93 1429.80 L 1427.00 1440.12 L 1434.01 1450.68 L 1440.94 1461.48 L 1447.80 1472.51 L 1454.59 1483.75 L 1461.28 1495.21 L 1467.89 1506.87 L 1474.41 1518.74 L 1480.83 1530.80 L 1487.15 1543.04 L 1493.37 1555.47 L 1499.48 1568.07 L 1505.48 1580.83 L 1511.37 1593.76 L 1517.14 1606.85 L 1522.78 1620.08 L 1528.31 1633.46 L 1533.70 1646.98 L 1538.97 1660.63 L 1544.10 1674.40 L 1549.09 1688.29 L 1553.95 1702.30 L 1558.66 1716.41 L 1563.23 1730.63 L 1567.65 1744.94 L 1571.92 1759.34 L 1576.03 1773.83 L 1579.99 1788.40 L 1583.78 1803.04 L 1587.42 1817.75 L 1590.89 1832.53 L 1594.19 1847.36 L 1597.32 1862.24 L 1600.28 1877.18 L 1603.06 1892.15 L 1605.66 1907.16 L 1608.08 1922.20 L 1671.92 1917.80 L 1672.01 1901.77 L 1671.90 1885.72 L 1671.60 1869.66 L 1671.10 1853.59 L 1670.41 1837.51 L 1669.54 1821.44 L 1668.48 1805.37 L 1667.24 1789.32 L 1665.81 1773.29 L 1664.21 1757.28 L 1662.42 1741.30 L 1660.46 1725.35 L 1658.33 1709.45 L 1656.02 1693.59 L 1653.55 1677.78 L 1650.91 1662.03 L 1648.10 1646.34 L 1645.12 1630.72 L 1641.98 1615.16 L 1638.68 1599.69 L 1635.22 1584.29 L 1631.61 1568.98 L 1627.83 1553.76 L 1623.90 1538.64 L 1619.82 1523.62 L 1615.59 1508.70 L 1611.20 1493.90 L 1606.67 1479.20 L 1601.98 1464.63 L 1597.15 1450.18 L 1592.17 1435.86 L 1587.05 1421.67 L 1581.78 1407.62 L 1576.36 1393.71 L 1570.80 1379.94 L 1565.09 1366.32 L 1559.24 1352.86 L 1553.24 1339.55 L 1547.10 1326.41 L 1540.81 1313.42 L 1534.37 1300.61 L 1527.78 1287.97 L 1521.05 1275.51 L 1514.15 1263.23 L 1507.11 1251.13 L 1499.90 1239.22 L 1492.53 1227.50 L 1485.00 1215.98 L 1477.30 1204.65 L 1469.42 1193.54 L 1461.36 1182.63 L 1453.11 1171.93 L 1444.67 1161.46 L 1436.03 1151.21 L 1427.18 1141.19 L 1418.11 1131.41 Z" fill="url(#tg7)"/>
<path d="M 1281.89 1288.59 L 1288.83 1293.04 L 1295.87 1297.86 L 1303.00 1303.03 L 1310.20 1308.56 L 1317.46 1314.44 L 1324.77 1320.66 L 1332.12 1327.22 L 1339.49 1334.11 L 1346.88 1341.32 L 1354.27 1348.86 L 1361.67 1356.70 L 1369.06 1364.85 L 1376.43 1373.29 L 1383.78 1382.03 L 1391.09 1391.04 L 1398.37 1400.34 L 1405.61 1409.90 L 1412.80 1419.72 L 1419.93 1429.80 L 1427.00 1440.12 L 1434.01 1450.68 L 1440.94 1461.48 L 1447.80 1472.51 L 1454.59 1483.75 L 1461.28 1495.21 L 1467.89 1506.87 L 1474.41 1518.74 L 1480.83 1530.80 L 1487.15 1543.04 L 1493.37 1555.47 L 1499.48 1568.07 L 1505.48 1580.83 L 1511.37 1593.76 L 1517.14 1606.85 L 1522.78 1620.08 L 1528.31 1633.46 L 1533.70 1646.98 L 1538.97 1660.63 L 1544.10 1674.40 L 1549.09 1688.29 L 1553.95 1702.30 L 1558.66 1716.41 L 1563.23 1730.63 L 1567.65 1744.94 L 1571.92 1759.34 L 1576.03 1773.83 L 1579.99 1788.40 L 1583.78 1803.04 L 1587.42 1817.75 L 1590.89 1832.53 L 1594.19 1847.36 L 1597.32 1862.24 L 1600.28 1877.18 L 1603.06 1892.15 L 1605.66 1907.16 L 1608.08 1922.20 L 1671.92 1917.80 L 1672.01 1901.77 L 1671.90 1885.72 L 1671.60 1869.66 L 1671.10 1853.59 L 1670.41 1837.51 L 1669.54 1821.44 L 1668.48 1805.37 L 1667.24 1789.32 L 1665.81 1773.29 L 1664.21 1757.28 L 1662.42 1741.30 L 1660.46 1725.35 L 1658.33 1709.45 L 1656.02 1693.59 L 1653.55 1677.78 L 1650.91 1662.03 L 1648.10 1646.34 L 1645.12 1630.72 L 1641.98 1615.16 L 1638.68 1599.69 L 1635.22 1584.29 L 1631.61 1568.98 L 1627.83 1553.76 L 1623.90 1538.64 L 1619.82 1523.62 L 1615.59 1508.70 L 1611.20 1493.90 L 1606.67 1479.20 L 1601.98 1464.63 L 1597.15 1450.18 L 1592.17 1435.86 L 1587.05 1421.67 L 1581.78 1407.62 L 1576.36 1393.71 L 1570.80 1379.94 L 1565.09 1366.32 L 1559.24 1352.86 L 1553.24 1339.55 L 1547.10 1326.41 L 1540.81 1313.42 L 1534.37 1300.61 L 1527.78 1287.97 L 1521.05 1275.51 L 1514.15 1263.23 L 1507.11 1251.13 L 1499.90 1239.22 L 1492.53 1227.50 L 1485.00 1215.98 L 1477.30 1204.65 L 1469.42 1193.54 L 1461.36 1182.63 L 1453.11 1171.93 L 1444.67 1161.46 L 1436.03 1151.21 L 1427.18 1141.19 L 1418.11 1131.41 Z" fill="#2b173f" opacity="0.13"/>
<path d="M 1350.0,1210.0 L1358.0,1217.1 L1366.0,1224.5 L1373.8,1232.2 L1381.7,1240.2 L1389.4,1248.5 L1397.1,1257.1 L1404.7,1265.9 L1412.2,1275.0 L1419.7,1284.4 L1427.1,1294.0 L1434.4,1303.9 L1441.6,1314.0 L1448.7,1324.4 L1455.8,1335.0 L1462.7,1345.8 L1469.6,1356.9 L1476.4,1368.2 L1483.0,1379.6 L1489.6,1391.3 L1496.0,1403.2 L1502.4,1415.3 L1508.7,1427.6 L1514.8,1440.1 L1520.8,1452.7 L1526.7,1465.5 L1532.5,1478.5 L1538.2,1491.7 L1543.8,1505.0 L1549.2,1518.5 L1554.5,1532.1 L1559.7,1545.8 L1564.7,1559.7 L1569.6,1573.8 L1574.4,1587.9 L1579.0,1602.2 L1583.5,1616.6 L1587.8,1631.1 L1592.0,1645.7 L1596.1,1660.4 L1600.0,1675.2 L1603.7,1690.0 L1607.3,1705.0 L1610.8,1720.0 L1614.1,1735.1 L1617.2,1750.3 L1620.1,1765.6 L1622.9,1780.8 L1625.5,1796.2 L1627.9,1811.6 L1630.2,1827.0 L1632.3,1842.4 L1634.2,1857.9 L1635.9,1873.4 L1637.5,1888.9 L1638.8,1904.5 L1640.0,1920.0" fill="none" stroke="#fff" stroke-opacity="0.18" stroke-width="14" stroke-linecap="round"/>
<circle cx="1440.78" cy="1359.68" r="22.00" fill="#f6c7df"/>
<circle cx="1440.78" cy="1359.68" r="9.46" fill="#dc8eb5"/>
<circle cx="1462.07" cy="1391.59" r="20.44" fill="#f6c7df"/>
<circle cx="1462.07" cy="1391.59" r="8.79" fill="#dc8eb5"/>
<circle cx="1482.60" cy="1425.55" r="18.89" fill="#f6c7df"/>
<circle cx="1482.60" cy="1425.55" r="8.12" fill="#dc8eb5"/>
<circle cx="1502.30" cy="1461.39" r="17.33" fill="#f6c7df"/>
<circle cx="1502.30" cy="1461.39" r="7.45" fill="#dc8eb5"/>
<circle cx="1521.06" cy="1498.95" r="15.78" fill="#f6c7df"/>
<circle cx="1521.06" cy="1498.95" r="6.78" fill="#dc8eb5"/>
<circle cx="1538.81" cy="1538.08" r="14.22" fill="#f6c7df"/>
<circle cx="1538.81" cy="1538.08" r="6.12" fill="#dc8eb5"/>
<circle cx="1555.46" cy="1578.62" r="12.67" fill="#f6c7df"/>
<circle cx="1555.46" cy="1578.62" r="5.45" fill="#dc8eb5"/>
<circle cx="1570.96" cy="1620.41" r="11.11" fill="#f6c7df"/>
<circle cx="1570.96" cy="1620.41" r="4.78" fill="#dc8eb5"/>
<circle cx="1585.21" cy="1663.31" r="9.56" fill="#f6c7df"/>
<circle cx="1585.21" cy="1663.31" r="4.11" fill="#dc8eb5"/>
<circle cx="1598.15" cy="1707.15" r="8.00" fill="#f6c7df"/>
<circle cx="1598.15" cy="1707.15" r="3.44" fill="#dc8eb5"/>
</g>
<g id="tentacle_08">
<path d="M 1417.33 1256.57 L 1427.06 1260.50 L 1436.79 1264.76 L 1446.52 1269.35 L 1456.24 1274.28 L 1465.95 1279.55 L 1475.64 1285.14 L 1485.30 1291.07 L 1494.93 1297.33 L 1504.53 1303.92 L 1514.09 1310.83 L 1523.59 1318.07 L 1533.05 1325.62 L 1542.44 1333.49 L 1551.76 1341.67 L 1561.02 1350.16 L 1570.20 1358.94 L 1579.29 1368.03 L 1588.29 1377.40 L 1597.20 1387.05 L 1606.01 1396.99 L 1614.72 1407.19 L 1623.31 1417.66 L 1631.80 1428.39 L 1640.16 1439.38 L 1648.41 1450.60 L 1656.52 1462.07 L 1664.51 1473.77 L 1672.36 1485.70 L 1680.07 1497.84 L 1687.65 1510.20 L 1695.08 1522.76 L 1702.36 1535.52 L 1709.49 1548.47 L 1716.46 1561.60 L 1723.28 1574.91 L 1729.94 1588.39 L 1736.44 1602.04 L 1742.77 1615.84 L 1748.94 1629.79 L 1754.94 1643.89 L 1760.76 1658.12 L 1766.41 1672.47 L 1771.89 1686.96 L 1777.19 1701.55 L 1782.30 1716.26 L 1787.24 1731.07 L 1791.99 1745.98 L 1796.55 1760.97 L 1800.93 1776.05 L 1805.12 1791.20 L 1809.12 1806.43 L 1812.92 1821.72 L 1816.53 1837.06 L 1819.94 1852.46 L 1823.15 1867.90 L 1826.17 1883.38 L 1893.83 1876.62 L 1893.42 1859.96 L 1892.79 1843.27 L 1891.94 1826.56 L 1890.88 1809.84 L 1889.59 1793.11 L 1888.09 1776.38 L 1886.37 1759.65 L 1884.44 1742.94 L 1882.28 1726.23 L 1879.91 1709.55 L 1877.33 1692.90 L 1874.53 1676.27 L 1871.51 1659.69 L 1868.28 1643.15 L 1864.82 1626.66 L 1861.16 1610.23 L 1857.27 1593.85 L 1853.17 1577.54 L 1848.86 1561.31 L 1844.32 1545.15 L 1839.57 1529.07 L 1834.60 1513.08 L 1829.41 1497.19 L 1824.00 1481.39 L 1818.37 1465.70 L 1812.52 1450.12 L 1806.44 1434.65 L 1800.14 1419.30 L 1793.61 1404.08 L 1786.86 1388.99 L 1779.88 1374.04 L 1772.66 1359.22 L 1765.22 1344.56 L 1757.54 1330.05 L 1749.62 1315.70 L 1741.46 1301.51 L 1733.06 1287.50 L 1724.41 1273.66 L 1715.51 1260.00 L 1706.36 1246.54 L 1696.96 1233.27 L 1687.30 1220.20 L 1677.37 1207.35 L 1667.18 1194.71 L 1656.72 1182.30 L 1645.98 1170.13 L 1634.96 1158.20 L 1623.67 1146.52 L 1612.08 1135.10 L 1600.21 1123.95 L 1588.04 1113.09 L 1575.57 1102.52 L 1562.80 1092.26 L 1549.73 1082.32 L 1536.36 1072.70 L 1522.67 1063.43 Z" fill="url(#tg8)"/>
<path d="M 1417.33 1256.57 L 1427.06 1260.50 L 1436.79 1264.76 L 1446.52 1269.35 L 1456.24 1274.28 L 1465.95 1279.55 L 1475.64 1285.14 L 1485.30 1291.07 L 1494.93 1297.33 L 1504.53 1303.92 L 1514.09 1310.83 L 1523.59 1318.07 L 1533.05 1325.62 L 1542.44 1333.49 L 1551.76 1341.67 L 1561.02 1350.16 L 1570.20 1358.94 L 1579.29 1368.03 L 1588.29 1377.40 L 1597.20 1387.05 L 1606.01 1396.99 L 1614.72 1407.19 L 1623.31 1417.66 L 1631.80 1428.39 L 1640.16 1439.38 L 1648.41 1450.60 L 1656.52 1462.07 L 1664.51 1473.77 L 1672.36 1485.70 L 1680.07 1497.84 L 1687.65 1510.20 L 1695.08 1522.76 L 1702.36 1535.52 L 1709.49 1548.47 L 1716.46 1561.60 L 1723.28 1574.91 L 1729.94 1588.39 L 1736.44 1602.04 L 1742.77 1615.84 L 1748.94 1629.79 L 1754.94 1643.89 L 1760.76 1658.12 L 1766.41 1672.47 L 1771.89 1686.96 L 1777.19 1701.55 L 1782.30 1716.26 L 1787.24 1731.07 L 1791.99 1745.98 L 1796.55 1760.97 L 1800.93 1776.05 L 1805.12 1791.20 L 1809.12 1806.43 L 1812.92 1821.72 L 1816.53 1837.06 L 1819.94 1852.46 L 1823.15 1867.90 L 1826.17 1883.38 L 1893.83 1876.62 L 1893.42 1859.96 L 1892.79 1843.27 L 1891.94 1826.56 L 1890.88 1809.84 L 1889.59 1793.11 L 1888.09 1776.38 L 1886.37 1759.65 L 1884.44 1742.94 L 1882.28 1726.23 L 1879.91 1709.55 L 1877.33 1692.90 L 1874.53 1676.27 L 1871.51 1659.69 L 1868.28 1643.15 L 1864.82 1626.66 L 1861.16 1610.23 L 1857.27 1593.85 L 1853.17 1577.54 L 1848.86 1561.31 L 1844.32 1545.15 L 1839.57 1529.07 L 1834.60 1513.08 L 1829.41 1497.19 L 1824.00 1481.39 L 1818.37 1465.70 L 1812.52 1450.12 L 1806.44 1434.65 L 1800.14 1419.30 L 1793.61 1404.08 L 1786.86 1388.99 L 1779.88 1374.04 L 1772.66 1359.22 L 1765.22 1344.56 L 1757.54 1330.05 L 1749.62 1315.70 L 1741.46 1301.51 L 1733.06 1287.50 L 1724.41 1273.66 L 1715.51 1260.00 L 1706.36 1246.54 L 1696.96 1233.27 L 1687.30 1220.20 L 1677.37 1207.35 L 1667.18 1194.71 L 1656.72 1182.30 L 1645.98 1170.13 L 1634.96 1158.20 L 1623.67 1146.52 L 1612.08 1135.10 L 1600.21 1123.95 L 1588.04 1113.09 L 1575.57 1102.52 L 1562.80 1092.26 L 1549.73 1082.32 L 1536.36 1072.70 L 1522.67 1063.43 Z" fill="#2b173f" opacity="0.13"/>
<path d="M 1470.0,1160.0 L1481.7,1166.6 L1493.3,1173.5 L1504.7,1180.8 L1515.9,1188.4 L1527.0,1196.3 L1537.9,1204.5 L1548.7,1213.1 L1559.3,1221.9 L1569.7,1231.1 L1580.0,1240.5 L1590.2,1250.2 L1600.1,1260.2 L1609.9,1270.4 L1619.5,1280.9 L1629.0,1291.7 L1638.3,1302.7 L1647.4,1314.0 L1656.4,1325.5 L1665.1,1337.3 L1673.7,1349.2 L1682.2,1361.4 L1690.4,1373.9 L1698.5,1386.5 L1706.4,1399.3 L1714.1,1412.3 L1721.7,1425.5 L1729.1,1438.9 L1736.2,1452.5 L1743.3,1466.2 L1750.1,1480.2 L1756.7,1494.2 L1763.2,1508.5 L1769.4,1522.8 L1775.5,1537.3 L1781.4,1552.0 L1787.1,1566.8 L1792.6,1581.7 L1798.0,1596.7 L1803.1,1611.8 L1808.0,1627.1 L1812.8,1642.4 L1817.3,1657.8 L1821.7,1673.3 L1825.9,1688.9 L1829.8,1704.6 L1833.6,1720.3 L1837.1,1736.1 L1840.5,1752.0 L1843.7,1767.9 L1846.6,1783.8 L1849.4,1799.8 L1851.9,1815.8 L1854.2,1831.8 L1856.4,1847.9 L1858.3,1863.9 L1860.0,1880.0" fill="none" stroke="#fff" stroke-opacity="0.18" stroke-width="14" stroke-linecap="round"/>
<circle cx="1609.31" cy="1308.64" r="22.00" fill="#f6c7df"/>
<circle cx="1609.31" cy="1308.64" r="9.46" fill="#dc8eb5"/>
<circle cx="1637.16" cy="1340.15" r="20.44" fill="#f6c7df"/>
<circle cx="1637.16" cy="1340.15" r="8.79" fill="#dc8eb5"/>
<circle cx="1663.72" cy="1373.96" r="18.89" fill="#f6c7df"/>
<circle cx="1663.72" cy="1373.96" r="8.12" fill="#dc8eb5"/>
<circle cx="1688.91" cy="1409.89" r="17.33" fill="#f6c7df"/>
<circle cx="1688.91" cy="1409.89" r="7.45" fill="#dc8eb5"/>
<circle cx="1712.68" cy="1447.77" r="15.78" fill="#f6c7df"/>
<circle cx="1712.68" cy="1447.77" r="6.78" fill="#dc8eb5"/>
<circle cx="1734.96" cy="1487.43" r="14.22" fill="#f6c7df"/>
<circle cx="1734.96" cy="1487.43" r="6.12" fill="#dc8eb5"/>
<circle cx="1755.70" cy="1528.70" r="12.67" fill="#f6c7df"/>
<circle cx="1755.70" cy="1528.70" r="5.45" fill="#dc8eb5"/>
<circle cx="1774.87" cy="1571.41" r="11.11" fill="#f6c7df"/>
<circle cx="1774.87" cy="1571.41" r="4.78" fill="#dc8eb5"/>
<circle cx="1792.40" cy="1615.37" r="9.56" fill="#f6c7df"/>
<circle cx="1792.40" cy="1615.37" r="4.11" fill="#dc8eb5"/>
<circle cx="1808.27" cy="1660.42" r="8.00" fill="#f6c7df"/>
<circle cx="1808.27" cy="1660.42" r="3.44" fill="#dc8eb5"/>
</g>
<g id="body">
<ellipse cx="1024" cy="760" rx="520" ry="470" fill="url(#bodyGrad)"/>
<ellipse cx="960" cy="620" rx="280" ry="190" fill="url(#bodyHi)"/>
<ellipse cx="1120" cy="860" rx="450" ry="360" fill="url(#bodyLow)"/>
</g>
<g id="eyes">
<ellipse cx="860" cy="770" rx="145" ry="155" fill="#f7fbff"/>
<ellipse cx="1190" cy="770" rx="145" ry="155" fill="#f7fbff"/>
<ellipse cx="860" cy="800" rx="78" ry="82" fill="#2e3040"/>
<ellipse cx="1190" cy="800" rx="78" ry="82" fill="#2e3040"/>
<circle cx="835" cy="765" r="22" fill="#fff"/>
<circle cx="1165" cy="765" r="22" fill="#fff"/>
<path d="M 715 655 C 790 610 920 610 1005 650" fill="none" stroke="#5e2f82" stroke-width="26" stroke-linecap="round" opacity="0.45"/>
<path d="M 1045 650 C 1135 610 1265 610 1335 655" fill="none" stroke="#5e2f82" stroke-width="26" stroke-linecap="round" opacity="0.45"/>
</g>
<g id="mouth">
<path d="M 875 1030 C 955 1120 1090 1120 1175 1030" fill="none" stroke="#5d2b78" stroke-width="30" stroke-linecap="round"/>
<path d="M 930 1055 C 980 1098 1065 1098 1120 1055" fill="none" stroke="#e16e92" stroke-width="18" stroke-linecap="round" opacity="0.75"/>
</g>
</g>
</svg>
