<svg xmlns="http://www.w3.org/2000/svg" viewBox="0 0 1266 1238" width="1266" height="1238" preserveAspectRatio="xMidYMid meet">
<rect width="1266" height="1238" fill="#FEFEFE"/>
<g id="character_from_reference" data-source="reference_png">
<path id="shape_0001" fill="#AB6EDB" d="M 493 235 L 464 257 L 440 281 L 418 310 L 409 325 L 393 360 L 385 388 L 381 413 L 381 428 L 380 429 L 381 453 L 384 473 L 392 501 L 405 530 L 416 548 L 434 571 L 451 588 L 470 603 L 489 615 L 538 637 L 559 641 L 594 645 L 678 646 L 679 645 L 709 644 L 743 640 L 752 638 L 773 630 L 801 617 L 823 603 L 840 589 L 853 576 L 877 544 L 893 511 L 900 489 L 904 469 L 906 451 L 906 422 L 903 398 L 897 373 L 889 351 L 878 328 L 858 297 L 844 280 L 824 260 L 803 243 L 785 231 L 752 214 L 714 201 L 691 196 L 668 193 L 650 193 L 649 192 L 619 193 L 576 200 L 533 214 L 508 226 Z"/>
<path id="shape_0002" fill="#7643A7" d="M 284 885 L 297 892 L 306 883 L 319 879 L 328 879 L 343 885 L 385 869 L 408 856 L 422 845 L 435 832 L 456 804 L 474 770 L 488 734 L 494 724 L 499 719 L 507 715 L 518 713 L 530 714 L 536 716 L 545 722 L 554 733 L 557 746 L 556 761 L 551 783 L 539 815 L 523 846 L 506 871 L 497 882 L 476 903 L 459 916 L 437 928 L 410 937 L 357 944 L 343 948 L 331 954 L 321 964 L 317 972 L 316 982 L 319 990 L 324 995 L 329 997 L 325 988 L 326 978 L 329 973 L 333 969 L 342 964 L 353 961 L 360 961 L 364 956 L 373 951 L 382 949 L 397 950 L 405 954 L 409 961 L 411 961 L 417 958 L 420 958 L 419 954 L 423 946 L 436 937 L 446 934 L 459 934 L 462 935 L 467 940 L 469 940 L 473 937 L 472 931 L 474 925 L 485 913 L 497 907 L 504 907 L 509 910 L 509 916 L 503 945 L 504 963 L 509 982 L 521 1002 L 535 1015 L 554 1025 L 573 1029 L 590 1029 L 605 1026 L 619 1020 L 631 1009 L 636 999 L 637 988 L 634 980 L 628 974 L 617 973 L 613 977 L 610 987 L 608 989 L 604 989 L 598 983 L 597 968 L 605 954 L 627 931 L 637 915 L 643 900 L 645 899 L 647 902 L 648 909 L 655 930 L 670 962 L 692 993 L 714 1014 L 737 1030 L 757 1040 L 777 1047 L 810 1053 L 834 1053 L 850 1051 L 866 1047 L 884 1039 L 898 1029 L 907 1019 L 915 1004 L 917 995 L 916 977 L 912 968 L 906 961 L 897 956 L 892 955 L 882 956 L 877 959 L 868 976 L 865 979 L 860 981 L 845 980 L 827 971 L 813 956 L 800 932 L 791 906 L 783 872 L 784 868 L 801 885 L 804 881 L 813 877 L 821 877 L 831 881 L 838 886 L 844 893 L 847 899 L 848 906 L 850 908 L 862 902 L 877 903 L 889 908 L 898 917 L 899 926 L 902 928 L 905 927 L 905 921 L 910 915 L 924 910 L 943 910 L 949 912 L 956 917 L 958 920 L 958 926 L 965 923 L 964 919 L 965 913 L 967 909 L 975 902 L 987 897 L 1001 896 L 1009 899 L 1015 905 L 1020 901 L 1019 887 L 1027 876 L 1037 870 L 1044 868 L 1051 868 L 1059 872 L 1061 870 L 1061 867 L 1058 861 L 1059 848 L 1064 839 L 1068 835 L 1078 830 L 1085 830 L 1085 827 L 1087 824 L 1085 819 L 1085 811 L 1090 801 L 1096 795 L 1104 791 L 1122 788 L 1136 789 L 1149 795 L 1159 805 L 1164 818 L 1164 825 L 1162 832 L 1154 841 L 1164 836 L 1170 830 L 1174 821 L 1174 810 L 1166 794 L 1160 788 L 1146 780 L 1129 776 L 1113 776 L 1103 778 L 1090 785 L 1084 791 L 1077 801 L 1065 824 L 1054 839 L 1033 859 L 1015 871 L 989 882 L 965 887 L 936 888 L 912 885 L 892 880 L 873 873 L 854 863 L 834 848 L 817 831 L 802 813 L 786 790 L 777 772 L 770 755 L 767 743 L 768 733 L 772 724 L 781 715 L 794 709 L 817 708 L 830 711 L 823 692 L 787 700 L 736 706 L 687 708 L 686 709 L 624 709 L 623 708 L 576 706 L 534 701 L 492 693 L 453 682 L 449 695 L 465 700 L 474 708 L 477 716 L 477 725 L 475 735 L 469 752 L 458 773 L 444 792 L 416 820 L 393 837 L 375 845 L 358 849 L 349 850 L 320 849 L 311 863 L 299 875 L 285 883 Z"/>
<path id="shape_0003" fill="#7643A7" d="M 574 738 L 585 728 L 600 722 L 662 722 L 663 721 L 696 720 L 717 723 L 732 730 L 746 745 L 755 763 L 765 801 L 776 868 L 783 901 L 793 930 L 808 958 L 815 967 L 826 977 L 837 983 L 848 986 L 859 986 L 869 982 L 873 978 L 878 965 L 884 960 L 898 961 L 904 966 L 907 971 L 907 986 L 904 996 L 899 1004 L 890 1013 L 884 1017 L 865 1025 L 841 1030 L 805 1031 L 778 1027 L 758 1021 L 739 1012 L 724 1002 L 693 971 L 675 944 L 665 924 L 657 903 L 650 873 L 646 871 L 646 851 L 644 852 L 644 859 L 643 860 L 641 859 L 642 838 L 645 829 L 645 816 L 644 816 L 638 844 L 631 866 L 622 884 L 612 900 L 585 932 L 579 944 L 576 955 L 576 973 L 577 978 L 582 988 L 587 993 L 593 996 L 602 997 L 612 994 L 620 987 L 622 989 L 622 993 L 619 1000 L 609 1011 L 597 1017 L 587 1019 L 574 1019 L 563 1017 L 552 1013 L 539 1005 L 527 993 L 516 975 L 509 958 L 509 937 L 512 923 L 519 902 L 546 837 L 559 770 L 564 755 Z"/>
<path id="shape_0004" fill="#AB6EDB" d="M 574 740 L 566 754 L 561 769 L 549 832 L 541 855 L 517 912 L 512 929 L 510 942 L 510 954 L 515 969 L 527 991 L 541 1005 L 556 1013 L 566 1016 L 590 1017 L 598 1015 L 608 1010 L 618 999 L 620 994 L 620 989 L 613 995 L 606 998 L 594 998 L 586 994 L 581 989 L 577 982 L 574 971 L 574 958 L 576 948 L 582 934 L 589 924 L 611 899 L 629 867 L 635 849 L 640 825 L 644 813 L 646 814 L 647 842 L 650 869 L 658 901 L 668 927 L 682 953 L 697 974 L 713 991 L 729 1004 L 752 1017 L 781 1026 L 800 1029 L 835 1029 L 855 1026 L 877 1019 L 889 1012 L 899 1002 L 905 988 L 905 970 L 900 964 L 892 961 L 883 962 L 879 966 L 874 979 L 870 983 L 861 987 L 852 988 L 838 985 L 825 978 L 815 969 L 802 951 L 791 929 L 783 907 L 774 866 L 767 819 L 757 774 L 748 751 L 736 735 L 724 727 L 715 724 L 702 722 L 674 722 L 655 724 L 605 723 L 595 725 L 586 729 Z"/>
<path id="shape_0005" fill="#BBE5F5" d="M 403 233 L 390 250 L 373 277 L 362 299 L 351 329 L 344 359 L 342 375 L 342 387 L 341 388 L 342 423 L 350 465 L 359 491 L 372 518 L 391 547 L 415 573 L 416 576 L 410 577 L 409 579 L 438 604 L 470 619 L 479 622 L 481 621 L 469 614 L 450 600 L 427 577 L 409 554 L 395 531 L 387 514 L 380 495 L 374 470 L 371 445 L 371 422 L 373 402 L 379 374 L 391 341 L 407 311 L 417 296 L 433 276 L 464 246 L 496 223 L 522 209 L 559 195 L 594 187 L 611 185 L 626 185 L 627 184 L 669 185 L 695 188 L 726 195 L 756 206 L 788 223 L 803 233 L 831 255 L 856 280 L 877 308 L 888 327 L 900 354 L 906 372 L 912 398 L 915 422 L 915 456 L 910 488 L 903 512 L 893 535 L 877 561 L 864 576 L 863 580 L 860 581 L 844 597 L 825 613 L 798 630 L 823 623 L 861 607 L 881 589 L 880 587 L 872 584 L 871 582 L 892 563 L 909 542 L 924 518 L 934 497 L 941 478 L 947 456 L 952 426 L 952 415 L 953 414 L 952 374 L 949 353 L 943 328 L 933 300 L 919 272 L 907 253 L 888 229 L 860 201 L 839 184 L 810 165 L 783 151 L 764 143 L 733 133 L 699 126 L 672 123 L 624 123 L 604 125 L 571 131 L 549 137 L 516 149 L 493 160 L 474 171 L 442 194 Z"/>
<path id="shape_0006" fill="#AB6EDB" d="M 769 735 L 770 750 L 786 787 L 799 807 L 816 828 L 836 848 L 860 865 L 879 874 L 915 884 L 931 886 L 968 885 L 987 881 L 1014 870 L 1037 854 L 1054 837 L 1064 823 L 1076 800 L 1083 790 L 1095 780 L 1109 775 L 1118 774 L 1133 775 L 1150 780 L 1157 784 L 1166 792 L 1174 805 L 1176 812 L 1175 823 L 1171 831 L 1165 837 L 1154 843 L 1143 843 L 1142 842 L 1132 842 L 1131 843 L 1135 848 L 1143 852 L 1160 853 L 1169 851 L 1178 847 L 1192 835 L 1197 827 L 1201 814 L 1201 794 L 1200 793 L 1201 783 L 1191 766 L 1177 751 L 1166 743 L 1155 737 L 1136 731 L 1130 730 L 1099 731 L 1084 735 L 1065 744 L 1044 760 L 1022 786 L 1008 799 L 993 808 L 972 814 L 949 814 L 935 811 L 916 804 L 895 792 L 878 779 L 859 760 L 845 741 L 830 713 L 812 709 L 804 709 L 790 712 L 785 714 L 776 721 Z"/>
<path id="shape_0007" fill="#AB6EDB" d="M 543 722 L 528 715 L 514 715 L 500 720 L 495 725 L 491 747 L 486 763 L 469 800 L 447 832 L 422 856 L 408 866 L 382 880 L 362 888 L 329 898 L 302 910 L 292 917 L 283 926 L 275 938 L 271 947 L 269 955 L 269 971 L 275 984 L 290 1000 L 307 1010 L 321 1014 L 338 1014 L 350 1010 L 357 1004 L 359 1000 L 358 995 L 348 1001 L 336 1001 L 323 996 L 318 991 L 315 985 L 315 974 L 317 968 L 320 963 L 330 953 L 341 947 L 354 943 L 372 940 L 397 938 L 431 929 L 448 921 L 465 910 L 489 889 L 511 862 L 526 838 L 540 809 L 550 781 L 555 757 L 555 742 L 551 731 Z"/>
<path id="shape_0008" fill="#AB6EDB" d="M 725 370 L 740 366 L 760 366 L 779 372 L 790 379 L 802 391 L 813 411 L 817 430 L 816 448 L 810 467 L 795 488 L 801 489 L 813 494 L 826 506 L 831 515 L 833 522 L 833 535 L 831 543 L 823 556 L 814 564 L 801 571 L 789 574 L 774 574 L 762 571 L 753 566 L 744 557 L 738 543 L 738 531 L 741 520 L 753 505 L 753 503 L 734 503 L 719 499 L 711 495 L 696 483 L 689 474 L 683 462 L 679 447 L 679 434 L 681 424 L 688 404 L 697 390 L 704 383 L 715 375 Z"/>
<path id="shape_0009" fill="#AB6EDB" d="M 121 548 L 117 557 L 113 572 L 113 590 L 116 601 L 123 613 L 136 624 L 147 628 L 159 629 L 166 627 L 174 620 L 174 614 L 171 610 L 157 609 L 151 606 L 143 596 L 142 592 L 143 580 L 150 567 L 160 557 L 176 549 L 191 547 L 209 550 L 233 562 L 247 576 L 256 594 L 268 637 L 280 662 L 295 683 L 308 696 L 317 703 L 334 712 L 349 716 L 376 715 L 390 709 L 397 702 L 400 694 L 399 683 L 393 673 L 375 655 L 367 653 L 352 646 L 342 639 L 332 629 L 321 613 L 296 558 L 288 546 L 272 529 L 254 516 L 234 507 L 216 503 L 189 503 L 178 505 L 161 511 L 142 523 L 129 536 Z"/>
<path id="shape_0010" fill="#4E4652" d="M 391 604 L 392 626 L 395 635 L 399 641 L 412 653 L 439 668 L 469 679 L 511 689 L 552 695 L 593 699 L 607 699 L 608 700 L 632 700 L 633 701 L 705 700 L 706 699 L 719 699 L 720 698 L 763 695 L 806 688 L 847 676 L 875 663 L 882 658 L 890 649 L 896 634 L 896 611 L 880 623 L 855 635 L 830 643 L 791 652 L 754 658 L 704 663 L 684 663 L 683 664 L 614 663 L 540 655 L 497 647 L 468 640 L 442 631 L 417 619 L 405 611 L 393 599 L 392 599 Z"/>
<path id="shape_0011" fill="#AB6EDB" d="M 512 358 L 526 364 L 536 371 L 542 377 L 552 392 L 553 401 L 558 411 L 560 424 L 559 436 L 555 450 L 547 466 L 534 479 L 521 486 L 509 489 L 491 489 L 480 486 L 489 500 L 494 517 L 494 528 L 492 535 L 487 544 L 481 550 L 472 555 L 464 557 L 451 557 L 440 554 L 427 546 L 417 535 L 412 525 L 409 511 L 412 495 L 415 489 L 421 482 L 428 477 L 437 473 L 452 471 L 452 469 L 442 455 L 437 443 L 435 433 L 435 418 L 440 398 L 449 382 L 459 371 L 467 365 L 480 359 L 488 357 Z"/>
<path id="shape_0012" fill="#AB6EDB" d="M 85 760 L 81 771 L 79 783 L 79 791 L 82 806 L 91 822 L 99 830 L 117 839 L 134 840 L 143 836 L 148 831 L 148 825 L 145 822 L 141 820 L 132 820 L 127 818 L 117 807 L 114 800 L 114 787 L 117 778 L 120 773 L 131 762 L 143 756 L 158 753 L 169 753 L 180 755 L 191 759 L 199 764 L 212 777 L 234 810 L 251 826 L 273 840 L 276 839 L 287 818 L 289 810 L 289 794 L 287 787 L 282 779 L 266 764 L 251 746 L 236 732 L 223 723 L 200 713 L 178 709 L 163 709 L 148 711 L 130 717 L 117 724 L 103 735 L 94 745 Z"/>
<path id="shape_0013" fill="#AB6EDB" d="M 989 574 L 989 578 L 1005 592 L 1027 601 L 1039 603 L 1048 582 L 1053 575 L 1065 564 L 1075 559 L 1087 556 L 1101 556 L 1117 560 L 1134 570 L 1142 579 L 1146 588 L 1145 601 L 1142 607 L 1134 615 L 1131 616 L 1113 615 L 1108 620 L 1109 626 L 1114 631 L 1123 635 L 1139 635 L 1146 633 L 1157 627 L 1168 615 L 1172 607 L 1175 595 L 1175 581 L 1173 571 L 1166 555 L 1158 544 L 1144 531 L 1130 522 L 1113 515 L 1094 511 L 1066 512 L 1047 517 L 1034 523 L 1018 534 L 1008 544 L 996 560 Z"/>
<path id="shape_0014" fill="#AB6EDB" d="M 1021 648 L 1010 646 L 987 637 L 968 625 L 963 635 L 957 643 L 946 654 L 939 659 L 931 663 L 917 667 L 897 667 L 885 676 L 865 686 L 856 696 L 854 702 L 855 710 L 858 715 L 871 726 L 881 731 L 895 735 L 923 736 L 937 734 L 957 728 L 971 721 L 981 714 L 1000 695 L 1008 683 L 1016 667 L 1020 656 Z"/>
<path id="shape_0015" fill="#7643A7" d="M 150 569 L 144 583 L 144 594 L 148 601 L 149 601 L 148 587 L 151 581 L 161 572 L 173 567 L 184 565 L 197 566 L 207 571 L 215 572 L 225 577 L 235 588 L 239 600 L 238 608 L 231 614 L 234 621 L 240 621 L 249 626 L 256 635 L 259 643 L 260 654 L 258 660 L 253 665 L 254 669 L 265 671 L 273 675 L 281 683 L 287 695 L 287 706 L 283 712 L 288 720 L 297 717 L 305 717 L 319 722 L 327 728 L 333 736 L 334 744 L 331 750 L 341 755 L 350 758 L 364 760 L 386 759 L 396 755 L 408 744 L 425 722 L 443 686 L 445 680 L 444 678 L 425 670 L 403 655 L 379 656 L 394 672 L 401 684 L 401 696 L 398 703 L 386 713 L 374 717 L 351 718 L 335 714 L 326 710 L 312 701 L 295 685 L 279 663 L 268 641 L 252 588 L 246 577 L 235 565 L 226 559 L 207 551 L 197 549 L 184 549 L 167 554 L 157 561 Z"/>
<path id="shape_0016" fill="#AB6EDB" d="M 473 709 L 464 701 L 456 698 L 448 697 L 440 716 L 428 735 L 420 745 L 395 768 L 376 780 L 358 788 L 342 792 L 325 793 L 325 794 L 338 796 L 363 795 L 368 798 L 370 802 L 370 808 L 366 813 L 355 819 L 343 822 L 329 823 L 327 834 L 322 847 L 325 848 L 353 848 L 379 842 L 400 831 L 422 813 L 447 786 L 455 775 L 467 753 L 475 728 L 475 714 Z"/>
<path id="shape_0017" fill="#312D34" d="M 730 387 L 720 389 L 709 394 L 703 398 L 694 407 L 685 425 L 683 442 L 685 453 L 690 465 L 694 471 L 703 480 L 720 489 L 729 491 L 741 491 L 760 485 L 769 479 L 775 473 L 780 466 L 785 455 L 787 447 L 787 431 L 784 420 L 780 412 L 774 404 L 765 396 L 756 391 L 747 388 Z"/>
<path id="shape_0018" fill="#312D34" d="M 519 379 L 498 380 L 482 388 L 469 402 L 462 419 L 461 427 L 462 438 L 468 454 L 474 462 L 482 469 L 493 475 L 507 478 L 518 477 L 528 474 L 537 469 L 550 456 L 557 437 L 558 430 L 557 415 L 551 400 L 543 391 L 535 385 L 527 381 Z"/>
<path id="shape_0019" fill="#5B357E" d="M 461 251 L 443 268 L 424 290 L 410 310 L 398 331 L 387 356 L 380 378 L 376 396 L 373 422 L 373 445 L 376 470 L 381 491 L 391 518 L 403 541 L 418 563 L 436 584 L 453 600 L 485 621 L 489 625 L 524 635 L 527 635 L 527 634 L 507 626 L 487 616 L 474 608 L 453 592 L 424 562 L 410 542 L 396 516 L 386 489 L 381 467 L 379 452 L 379 414 L 386 376 L 397 345 L 414 313 L 431 289 L 457 261 L 484 239 L 508 224 L 526 215 L 549 206 L 581 197 L 620 191 L 666 191 L 696 195 L 731 204 L 761 216 L 790 232 L 815 250 L 848 282 L 866 305 L 879 326 L 889 346 L 898 370 L 905 398 L 908 424 L 908 450 L 904 480 L 900 496 L 891 521 L 882 539 L 872 555 L 858 573 L 837 594 L 813 612 L 783 628 L 763 635 L 761 637 L 792 631 L 811 620 L 839 599 L 864 574 L 873 563 L 888 540 L 896 524 L 908 488 L 913 456 L 913 422 L 910 398 L 905 376 L 897 352 L 877 312 L 861 289 L 848 274 L 817 246 L 789 226 L 770 215 L 732 199 L 710 193 L 688 189 L 669 187 L 652 187 L 651 186 L 625 186 L 583 191 L 566 195 L 539 204 L 495 226 Z"/>
<path id="shape_0020" fill="#73A0B7" d="M 374 234 L 354 265 L 343 287 L 329 326 L 323 353 L 320 378 L 320 414 L 322 432 L 328 461 L 335 483 L 344 504 L 358 529 L 384 563 L 400 579 L 403 580 L 413 589 L 429 600 L 430 599 L 407 580 L 387 560 L 368 536 L 354 513 L 338 477 L 330 448 L 325 414 L 326 368 L 331 339 L 337 317 L 353 278 L 374 243 L 404 207 L 429 184 L 456 164 L 497 141 L 541 124 L 582 114 L 622 109 L 671 109 L 711 114 L 759 126 L 799 142 L 835 162 L 869 187 L 899 216 L 919 241 L 931 259 L 942 279 L 954 307 L 961 329 L 967 357 L 970 384 L 970 413 L 967 440 L 961 467 L 954 488 L 942 515 L 927 540 L 911 561 L 883 590 L 870 600 L 867 604 L 877 599 L 889 590 L 912 567 L 937 533 L 952 505 L 966 466 L 970 449 L 974 420 L 974 378 L 972 360 L 964 323 L 953 292 L 942 269 L 924 240 L 906 217 L 885 195 L 851 167 L 828 152 L 795 135 L 773 126 L 741 116 L 719 111 L 686 106 L 659 105 L 658 104 L 631 104 L 630 105 L 602 106 L 566 112 L 543 118 L 512 129 L 480 144 L 461 155 L 435 173 L 409 195 L 394 210 Z"/>
<path id="shape_0021" fill="#AB6EDB" d="M 552 500 L 563 489 L 568 489 L 580 494 L 602 497 L 639 497 L 667 492 L 675 498 L 678 505 L 676 506 L 674 503 L 672 504 L 671 516 L 667 529 L 659 543 L 646 556 L 630 564 L 620 566 L 609 566 L 597 563 L 589 559 L 576 548 L 570 540 L 564 528 L 560 513 L 559 498 L 554 502 Z"/>
<path id="shape_0022" fill="#7643A7" d="M 1046 650 L 1023 648 L 1021 658 L 1012 679 L 1006 689 L 993 705 L 982 715 L 967 725 L 956 730 L 935 736 L 907 738 L 888 735 L 873 729 L 863 722 L 855 713 L 853 709 L 853 700 L 857 692 L 864 685 L 884 675 L 894 668 L 895 666 L 885 664 L 876 671 L 858 680 L 832 689 L 832 693 L 838 709 L 850 733 L 852 734 L 855 741 L 860 746 L 860 748 L 863 750 L 863 752 L 867 755 L 867 757 L 881 771 L 883 771 L 886 774 L 890 776 L 905 777 L 909 775 L 914 775 L 924 772 L 927 763 L 936 754 L 944 750 L 951 748 L 962 748 L 969 751 L 973 756 L 983 748 L 980 741 L 981 735 L 988 723 L 993 718 L 1003 712 L 1007 711 L 1019 712 L 1024 706 L 1020 697 L 1021 685 L 1027 673 L 1035 665 L 1044 662 Z"/>
<path id="shape_0023" fill="#562837" d="M 559 494 L 561 496 L 561 507 L 563 519 L 568 533 L 572 540 L 586 555 L 597 561 L 608 564 L 621 564 L 633 561 L 643 556 L 656 544 L 666 527 L 672 497 L 667 494 L 638 499 L 594 498 L 577 495 L 568 491 L 563 491 Z"/>
<path id="shape_0024" fill="#726976" d="M 393 594 L 394 599 L 405 610 L 412 615 L 435 627 L 468 639 L 497 646 L 540 654 L 588 660 L 635 662 L 636 663 L 683 663 L 684 662 L 717 661 L 754 657 L 796 650 L 830 642 L 855 634 L 875 625 L 886 618 L 895 610 L 894 602 L 887 594 L 885 594 L 876 601 L 875 605 L 869 611 L 859 617 L 830 628 L 790 639 L 766 644 L 712 651 L 687 652 L 686 653 L 664 653 L 663 654 L 632 654 L 631 653 L 626 654 L 625 653 L 605 653 L 565 649 L 534 644 L 499 636 L 462 625 L 428 610 L 414 600 L 410 593 L 411 588 L 405 583 L 403 583 L 398 587 Z"/>
<path id="shape_0025" fill="#F784A4" d="M 813 496 L 798 490 L 792 489 L 781 490 L 773 492 L 763 497 L 749 511 L 743 520 L 741 526 L 740 543 L 744 554 L 753 564 L 768 571 L 790 572 L 801 569 L 811 564 L 824 552 L 829 543 L 831 536 L 831 521 L 824 506 Z"/>
<path id="shape_0026" fill="#F784A4" d="M 434 476 L 425 481 L 417 489 L 413 497 L 411 513 L 416 530 L 427 544 L 434 549 L 446 554 L 466 555 L 478 550 L 487 541 L 492 529 L 492 515 L 489 505 L 484 495 L 477 486 L 477 484 L 458 473 L 448 473 Z"/>
<path id="shape_0027" fill="#312D34" d="M 298 775 L 287 772 L 281 773 L 281 776 L 286 781 L 290 789 L 291 810 L 287 824 L 277 841 L 269 849 L 256 858 L 250 860 L 235 860 L 234 859 L 227 860 L 227 863 L 231 870 L 245 882 L 258 886 L 270 886 L 282 883 L 301 871 L 312 859 L 321 845 L 325 834 L 327 823 L 327 806 L 325 798 L 319 787 Z"/>
<path id="shape_0028" fill="#312D34" d="M 973 576 L 967 587 L 963 601 L 963 615 L 965 619 L 972 625 L 994 638 L 1007 643 L 1023 647 L 1053 648 L 1059 645 L 1063 641 L 1070 622 L 1070 610 L 1064 607 L 1040 606 L 1015 599 L 1005 594 L 994 586 L 986 577 L 983 571 Z"/>
<path id="shape_0029" fill="#312D34" d="M 976 578 L 981 575 L 993 589 L 1005 597 L 1016 602 L 1038 608 L 1046 609 L 1064 608 L 1067 611 L 1067 616 L 1062 634 L 1058 641 L 1055 644 L 1049 645 L 1023 643 L 994 634 L 977 624 L 967 613 L 967 603 L 969 594 Z"/>
<path id="shape_0030" fill="#312D34" d="M 311 785 L 315 788 L 322 799 L 324 805 L 325 819 L 320 839 L 309 858 L 295 872 L 285 878 L 276 881 L 259 883 L 252 881 L 241 874 L 234 867 L 235 865 L 252 862 L 263 857 L 269 853 L 280 842 L 290 825 L 294 811 L 294 794 L 290 778 L 292 777 Z"/>
<path id="shape_0031" fill="#7643A7" d="M 117 782 L 115 790 L 115 797 L 117 804 L 121 809 L 120 793 L 122 788 L 131 778 L 142 772 L 150 770 L 164 770 L 173 774 L 188 776 L 199 784 L 204 791 L 207 799 L 205 808 L 200 813 L 195 814 L 195 816 L 214 819 L 220 822 L 228 829 L 233 836 L 236 845 L 236 849 L 232 857 L 241 859 L 253 857 L 261 853 L 273 842 L 244 822 L 230 807 L 215 783 L 207 773 L 198 765 L 187 759 L 172 755 L 154 755 L 145 757 L 128 766 L 121 774 Z"/>
<path id="shape_0032" fill="#5B357E" d="M 825 692 L 832 713 L 844 736 L 858 756 L 876 775 L 891 787 L 905 796 L 923 805 L 948 812 L 963 813 L 978 811 L 988 808 L 1002 801 L 1009 796 L 1023 782 L 1031 771 L 1047 755 L 1060 745 L 1079 735 L 1105 728 L 1130 728 L 1150 733 L 1163 739 L 1176 748 L 1190 762 L 1198 773 L 1206 791 L 1208 804 L 1208 823 L 1201 843 L 1196 850 L 1184 860 L 1176 864 L 1165 867 L 1150 867 L 1135 862 L 1128 855 L 1126 851 L 1126 845 L 1129 841 L 1132 840 L 1151 841 L 1160 833 L 1162 827 L 1162 815 L 1158 806 L 1154 801 L 1143 793 L 1133 790 L 1118 790 L 1116 792 L 1119 794 L 1124 793 L 1134 794 L 1148 801 L 1156 811 L 1159 821 L 1158 829 L 1153 836 L 1147 838 L 1131 836 L 1126 839 L 1123 846 L 1123 851 L 1126 858 L 1133 865 L 1142 869 L 1152 871 L 1169 870 L 1179 867 L 1190 861 L 1201 850 L 1208 838 L 1212 825 L 1213 805 L 1211 793 L 1204 775 L 1193 759 L 1181 747 L 1166 736 L 1152 729 L 1128 723 L 1108 723 L 1079 730 L 1063 738 L 1044 752 L 1021 778 L 1007 792 L 999 798 L 987 804 L 967 808 L 948 807 L 938 805 L 921 799 L 905 791 L 895 784 L 896 782 L 906 782 L 925 779 L 926 778 L 925 774 L 907 778 L 891 778 L 886 776 L 877 769 L 864 755 L 851 737 L 837 711 L 830 691 Z"/>
<path id="shape_0033" fill="#AB6EDB" d="M 727 250 L 731 246 L 737 243 L 752 243 L 764 247 L 774 253 L 784 262 L 794 278 L 796 286 L 794 297 L 788 303 L 781 306 L 761 305 L 746 298 L 734 287 L 726 274 L 724 266 L 724 259 Z"/>
<path id="shape_0034" fill="#4E4652" d="M 311 787 L 292 779 L 296 795 L 296 810 L 293 822 L 288 833 L 282 842 L 266 857 L 251 864 L 243 866 L 236 866 L 241 872 L 248 877 L 258 881 L 277 879 L 291 873 L 307 858 L 316 844 L 321 831 L 323 821 L 323 810 L 321 801 L 317 793 Z"/>
<path id="shape_0035" fill="#BBE5F5" d="M 809 200 L 813 196 L 818 194 L 830 195 L 845 201 L 858 210 L 870 222 L 879 236 L 882 246 L 882 251 L 879 258 L 872 263 L 868 264 L 860 263 L 848 258 L 837 250 L 822 235 L 813 223 L 808 212 Z"/>
<path id="shape_0036" fill="#E6ACDE" d="M 728 251 L 726 256 L 726 268 L 729 277 L 735 286 L 747 297 L 763 304 L 777 305 L 787 302 L 793 296 L 794 283 L 792 277 L 783 263 L 773 254 L 760 247 L 749 244 L 739 244 L 732 247 Z"/>
<path id="shape_0037" fill="#5B357E" d="M 492 732 L 488 738 L 471 780 L 459 802 L 442 826 L 424 845 L 400 863 L 382 872 L 302 902 L 288 913 L 274 928 L 264 949 L 262 960 L 263 977 L 266 987 L 271 997 L 277 1005 L 289 1016 L 301 1023 L 312 1027 L 322 1029 L 337 1029 L 353 1025 L 359 1022 L 367 1015 L 371 1008 L 372 998 L 370 993 L 366 989 L 356 988 L 346 996 L 340 997 L 336 995 L 331 988 L 331 981 L 337 973 L 347 968 L 355 968 L 358 962 L 350 963 L 334 970 L 330 974 L 327 980 L 327 989 L 332 998 L 336 999 L 348 999 L 360 991 L 362 991 L 368 999 L 368 1007 L 359 1017 L 352 1021 L 342 1024 L 326 1025 L 307 1021 L 292 1013 L 277 998 L 267 978 L 267 956 L 271 942 L 280 927 L 293 914 L 302 908 L 321 899 L 362 886 L 384 877 L 406 865 L 428 849 L 448 828 L 468 798 L 484 763 Z"/>
<path id="shape_0038" fill="#4E4652" d="M 974 585 L 969 601 L 969 613 L 977 622 L 986 628 L 1010 638 L 1035 643 L 1051 643 L 1055 642 L 1061 632 L 1065 615 L 1039 616 L 1025 613 L 999 602 Z"/>
<path id="shape_0039" fill="#5B357E" d="M 108 563 L 106 575 L 108 596 L 114 610 L 119 617 L 129 626 L 144 633 L 160 634 L 167 632 L 174 628 L 177 624 L 180 617 L 180 613 L 177 608 L 171 605 L 158 603 L 155 600 L 153 596 L 153 590 L 155 585 L 164 576 L 176 571 L 186 570 L 199 574 L 204 574 L 205 571 L 195 567 L 175 568 L 162 573 L 152 582 L 149 589 L 149 595 L 152 604 L 159 608 L 171 608 L 176 614 L 176 620 L 171 626 L 166 629 L 156 631 L 147 630 L 131 623 L 120 612 L 114 601 L 111 589 L 111 573 L 117 552 L 123 541 L 136 526 L 147 517 L 161 509 L 171 505 L 190 501 L 215 501 L 230 504 L 242 508 L 259 517 L 270 525 L 287 542 L 298 558 L 323 613 L 331 625 L 340 635 L 354 645 L 376 654 L 398 654 L 399 653 L 397 650 L 385 651 L 377 650 L 365 646 L 355 641 L 342 631 L 328 613 L 320 598 L 305 563 L 287 536 L 276 525 L 260 513 L 245 505 L 228 499 L 211 496 L 195 496 L 174 500 L 154 508 L 140 517 L 126 530 L 117 542 Z"/>
<path id="shape_0040" fill="#BBE5F5" d="M 472 209 L 471 216 L 465 226 L 452 240 L 437 253 L 420 263 L 411 262 L 407 258 L 406 254 L 407 248 L 411 239 L 419 228 L 432 216 L 443 209 L 458 204 L 468 205 Z"/>
<path id="shape_0041" fill="#562837" d="M 577 542 L 577 539 L 584 533 L 601 527 L 611 527 L 612 528 L 635 527 L 648 532 L 656 539 L 651 546 L 644 552 L 636 557 L 623 561 L 606 561 L 599 559 L 588 553 Z"/>
<path id="shape_0042" fill="#5B357E" d="M 280 771 L 249 736 L 224 717 L 207 709 L 193 705 L 181 703 L 158 703 L 136 708 L 117 717 L 108 723 L 94 736 L 82 753 L 76 767 L 73 782 L 73 793 L 76 807 L 82 819 L 87 826 L 102 839 L 118 845 L 134 845 L 147 840 L 152 835 L 154 830 L 154 824 L 152 820 L 146 816 L 131 813 L 125 806 L 125 796 L 131 785 L 143 777 L 151 775 L 168 777 L 171 774 L 160 771 L 147 772 L 135 777 L 125 786 L 121 797 L 123 812 L 129 817 L 144 819 L 150 825 L 150 831 L 140 840 L 133 842 L 117 841 L 100 833 L 88 821 L 82 811 L 78 798 L 77 786 L 78 776 L 82 762 L 87 752 L 95 741 L 106 730 L 122 719 L 135 713 L 154 708 L 165 708 L 166 707 L 186 708 L 209 714 L 225 722 L 240 733 L 278 773 Z"/>
<path id="shape_0043" fill="#312D34" d="M 422 665 L 423 667 L 447 678 L 500 693 L 547 701 L 586 705 L 599 705 L 600 706 L 691 707 L 692 706 L 738 704 L 794 697 L 826 690 L 837 686 L 837 685 L 822 685 L 809 689 L 783 694 L 715 701 L 615 702 L 614 701 L 598 701 L 597 700 L 564 698 L 513 691 L 470 681 L 447 673 L 430 665 Z"/>
<path id="shape_0044" fill="#5B357E" d="M 985 569 L 988 573 L 992 563 L 1004 546 L 1019 531 L 1032 522 L 1047 515 L 1061 511 L 1073 509 L 1093 509 L 1113 513 L 1124 517 L 1147 531 L 1162 546 L 1167 553 L 1173 565 L 1177 582 L 1177 594 L 1175 604 L 1169 617 L 1165 622 L 1156 630 L 1146 635 L 1139 637 L 1123 637 L 1117 635 L 1110 630 L 1106 624 L 1106 619 L 1110 614 L 1113 613 L 1126 614 L 1131 609 L 1135 601 L 1135 594 L 1133 589 L 1125 580 L 1112 572 L 1091 571 L 1084 573 L 1088 577 L 1092 575 L 1107 575 L 1113 577 L 1120 581 L 1130 592 L 1131 603 L 1124 611 L 1109 610 L 1105 613 L 1103 617 L 1104 629 L 1111 636 L 1125 641 L 1137 641 L 1148 638 L 1156 634 L 1164 628 L 1174 616 L 1179 604 L 1181 593 L 1181 581 L 1179 569 L 1172 553 L 1165 543 L 1150 528 L 1137 519 L 1118 510 L 1097 505 L 1080 504 L 1058 507 L 1043 512 L 1027 520 L 1005 538 L 995 550 Z"/>
<path id="shape_0045" fill="#312D34" d="M 426 606 L 429 609 L 455 621 L 479 629 L 517 639 L 560 647 L 611 652 L 680 652 L 681 651 L 696 651 L 736 647 L 784 639 L 822 629 L 850 619 L 850 618 L 842 617 L 829 623 L 799 632 L 769 638 L 749 640 L 728 644 L 695 646 L 694 647 L 677 647 L 676 648 L 612 648 L 611 647 L 574 645 L 524 637 L 475 623 L 451 613 L 439 606 Z"/>
<path id="shape_0046" fill="#E05C7A" d="M 578 541 L 589 552 L 598 557 L 604 559 L 618 560 L 630 558 L 640 553 L 653 542 L 654 538 L 647 533 L 637 529 L 598 529 L 587 533 L 581 537 Z"/>
<path id="shape_0047" fill="#7643A7" d="M 1041 602 L 1041 604 L 1045 605 L 1060 605 L 1058 600 L 1058 592 L 1061 585 L 1065 580 L 1070 576 L 1077 573 L 1089 570 L 1103 569 L 1117 573 L 1127 580 L 1135 590 L 1136 602 L 1133 608 L 1127 614 L 1128 615 L 1136 612 L 1141 606 L 1144 599 L 1144 587 L 1139 577 L 1132 570 L 1118 562 L 1104 558 L 1085 558 L 1074 561 L 1063 567 L 1051 580 Z"/>
<path id="shape_0048" fill="#5B357E" d="M 451 681 L 449 680 L 446 681 L 435 708 L 420 732 L 412 742 L 396 757 L 384 761 L 370 761 L 369 762 L 356 761 L 341 757 L 330 751 L 326 751 L 325 752 L 326 755 L 347 763 L 358 765 L 382 765 L 383 767 L 362 779 L 342 785 L 323 787 L 322 788 L 323 791 L 336 791 L 358 786 L 381 775 L 401 761 L 412 751 L 430 729 L 444 703 Z"/>
<path id="shape_0049" fill="#7643A7" d="M 1203 788 L 1202 788 L 1202 816 L 1200 823 L 1194 834 L 1183 845 L 1167 853 L 1146 854 L 1136 850 L 1129 844 L 1128 851 L 1130 855 L 1135 860 L 1149 865 L 1166 865 L 1176 862 L 1187 856 L 1199 843 L 1203 835 L 1206 824 L 1207 812 Z"/>
<path id="shape_0050" fill="#5B357E" d="M 698 392 L 698 393 L 701 392 L 706 387 L 721 378 L 740 373 L 754 373 L 764 375 L 784 385 L 796 397 L 800 403 L 808 422 L 810 433 L 810 451 L 808 462 L 806 466 L 807 468 L 812 456 L 815 440 L 815 430 L 813 418 L 810 409 L 803 396 L 788 380 L 768 370 L 759 368 L 741 368 L 721 374 L 707 383 Z"/>
<path id="shape_0051" fill="#AB6EDB" d="M 750 917 L 753 917 L 759 920 L 769 930 L 775 939 L 780 949 L 780 955 L 776 960 L 772 960 L 763 956 L 751 943 L 746 930 L 746 924 Z"/>
<path id="shape_0052" fill="#E6ACDE" d="M 326 795 L 329 806 L 329 821 L 340 821 L 356 817 L 365 812 L 369 807 L 369 803 L 367 799 L 361 796 L 342 798 Z"/>
<path id="shape_0053" fill="#7643A7" d="M 269 975 L 271 984 L 279 998 L 295 1013 L 313 1021 L 324 1023 L 337 1023 L 347 1021 L 359 1015 L 366 1007 L 366 999 L 364 995 L 360 993 L 359 1003 L 349 1012 L 333 1016 L 315 1014 L 298 1007 L 288 1000 L 278 990 Z"/>
<path id="shape_0054" fill="#AB6EDB" d="M 1114 742 L 1117 739 L 1122 737 L 1138 737 L 1148 740 L 1156 744 L 1168 755 L 1169 762 L 1165 764 L 1143 755 L 1124 752 L 1118 749 L 1114 745 Z"/>
<path id="shape_0055" fill="#5B357E" d="M 545 384 L 533 371 L 515 361 L 507 359 L 489 359 L 471 365 L 461 372 L 454 379 L 448 387 L 442 399 L 437 419 L 437 433 L 442 450 L 443 449 L 440 437 L 440 424 L 445 404 L 455 387 L 470 373 L 489 365 L 496 364 L 512 365 L 529 372 L 536 377 L 545 387 L 546 387 Z"/>
<path id="shape_0056" fill="#AB6EDB" d="M 1085 521 L 1091 517 L 1108 518 L 1118 521 L 1129 527 L 1138 536 L 1138 540 L 1136 542 L 1130 542 L 1114 536 L 1096 532 L 1088 528 L 1085 524 Z"/>
<path id="shape_0057" fill="#312D34" d="M 752 399 L 761 401 L 767 407 L 769 412 L 769 417 L 766 424 L 756 430 L 751 430 L 746 428 L 740 422 L 738 415 L 740 407 L 746 401 Z"/>
<path id="shape_0058" fill="#E6ACDE" d="M 751 918 L 748 922 L 748 933 L 752 942 L 764 955 L 770 958 L 776 958 L 779 952 L 772 937 L 763 925 L 758 921 Z"/>
<path id="shape_0059" fill="#312D34" d="M 526 391 L 530 391 L 538 394 L 545 402 L 545 411 L 543 415 L 536 421 L 529 421 L 522 418 L 516 410 L 517 399 Z"/>
<path id="shape_0060" fill="#F784A4" d="M 192 822 L 192 832 L 197 842 L 210 853 L 217 856 L 225 856 L 224 846 L 219 836 L 214 831 L 200 824 L 197 821 Z"/>
<path id="shape_0061" fill="#AB6EDB" d="M 174 722 L 179 718 L 192 718 L 199 720 L 212 728 L 215 731 L 217 738 L 214 741 L 208 741 L 180 732 L 174 727 Z"/>
<path id="shape_0062" fill="#E6ACDE" d="M 1116 742 L 1116 745 L 1123 750 L 1145 754 L 1164 762 L 1167 762 L 1168 760 L 1167 756 L 1163 751 L 1149 742 L 1135 738 L 1124 738 Z"/>
<path id="shape_0063" fill="#F784A4" d="M 170 778 L 168 782 L 168 792 L 172 800 L 177 805 L 186 810 L 192 812 L 198 812 L 199 811 L 198 804 L 192 791 L 186 786 Z"/>
<path id="shape_0064" fill="#E6ACDE" d="M 1086 522 L 1087 525 L 1092 529 L 1112 534 L 1132 541 L 1135 541 L 1137 539 L 1137 537 L 1128 528 L 1117 522 L 1105 519 L 1090 519 Z"/>
<path id="shape_0065" fill="#AB6EDB" d="M 203 517 L 210 513 L 220 513 L 231 515 L 242 521 L 246 526 L 247 531 L 244 534 L 239 534 L 218 528 L 207 523 L 203 519 Z"/>
<path id="shape_0066" fill="#726976" d="M 975 582 L 977 586 L 994 598 L 1016 609 L 1039 615 L 1066 614 L 1065 610 L 1044 610 L 1031 608 L 1008 600 L 990 588 L 981 576 Z"/>
<path id="shape_0067" fill="#F784A4" d="M 1012 909 L 986 910 L 974 916 L 967 923 L 976 927 L 994 926 L 1004 921 L 1009 916 Z"/>
<path id="shape_0068" fill="#F784A4" d="M 205 575 L 204 589 L 210 602 L 216 608 L 225 612 L 230 612 L 227 597 L 223 588 L 218 583 Z"/>
<path id="shape_0069" fill="#AB6EDB" d="M 876 816 L 879 813 L 884 813 L 897 817 L 910 824 L 916 830 L 916 833 L 913 836 L 902 836 L 893 833 L 880 825 L 876 820 Z"/>
<path id="shape_0070" fill="#302D34" d="M 894 593 L 889 591 L 888 594 L 894 600 L 897 607 L 898 630 L 895 642 L 890 652 L 881 661 L 879 661 L 875 665 L 859 673 L 856 673 L 847 678 L 830 683 L 830 684 L 843 684 L 858 678 L 876 669 L 885 663 L 892 656 L 899 644 L 901 634 L 901 608 L 899 601 Z"/>
<path id="shape_0071" fill="#F784A4" d="M 971 759 L 950 760 L 927 771 L 927 773 L 931 776 L 938 778 L 952 777 L 964 771 L 968 767 Z"/>
<path id="shape_0072" fill="#F784A4" d="M 1020 717 L 1009 720 L 998 727 L 992 735 L 986 748 L 988 749 L 996 748 L 1006 743 L 1015 733 L 1019 724 Z"/>
<path id="shape_0073" fill="#F784A4" d="M 233 623 L 230 625 L 229 628 L 229 641 L 231 648 L 241 660 L 247 663 L 251 663 L 250 650 L 247 640 Z"/>
<path id="shape_0074" fill="#F784A4" d="M 252 675 L 252 686 L 259 699 L 271 709 L 276 711 L 281 711 L 275 694 L 271 687 L 260 677 Z"/>
<path id="shape_0075" fill="#AB6EDB" d="M 372 912 L 371 917 L 366 922 L 360 925 L 352 927 L 340 927 L 336 924 L 336 918 L 338 915 L 347 910 L 356 908 L 366 908 Z"/>
<path id="shape_0076" fill="#F784A4" d="M 852 911 L 855 918 L 859 922 L 875 930 L 881 931 L 890 930 L 894 928 L 895 925 L 897 924 L 897 921 L 893 924 L 887 919 L 874 913 Z"/>
<path id="shape_0077" fill="#F784A4" d="M 288 724 L 293 735 L 302 744 L 310 748 L 318 750 L 325 750 L 330 748 L 325 742 L 312 732 L 296 727 L 291 724 Z"/>
<path id="shape_0078" fill="#E6ACDE" d="M 175 723 L 175 726 L 179 730 L 210 740 L 215 738 L 214 732 L 206 725 L 200 722 L 188 719 L 181 719 Z"/>
<path id="shape_0079" fill="#F784A4" d="M 908 927 L 913 932 L 925 936 L 943 935 L 954 929 L 953 927 L 945 923 L 935 921 L 924 922 Z"/>
<path id="shape_0080" fill="#E6ACDE" d="M 907 920 L 907 926 L 931 920 L 945 922 L 954 927 L 956 927 L 957 924 L 953 916 L 950 914 L 938 911 L 928 911 L 918 913 L 911 916 Z"/>
<path id="shape_0081" fill="#302D34" d="M 398 580 L 390 588 L 386 596 L 385 623 L 387 631 L 392 641 L 405 655 L 417 663 L 427 664 L 416 658 L 411 653 L 409 653 L 397 641 L 393 635 L 390 625 L 390 599 L 393 591 L 402 583 L 402 581 Z"/>
<path id="shape_0082" fill="#F784A4" d="M 1057 878 L 1043 880 L 1038 882 L 1030 889 L 1025 896 L 1021 897 L 1021 899 L 1023 901 L 1030 902 L 1039 900 L 1047 896 L 1054 889 L 1057 883 Z"/>
<path id="shape_0083" fill="#E6ACDE" d="M 1013 906 L 1008 900 L 1003 898 L 985 899 L 976 903 L 968 910 L 966 915 L 966 921 L 969 920 L 977 913 L 986 909 L 1013 908 Z"/>
<path id="shape_0084" fill="#F784A4" d="M 465 942 L 455 943 L 452 945 L 447 945 L 442 948 L 439 948 L 424 957 L 423 960 L 431 963 L 447 960 L 455 956 L 463 948 Z"/>
<path id="shape_0085" fill="#F784A4" d="M 807 883 L 807 891 L 812 900 L 824 907 L 836 910 L 842 910 L 840 904 L 833 896 Z"/>
<path id="shape_0086" fill="#F784A4" d="M 362 968 L 367 973 L 372 975 L 386 975 L 400 970 L 406 965 L 406 963 L 394 961 L 382 961 L 367 966 L 363 966 Z"/>
<path id="shape_0087" fill="#AB6EDB" d="M 334 675 L 337 671 L 351 672 L 358 675 L 363 680 L 363 686 L 359 690 L 351 690 L 343 688 L 334 681 Z"/>
<path id="shape_0088" fill="#E6ACDE" d="M 205 517 L 205 520 L 223 528 L 241 533 L 246 530 L 241 522 L 229 516 L 208 515 Z"/>
<path id="shape_0089" fill="#E6ACDE" d="M 196 819 L 200 823 L 214 830 L 220 836 L 225 846 L 226 855 L 230 855 L 234 850 L 233 840 L 228 831 L 223 826 L 213 820 Z"/>
<path id="shape_0090" fill="#E6ACDE" d="M 290 721 L 290 723 L 296 726 L 312 731 L 330 746 L 332 745 L 332 738 L 328 731 L 316 722 L 307 719 L 295 719 Z"/>
<path id="shape_0091" fill="#E6ACDE" d="M 877 817 L 878 821 L 881 824 L 892 831 L 905 835 L 912 835 L 914 833 L 914 830 L 909 825 L 898 819 L 881 814 Z"/>
<path id="shape_0092" fill="#E6ACDE" d="M 371 913 L 368 910 L 363 909 L 349 911 L 340 915 L 337 920 L 337 923 L 342 926 L 355 925 L 365 921 L 370 916 Z"/>
<path id="shape_0093" fill="#E6ACDE" d="M 361 964 L 367 965 L 382 960 L 394 960 L 407 962 L 407 959 L 404 955 L 395 951 L 380 951 L 370 954 L 362 960 Z"/>
<path id="shape_0094" fill="#F784A4" d="M 339 885 L 329 881 L 313 882 L 306 885 L 301 890 L 300 895 L 303 900 L 321 892 L 337 887 Z"/>
<path id="shape_0095" fill="#F784A4" d="M 1117 795 L 1115 795 L 1101 804 L 1093 819 L 1090 822 L 1090 824 L 1096 825 L 1101 823 L 1113 813 L 1117 802 Z"/>
<path id="shape_0096" fill="#F784A4" d="M 1088 835 L 1083 837 L 1075 843 L 1070 851 L 1067 860 L 1062 866 L 1069 867 L 1080 860 L 1087 849 Z"/>
<path id="shape_0097" fill="#E6ACDE" d="M 808 881 L 810 884 L 833 895 L 839 901 L 844 910 L 847 908 L 843 894 L 833 884 L 822 879 L 812 879 Z"/>
<path id="shape_0098" fill="#E6ACDE" d="M 1058 874 L 1052 870 L 1042 870 L 1032 874 L 1022 884 L 1020 890 L 1020 896 L 1025 895 L 1029 889 L 1038 881 L 1043 879 L 1057 877 Z"/>
<path id="shape_0099" fill="#E6ACDE" d="M 968 752 L 963 750 L 949 750 L 933 758 L 928 764 L 926 770 L 929 770 L 950 759 L 972 758 Z"/>
<path id="shape_0100" fill="#F784A4" d="M 1048 667 L 1046 667 L 1035 679 L 1027 704 L 1030 704 L 1033 702 L 1043 691 L 1049 676 Z"/>
<path id="shape_0101" fill="#E6ACDE" d="M 462 937 L 456 935 L 450 935 L 438 938 L 430 942 L 424 947 L 421 952 L 421 957 L 425 956 L 434 949 L 455 942 L 465 941 Z"/>
<path id="shape_0102" fill="#E6ACDE" d="M 1019 714 L 1005 713 L 994 719 L 986 728 L 982 737 L 983 745 L 984 746 L 986 745 L 991 735 L 998 726 L 1009 719 L 1019 716 Z"/>
<path id="shape_0103" fill="#E6ACDE" d="M 207 573 L 208 576 L 218 582 L 224 588 L 227 594 L 230 609 L 232 612 L 237 607 L 237 598 L 232 586 L 224 578 L 213 573 Z"/>
<path id="shape_0104" fill="#F784A4" d="M 507 911 L 503 915 L 501 915 L 499 918 L 496 919 L 494 922 L 491 923 L 480 935 L 478 935 L 475 938 L 478 940 L 485 940 L 500 932 L 503 929 Z"/>
<path id="shape_0105" fill="#5B357E" d="M 967 623 L 964 622 L 953 640 L 945 648 L 935 655 L 918 661 L 903 662 L 891 660 L 889 663 L 904 666 L 917 665 L 937 658 L 953 645 L 964 630 Z"/>
<path id="shape_0106" fill="#E6ACDE" d="M 255 672 L 254 674 L 263 678 L 272 687 L 276 694 L 281 709 L 283 709 L 286 703 L 286 698 L 284 691 L 280 684 L 273 677 L 266 673 Z"/>
<path id="shape_0107" fill="#E6ACDE" d="M 852 908 L 853 910 L 877 913 L 892 922 L 894 922 L 896 918 L 895 915 L 886 908 L 874 904 L 860 904 Z"/>
<path id="shape_0108" fill="#E6ACDE" d="M 172 777 L 174 780 L 186 785 L 193 791 L 197 798 L 200 810 L 202 810 L 205 805 L 205 797 L 199 786 L 195 782 L 186 777 L 181 776 Z"/>
<path id="shape_0109" fill="#E6ACDE" d="M 335 676 L 335 680 L 340 685 L 348 688 L 357 689 L 362 684 L 362 681 L 357 676 L 349 673 L 338 672 Z"/>
<path id="shape_0110" fill="#9B445F" d="M 820 907 L 823 911 L 828 913 L 844 914 L 856 927 L 864 932 L 873 935 L 888 936 L 897 932 L 896 929 L 889 932 L 877 932 L 870 930 L 856 921 L 852 916 L 850 909 L 848 909 L 845 912 L 832 911 Z"/>
<path id="shape_0111" fill="#AB6EDB" d="M 780 964 L 785 964 L 790 966 L 799 974 L 801 979 L 797 985 L 787 982 L 779 975 L 777 971 L 777 967 Z"/>
<path id="shape_0112" fill="#E6ACDE" d="M 1046 664 L 1040 664 L 1036 666 L 1028 674 L 1025 679 L 1022 688 L 1022 698 L 1025 703 L 1028 700 L 1034 679 L 1046 666 Z"/>
<path id="shape_0113" fill="#F784A4" d="M 1085 576 L 1083 576 L 1072 587 L 1063 605 L 1071 604 L 1081 596 L 1084 591 L 1087 581 Z"/>
<path id="shape_0114" fill="#E6ACDE" d="M 1086 832 L 1084 831 L 1076 832 L 1065 840 L 1060 850 L 1059 857 L 1061 864 L 1066 860 L 1069 851 L 1074 843 L 1087 834 Z"/>
<path id="shape_0115" fill="#E6ACDE" d="M 235 623 L 235 625 L 245 635 L 248 640 L 251 650 L 252 663 L 257 659 L 258 656 L 258 645 L 256 639 L 251 630 L 247 626 L 241 623 Z"/>
<path id="shape_0116" fill="#E6ACDE" d="M 505 909 L 496 909 L 486 914 L 477 923 L 474 929 L 474 935 L 477 935 L 483 931 L 491 922 L 505 911 Z"/>
<path id="shape_0117" fill="#E6ACDE" d="M 1116 793 L 1113 792 L 1103 793 L 1097 796 L 1091 802 L 1087 810 L 1088 822 L 1092 819 L 1100 804 Z"/>
<path id="shape_0118" fill="#9B445F" d="M 187 822 L 186 831 L 189 840 L 200 853 L 216 861 L 224 861 L 227 858 L 229 858 L 229 857 L 219 858 L 209 854 L 202 849 L 197 844 L 192 836 L 190 828 L 191 822 L 190 821 Z"/>
<path id="shape_0119" fill="#9B445F" d="M 356 968 L 359 974 L 363 977 L 376 981 L 394 979 L 401 976 L 406 972 L 406 969 L 403 969 L 392 975 L 383 977 L 375 977 L 366 974 L 359 965 Z"/>
<path id="shape_0120" fill="#E6ACDE" d="M 778 968 L 780 974 L 788 981 L 793 983 L 797 983 L 799 981 L 798 975 L 792 969 L 783 965 L 781 965 Z"/>
<path id="shape_0121" fill="#E6ACDE" d="M 1082 574 L 1075 575 L 1064 583 L 1060 591 L 1061 603 L 1063 603 L 1069 590 L 1082 576 Z"/>
<path id="shape_0122" fill="#9B445F" d="M 1015 909 L 1013 910 L 1009 918 L 998 926 L 987 929 L 979 929 L 968 925 L 968 929 L 978 933 L 990 933 L 999 930 L 1007 925 L 1016 915 Z"/>
<path id="shape_0123" fill="#9B445F" d="M 976 762 L 973 760 L 971 765 L 966 771 L 954 778 L 935 779 L 928 776 L 928 779 L 937 783 L 950 783 L 957 781 L 967 775 L 972 770 Z"/>
<path id="shape_0124" fill="#9B445F" d="M 1024 716 L 1021 717 L 1020 726 L 1013 738 L 1004 746 L 994 750 L 989 750 L 989 753 L 1000 752 L 1008 748 L 1016 741 L 1021 734 L 1024 726 Z"/>
<path id="shape_0125" fill="#9B445F" d="M 1062 877 L 1059 875 L 1058 884 L 1055 890 L 1049 896 L 1038 902 L 1025 903 L 1025 906 L 1036 907 L 1050 900 L 1061 887 L 1063 882 Z"/>
<path id="shape_0126" fill="#5D375D" d="M 504 931 L 494 938 L 485 942 L 479 942 L 475 940 L 468 942 L 463 951 L 454 959 L 465 954 L 474 944 L 489 944 L 503 937 Z"/>
<path id="shape_0127" fill="#9B445F" d="M 248 674 L 247 676 L 248 690 L 255 703 L 264 711 L 270 714 L 276 714 L 276 712 L 270 710 L 263 705 L 256 697 L 251 688 L 250 675 Z"/>
<path id="shape_0128" fill="#9B445F" d="M 200 576 L 198 581 L 198 589 L 203 601 L 212 611 L 221 616 L 224 616 L 224 613 L 214 608 L 207 600 L 202 587 L 203 576 Z"/>
<path id="shape_0129" fill="#9B445F" d="M 284 727 L 287 736 L 297 747 L 308 753 L 324 754 L 324 752 L 322 751 L 311 750 L 301 745 L 292 736 L 287 726 Z"/>
<path id="shape_0130" fill="#9B445F" d="M 227 624 L 223 633 L 223 639 L 226 650 L 235 662 L 243 666 L 245 665 L 245 663 L 240 661 L 230 649 L 227 638 L 228 624 Z"/>
<path id="shape_0131" fill="#9B445F" d="M 1051 664 L 1048 664 L 1050 668 L 1050 679 L 1047 687 L 1042 695 L 1031 705 L 1032 707 L 1038 705 L 1046 697 L 1050 690 L 1053 680 L 1053 671 Z"/>
<path id="shape_0132" fill="#9B445F" d="M 1093 833 L 1090 833 L 1090 843 L 1086 854 L 1076 865 L 1071 868 L 1072 871 L 1080 867 L 1088 859 L 1093 847 Z"/>
<path id="shape_0133" fill="#9B445F" d="M 1122 795 L 1119 796 L 1118 805 L 1113 815 L 1104 823 L 1096 826 L 1097 829 L 1107 825 L 1117 816 L 1122 806 Z"/>
<path id="shape_0134" fill="#9B445F" d="M 164 779 L 163 780 L 163 793 L 167 802 L 179 813 L 181 813 L 182 811 L 189 813 L 179 808 L 171 801 L 167 794 L 166 789 L 167 779 Z"/>
<path id="shape_0135" fill="#9B445F" d="M 1090 579 L 1088 579 L 1087 587 L 1082 597 L 1074 604 L 1066 606 L 1067 608 L 1072 609 L 1076 607 L 1086 598 L 1090 589 L 1091 584 Z"/>
<path id="shape_0136" fill="#8B3B5E" d="M 905 933 L 914 938 L 926 941 L 941 940 L 954 935 L 954 934 L 949 934 L 943 937 L 926 938 L 917 936 L 912 933 Z"/>
<path id="shape_0137" fill="#302D34" d="M 875 602 L 845 617 L 856 617 L 869 610 L 874 605 Z"/>
<path id="shape_0138" fill="#302D34" d="M 412 590 L 412 596 L 421 604 L 435 605 Z"/>
<path id="shape_0139" fill="#5B357E" d="M 277 886 L 278 888 L 295 896 L 300 900 L 298 894 L 281 885 Z"/>
<path id="shape_0140" fill="#5B357E" d="M 421 960 L 417 960 L 409 963 L 407 966 L 407 970 L 413 966 L 420 965 Z"/>
<path id="shape_0141" fill="#5D375D" d="M 1023 902 L 1020 902 L 1016 905 L 1015 907 L 1016 913 L 1024 905 Z"/>
<path id="shape_0142" fill="#5B357E" d="M 278 713 L 278 716 L 285 725 L 287 722 L 284 716 L 281 713 Z"/>
<path id="shape_0143" fill="#5D375D" d="M 967 926 L 959 927 L 953 933 L 958 933 L 964 929 L 967 929 Z"/>
<path id="shape_0144" fill="#5D375D" d="M 225 613 L 225 618 L 227 622 L 230 624 L 232 622 L 232 619 L 229 614 Z"/>
<path id="shape_0145" fill="#5D375D" d="M 422 962 L 422 966 L 426 967 L 434 967 L 439 965 L 439 964 L 427 964 Z"/>
<path id="shape_0146" fill="#5B357E" d="M 1051 650 L 1047 650 L 1046 657 L 1047 663 L 1049 662 Z"/>
<path id="shape_0147" fill="#5B357E" d="M 987 750 L 983 750 L 975 757 L 975 759 L 977 760 L 983 754 L 987 753 Z"/>
<path id="shape_0148" fill="#E05C7A" d="M 805 893 L 807 899 L 811 904 L 819 909 L 817 905 Z"/>
<path id="shape_0149" fill="#8B3B5E" d="M 459 958 L 437 966 L 437 967 L 451 964 Z"/>
<path id="shape_0150" fill="#5D375D" d="M 1087 827 L 1088 832 L 1091 832 L 1095 829 L 1095 827 L 1089 825 Z"/>
<path id="shape_0151" fill="#5B357E" d="M 246 665 L 245 667 L 251 673 L 253 671 L 251 665 Z"/>
<path id="shape_0152" fill="#5D375D" d="M 1061 875 L 1063 876 L 1066 872 L 1069 872 L 1071 870 L 1063 869 L 1061 872 Z"/>
<path id="shape_0153" fill="#7643A7" d="M 622 927 L 623 929 L 614 937 L 613 935 Z"/>
<path id="shape_0154" fill="#5D375D" d="M 898 928 L 898 931 L 909 932 L 907 929 Z"/>
<path id="shape_0155" fill="#5B357E" d="M 1029 706 L 1026 706 L 1022 710 L 1021 715 L 1026 709 L 1029 708 Z"/>
<path id="shape_0156" fill="#5D375D" d="M 188 816 L 189 820 L 191 821 L 195 818 L 193 816 Z"/>
<path id="shape_0157" fill="#7643A7" d="M 657 918 L 659 919 L 660 922 L 659 925 L 657 924 L 656 921 Z"/>
<path id="shape_0158" fill="#7643A7" d="M 637 902 L 638 904 L 636 908 L 634 909 L 633 907 L 635 903 Z"/>
</g></svg>