<svg xmlns="http://www.w3.org/2000/svg" viewBox="0 0 1024 1024" width="1024" height="1024" preserveAspectRatio="xMidYMid meet">
<defs>
<radialGradient id="bg" cx="50%" cy="42%" r="70%"><stop offset="0" stop-color="#f8fbff"/><stop offset="1" stop-color="#eaf2f7"/></radialGradient>
<linearGradient id="body_grad" x1="0" y1="0" x2="0" y2="1"><stop offset="0" stop-color="#ab74d8"/><stop offset="1" stop-color="#915bc7"/></linearGradient>
<linearGradient id="limb_grad" x1="0" y1="0" x2="0" y2="1"><stop offset="0" stop-color="#b77ae2"/><stop offset="1" stop-color="#8d55c6"/></linearGradient>
</defs>
<rect id="bg_layer" width="1024" height="1024" fill="url(#bg)"/>
<g id="character_octopus" data-rig="character">
<defs><clipPath id="clip_tentacle_01"><path d="M 356.00 514.00 L 347.27 514.87 L 338.70 516.03 L 330.29 517.44 L 322.05 519.08 L 313.96 520.94 L 306.03 523.00 L 298.27 525.22 L 290.66 527.61 L 283.22 530.13 L 275.93 532.77 L 268.79 535.52 L 261.81 538.36 L 254.98 541.27 L 248.30 544.23 L 241.78 547.24 L 235.41 550.28 L 229.19 553.33 L 223.12 556.38 L 217.21 559.42 L 211.45 562.44 L 205.85 565.41 L 200.41 568.33 L 195.13 571.18 L 190.01 573.95 L 185.06 576.63 L 180.29 579.20 L 175.69 581.66 L 171.27 583.99 L 167.04 586.18 L 163.01 588.21 L 159.18 590.09 L 155.57 591.79 L 152.17 593.32 L 149.01 594.67 L 146.09 595.84 L 143.41 596.82 L 140.99 597.64 L 138.82 598.30 L 136.89 598.82 L 135.16 599.21 L 133.59 599.49 L 132.11 599.63 L 130.64 599.62 L 129.11 599.37 L 110.89 620.63 L 114.32 624.14 L 118.17 627.22 L 122.37 629.84 L 126.83 631.98 L 131.48 633.67 L 136.26 634.94 L 141.13 635.82 L 146.08 636.37 L 151.09 636.62 L 156.16 636.61 L 161.30 636.37 L 166.49 635.92 L 171.76 635.28 L 177.10 634.48 L 182.50 633.54 L 187.98 632.46 L 193.54 631.28 L 199.16 629.99 L 204.86 628.63 L 210.62 627.19 L 216.45 625.70 L 222.34 624.17 L 228.29 622.62 L 234.30 621.05 L 240.35 619.48 L 246.45 617.93 L 252.59 616.40 L 258.76 614.92 L 264.95 613.49 L 271.17 612.12 L 277.40 610.83 L 283.63 609.64 L 289.87 608.54 L 296.09 607.56 L 302.29 606.70 L 308.47 605.97 L 314.61 605.39 L 320.71 604.97 L 326.76 604.70 L 332.76 604.60 L 338.68 604.67 L 344.53 604.93 L 350.31 605.37 L 356.00 606.00 Z"/></clipPath></defs>
<g id="tentacle_01" data-rig="limb" data-pivot-x="356" data-pivot-y="560">
<path id="tentacle_01_fill" d="M 356.00 514.00 L 347.27 514.87 L 338.70 516.03 L 330.29 517.44 L 322.05 519.08 L 313.96 520.94 L 306.03 523.00 L 298.27 525.22 L 290.66 527.61 L 283.22 530.13 L 275.93 532.77 L 268.79 535.52 L 261.81 538.36 L 254.98 541.27 L 248.30 544.23 L 241.78 547.24 L 235.41 550.28 L 229.19 553.33 L 223.12 556.38 L 217.21 559.42 L 211.45 562.44 L 205.85 565.41 L 200.41 568.33 L 195.13 571.18 L 190.01 573.95 L 185.06 576.63 L 180.29 579.20 L 175.69 581.66 L 171.27 583.99 L 167.04 586.18 L 163.01 588.21 L 159.18 590.09 L 155.57 591.79 L 152.17 593.32 L 149.01 594.67 L 146.09 595.84 L 143.41 596.82 L 140.99 597.64 L 138.82 598.30 L 136.89 598.82 L 135.16 599.21 L 133.59 599.49 L 132.11 599.63 L 130.64 599.62 L 129.11 599.37 L 110.89 620.63 L 114.32 624.14 L 118.17 627.22 L 122.37 629.84 L 126.83 631.98 L 131.48 633.67 L 136.26 634.94 L 141.13 635.82 L 146.08 636.37 L 151.09 636.62 L 156.16 636.61 L 161.30 636.37 L 166.49 635.92 L 171.76 635.28 L 177.10 634.48 L 182.50 633.54 L 187.98 632.46 L 193.54 631.28 L 199.16 629.99 L 204.86 628.63 L 210.62 627.19 L 216.45 625.70 L 222.34 624.17 L 228.29 622.62 L 234.30 621.05 L 240.35 619.48 L 246.45 617.93 L 252.59 616.40 L 258.76 614.92 L 264.95 613.49 L 271.17 612.12 L 277.40 610.83 L 283.63 609.64 L 289.87 608.54 L 296.09 607.56 L 302.29 606.70 L 308.47 605.97 L 314.61 605.39 L 320.71 604.97 L 326.76 604.70 L 332.76 604.60 L 338.68 604.67 L 344.53 604.93 L 350.31 605.37 L 356.00 606.00 Z" fill="url(#limb_grad)" stroke="#7643a8" stroke-width="6"/>
<path id="tentacle_01_shadow" d="M 356.00 514.00 L 347.27 514.87 L 338.70 516.03 L 330.29 517.44 L 322.05 519.08 L 313.96 520.94 L 306.03 523.00 L 298.27 525.22 L 290.66 527.61 L 283.22 530.13 L 275.93 532.77 L 268.79 535.52 L 261.81 538.36 L 254.98 541.27 L 248.30 544.23 L 241.78 547.24 L 235.41 550.28 L 229.19 553.33 L 223.12 556.38 L 217.21 559.42 L 211.45 562.44 L 205.85 565.41 L 200.41 568.33 L 195.13 571.18 L 190.01 573.95 L 185.06 576.63 L 180.29 579.20 L 175.69 581.66 L 171.27 583.99 L 167.04 586.18 L 163.01 588.21 L 159.18 590.09 L 155.57 591.79 L 152.17 593.32 L 149.01 594.67 L 146.09 595.84 L 143.41 596.82 L 140.99 597.64 L 138.82 598.30 L 136.89 598.82 L 135.16 599.21 L 133.59 599.49 L 132.11 599.63 L 130.64 599.62 L 129.11 599.37 L 110.89 620.63 L 114.32 624.14 L 118.17 627.22 L 122.37 629.84 L 126.83 631.98 L 131.48 633.67 L 136.26 634.94 L 141.13 635.82 L 146.08 636.37 L 151.09 636.62 L 156.16 636.61 L 161.30 636.37 L 166.49 635.92 L 171.76 635.28 L 177.10 634.48 L 182.50 633.54 L 187.98 632.46 L 193.54 631.28 L 199.16 629.99 L 204.86 628.63 L 210.62 627.19 L 216.45 625.70 L 222.34 624.17 L 228.29 622.62 L 234.30 621.05 L 240.35 619.48 L 246.45 617.93 L 252.59 616.40 L 258.76 614.92 L 264.95 613.49 L 271.17 612.12 L 277.40 610.83 L 283.63 609.64 L 289.87 608.54 L 296.09 607.56 L 302.29 606.70 L 308.47 605.97 L 314.61 605.39 L 320.71 604.97 L 326.76 604.70 L 332.76 604.60 L 338.68 604.67 L 344.53 604.93 L 350.31 605.37 L 356.00 606.00 Z" fill="#4e2b73" opacity="0.16" clip-path="url(#clip_tentacle_01)"/>
<path id="tentacle_01_highlight" d="M 356.0,560.0 L348.8,560.1 L341.6,560.5 L334.5,561.1 L327.4,561.8 L320.4,562.8 L313.4,564.0 L306.4,565.3 L299.6,566.8 L292.8,568.4 L286.0,570.2 L279.3,572.0 L272.7,574.0 L266.2,576.1 L259.7,578.2 L253.4,580.4 L247.1,582.6 L240.9,584.9 L234.8,587.2 L228.8,589.5 L222.9,591.7 L217.1,594.0 L211.4,596.2 L205.8,598.4 L200.3,600.6 L195.0,602.6 L189.7,604.6 L184.6,606.5 L179.6,608.2 L174.8,609.9 L170.1,611.3 L165.5,612.7 L161.0,613.9 L156.7,614.8 L152.6,615.6 L148.6,616.2 L144.7,616.6 L141.1,616.7 L137.5,616.6 L134.2,616.2 L131.0,615.6 L128.0,614.7 L125.1,613.4 L122.5,611.9 L120.0,610.0" fill="none" stroke="#d7b9f1" stroke-opacity="0.7" stroke-width="8" stroke-linecap="round" clip-path="url(#clip_tentacle_01)"/>
<g id="tentacle_01_suckers" data-rig="details" clip-path="url(#clip_tentacle_01)">
</g>
</g>
<defs><clipPath id="clip_tentacle_02"><path d="M 405.10 542.60 L 397.40 546.22 L 389.82 550.03 L 382.35 554.00 L 374.97 558.13 L 367.69 562.39 L 360.50 566.76 L 353.39 571.24 L 346.35 575.80 L 339.39 580.43 L 332.50 585.11 L 325.69 589.84 L 318.94 594.59 L 312.27 599.35 L 305.66 604.11 L 299.13 608.85 L 292.68 613.56 L 286.30 618.22 L 280.00 622.81 L 273.79 627.33 L 267.66 631.76 L 261.62 636.09 L 255.67 640.29 L 249.82 644.35 L 244.08 648.27 L 238.44 652.02 L 232.92 655.60 L 227.52 658.98 L 222.25 662.16 L 217.11 665.12 L 212.12 667.85 L 207.27 670.34 L 202.58 672.58 L 198.06 674.56 L 193.70 676.28 L 189.52 677.73 L 185.51 678.92 L 181.67 679.84 L 177.99 680.49 L 174.46 680.88 L 171.04 681.00 L 167.69 680.83 L 164.39 680.36 L 161.09 679.55 L 157.77 678.35 L 142.23 701.65 L 147.24 705.44 L 152.58 708.73 L 158.21 711.49 L 164.08 713.72 L 170.15 715.43 L 176.37 716.64 L 182.71 717.37 L 189.14 717.66 L 195.64 717.54 L 202.20 717.04 L 208.82 716.19 L 215.48 715.02 L 222.18 713.56 L 228.93 711.83 L 235.72 709.85 L 242.56 707.65 L 249.43 705.24 L 256.34 702.64 L 263.29 699.87 L 270.27 696.94 L 277.29 693.89 L 284.33 690.71 L 291.40 687.44 L 298.49 684.08 L 305.60 680.66 L 312.72 677.18 L 319.85 673.68 L 326.98 670.16 L 334.10 666.64 L 341.22 663.14 L 348.32 659.67 L 355.40 656.26 L 362.44 652.91 L 369.44 649.65 L 376.40 646.50 L 383.30 643.46 L 390.12 640.56 L 396.87 637.81 L 403.53 635.23 L 410.07 632.84 L 416.50 630.65 L 422.80 628.67 L 428.94 626.91 L 434.90 625.40 Z"/></clipPath></defs>
<g id="tentacle_02" data-rig="limb" data-pivot-x="420" data-pivot-y="584">
<path id="tentacle_02_fill" d="M 405.10 542.60 L 397.40 546.22 L 389.82 550.03 L 382.35 554.00 L 374.97 558.13 L 367.69 562.39 L 360.50 566.76 L 353.39 571.24 L 346.35 575.80 L 339.39 580.43 L 332.50 585.11 L 325.69 589.84 L 318.94 594.59 L 312.27 599.35 L 305.66 604.11 L 299.13 608.85 L 292.68 613.56 L 286.30 618.22 L 280.00 622.81 L 273.79 627.33 L 267.66 631.76 L 261.62 636.09 L 255.67 640.29 L 249.82 644.35 L 244.08 648.27 L 238.44 652.02 L 232.92 655.60 L 227.52 658.98 L 222.25 662.16 L 217.11 665.12 L 212.12 667.85 L 207.27 670.34 L 202.58 672.58 L 198.06 674.56 L 193.70 676.28 L 189.52 677.73 L 185.51 678.92 L 181.67 679.84 L 177.99 680.49 L 174.46 680.88 L 171.04 681.00 L 167.69 680.83 L 164.39 680.36 L 161.09 679.55 L 157.77 678.35 L 142.23 701.65 L 147.24 705.44 L 152.58 708.73 L 158.21 711.49 L 164.08 713.72 L 170.15 715.43 L 176.37 716.64 L 182.71 717.37 L 189.14 717.66 L 195.64 717.54 L 202.20 717.04 L 208.82 716.19 L 215.48 715.02 L 222.18 713.56 L 228.93 711.83 L 235.72 709.85 L 242.56 707.65 L 249.43 705.24 L 256.34 702.64 L 263.29 699.87 L 270.27 696.94 L 277.29 693.89 L 284.33 690.71 L 291.40 687.44 L 298.49 684.08 L 305.60 680.66 L 312.72 677.18 L 319.85 673.68 L 326.98 670.16 L 334.10 666.64 L 341.22 663.14 L 348.32 659.67 L 355.40 656.26 L 362.44 652.91 L 369.44 649.65 L 376.40 646.50 L 383.30 643.46 L 390.12 640.56 L 396.87 637.81 L 403.53 635.23 L 410.07 632.84 L 416.50 630.65 L 422.80 628.67 L 428.94 626.91 L 434.90 625.40 Z" fill="url(#limb_grad)" stroke="#7643a8" stroke-width="6"/>
<path id="tentacle_02_shadow" d="M 405.10 542.60 L 397.40 546.22 L 389.82 550.03 L 382.35 554.00 L 374.97 558.13 L 367.69 562.39 L 360.50 566.76 L 353.39 571.24 L 346.35 575.80 L 339.39 580.43 L 332.50 585.11 L 325.69 589.84 L 318.94 594.59 L 312.27 599.35 L 305.66 604.11 L 299.13 608.85 L 292.68 613.56 L 286.30 618.22 L 280.00 622.81 L 273.79 627.33 L 267.66 631.76 L 261.62 636.09 L 255.67 640.29 L 249.82 644.35 L 244.08 648.27 L 238.44 652.02 L 232.92 655.60 L 227.52 658.98 L 222.25 662.16 L 217.11 665.12 L 212.12 667.85 L 207.27 670.34 L 202.58 672.58 L 198.06 674.56 L 193.70 676.28 L 189.52 677.73 L 185.51 678.92 L 181.67 679.84 L 177.99 680.49 L 174.46 680.88 L 171.04 681.00 L 167.69 680.83 L 164.39 680.36 L 161.09 679.55 L 157.77 678.35 L 142.23 701.65 L 147.24 705.44 L 152.58 708.73 L 158.21 711.49 L 164.08 713.72 L 170.15 715.43 L 176.37 716.64 L 182.71 717.37 L 189.14 717.66 L 195.64 717.54 L 202.20 717.04 L 208.82 716.19 L 215.48 715.02 L 222.18 713.56 L 228.93 711.83 L 235.72 709.85 L 242.56 707.65 L 249.43 705.24 L 256.34 702.64 L 263.29 699.87 L 270.27 696.94 L 277.29 693.89 L 284.33 690.71 L 291.40 687.44 L 298.49 684.08 L 305.60 680.66 L 312.72 677.18 L 319.85 673.68 L 326.98 670.16 L 334.10 666.64 L 341.22 663.14 L 348.32 659.67 L 355.40 656.26 L 362.44 652.91 L 369.44 649.65 L 376.40 646.50 L 383.30 643.46 L 390.12 640.56 L 396.87 637.81 L 403.53 635.23 L 410.07 632.84 L 416.50 630.65 L 422.80 628.67 L 428.94 626.91 L 434.90 625.40 Z" fill="#4e2b73" opacity="0.16" clip-path="url(#clip_tentacle_02)"/>
<path id="tentacle_02_highlight" d="M 420.0,584.0 L413.2,586.6 L406.3,589.3 L399.4,592.3 L392.5,595.5 L385.6,598.8 L378.7,602.3 L371.8,605.9 L364.8,609.6 L357.9,613.5 L351.0,617.4 L344.1,621.4 L337.2,625.4 L330.3,629.5 L323.4,633.6 L316.6,637.7 L309.8,641.9 L303.1,645.9 L296.4,650.0 L289.7,654.0 L283.1,657.9 L276.5,661.8 L270.0,665.5 L263.6,669.1 L257.2,672.6 L250.9,675.9 L244.6,679.1 L238.5,682.1 L232.4,684.9 L226.4,687.5 L220.5,689.8 L214.7,691.9 L209.0,693.8 L203.4,695.4 L198.0,696.7 L192.6,697.6 L187.3,698.3 L182.2,698.6 L177.2,698.6 L172.3,698.2 L167.6,697.4 L163.0,696.2 L158.5,694.5 L154.2,692.5 L150.0,690.0" fill="none" stroke="#d7b9f1" stroke-opacity="0.7" stroke-width="8" stroke-linecap="round" clip-path="url(#clip_tentacle_02)"/>
<g id="tentacle_02_suckers" data-rig="details" clip-path="url(#clip_tentacle_02)">
<ellipse id="tentacle_02_sucker_01" cx="324.07" cy="650.06" rx="12.00" ry="8.64" fill="#f5b3cd" stroke="#dc89ad" stroke-width="2"/>
<ellipse id="tentacle_02_sucker_02" cx="303.17" cy="661.31" rx="11.00" ry="7.92" fill="#f5b3cd" stroke="#dc89ad" stroke-width="2"/>
<ellipse id="tentacle_02_sucker_03" cx="282.53" cy="672.14" rx="10.00" ry="7.20" fill="#f5b3cd" stroke="#dc89ad" stroke-width="2"/>
<ellipse id="tentacle_02_sucker_04" cx="262.29" cy="682.12" rx="9.00" ry="6.48" fill="#f5b3cd" stroke="#dc89ad" stroke-width="2"/>
<ellipse id="tentacle_02_sucker_05" cx="242.59" cy="690.78" rx="8.00" ry="5.76" fill="#f5b3cd" stroke="#dc89ad" stroke-width="2"/>
<ellipse id="tentacle_02_sucker_06" cx="223.53" cy="697.69" rx="7.00" ry="5.04" fill="#f5b3cd" stroke="#dc89ad" stroke-width="2"/>
<ellipse id="tentacle_02_sucker_07" cx="205.24" cy="702.35" rx="6.00" ry="4.32" fill="#f5b3cd" stroke="#dc89ad" stroke-width="2"/>
<ellipse id="tentacle_02_sucker_08" cx="187.89" cy="704.26" rx="5.00" ry="3.60" fill="#f5b3cd" stroke="#dc89ad" stroke-width="2"/>
</g>
</g>
<defs><clipPath id="clip_tentacle_03"><path d="M 437.19 573.46 L 432.90 579.15 L 428.69 584.93 L 424.56 590.77 L 420.50 596.68 L 416.50 602.64 L 412.57 608.64 L 408.69 614.67 L 404.86 620.73 L 401.08 626.78 L 397.36 632.84 L 393.68 638.87 L 390.05 644.88 L 386.47 650.85 L 382.93 656.77 L 379.44 662.61 L 376.00 668.38 L 372.61 674.05 L 369.26 679.62 L 365.97 685.07 L 362.73 690.38 L 359.55 695.54 L 356.42 700.54 L 353.36 705.37 L 350.36 710.00 L 347.42 714.42 L 344.56 718.62 L 341.78 722.59 L 339.09 726.30 L 336.49 729.75 L 334.00 732.92 L 331.63 735.80 L 329.40 738.37 L 327.31 740.64 L 325.40 742.60 L 323.68 744.26 L 322.17 745.64 L 320.88 746.76 L 319.78 747.67 L 318.84 748.43 L 317.96 749.06 L 317.03 749.56 L 315.91 749.89 L 314.52 749.95 L 312.80 749.60 L 297.20 770.40 L 301.00 773.69 L 305.24 776.47 L 309.88 778.65 L 314.82 780.17 L 319.93 781.00 L 325.09 781.16 L 330.21 780.73 L 335.23 779.77 L 340.14 778.36 L 344.94 776.56 L 349.66 774.42 L 354.30 771.97 L 358.88 769.24 L 363.41 766.25 L 367.92 763.02 L 372.42 759.57 L 376.90 755.91 L 381.37 752.06 L 385.85 748.02 L 390.33 743.81 L 394.83 739.46 L 399.33 734.96 L 403.84 730.33 L 408.36 725.60 L 412.89 720.76 L 417.44 715.84 L 421.99 710.86 L 426.56 705.81 L 431.13 700.73 L 435.71 695.63 L 440.30 690.51 L 444.89 685.40 L 449.48 680.31 L 454.06 675.26 L 458.64 670.27 L 463.21 665.34 L 467.77 660.50 L 472.31 655.77 L 476.82 651.16 L 481.31 646.68 L 485.76 642.37 L 490.17 638.23 L 494.52 634.28 L 498.81 630.54 Z"/></clipPath></defs>
<g id="tentacle_03" data-rig="limb" data-pivot-x="468" data-pivot-y="602">
<path id="tentacle_03_fill" d="M 437.19 573.46 L 432.90 579.15 L 428.69 584.93 L 424.56 590.77 L 420.50 596.68 L 416.50 602.64 L 412.57 608.64 L 408.69 614.67 L 404.86 620.73 L 401.08 626.78 L 397.36 632.84 L 393.68 638.87 L 390.05 644.88 L 386.47 650.85 L 382.93 656.77 L 379.44 662.61 L 376.00 668.38 L 372.61 674.05 L 369.26 679.62 L 365.97 685.07 L 362.73 690.38 L 359.55 695.54 L 356.42 700.54 L 353.36 705.37 L 350.36 710.00 L 347.42 714.42 L 344.56 718.62 L 341.78 722.59 L 339.09 726.30 L 336.49 729.75 L 334.00 732.92 L 331.63 735.80 L 329.40 738.37 L 327.31 740.64 L 325.40 742.60 L 323.68 744.26 L 322.17 745.64 L 320.88 746.76 L 319.78 747.67 L 318.84 748.43 L 317.96 749.06 L 317.03 749.56 L 315.91 749.89 L 314.52 749.95 L 312.80 749.60 L 297.20 770.40 L 301.00 773.69 L 305.24 776.47 L 309.88 778.65 L 314.82 780.17 L 319.93 781.00 L 325.09 781.16 L 330.21 780.73 L 335.23 779.77 L 340.14 778.36 L 344.94 776.56 L 349.66 774.42 L 354.30 771.97 L 358.88 769.24 L 363.41 766.25 L 367.92 763.02 L 372.42 759.57 L 376.90 755.91 L 381.37 752.06 L 385.85 748.02 L 390.33 743.81 L 394.83 739.46 L 399.33 734.96 L 403.84 730.33 L 408.36 725.60 L 412.89 720.76 L 417.44 715.84 L 421.99 710.86 L 426.56 705.81 L 431.13 700.73 L 435.71 695.63 L 440.30 690.51 L 444.89 685.40 L 449.48 680.31 L 454.06 675.26 L 458.64 670.27 L 463.21 665.34 L 467.77 660.50 L 472.31 655.77 L 476.82 651.16 L 481.31 646.68 L 485.76 642.37 L 490.17 638.23 L 494.52 634.28 L 498.81 630.54 Z" fill="url(#limb_grad)" stroke="#7643a8" stroke-width="6"/>
<path id="tentacle_03_shadow" d="M 437.19 573.46 L 432.90 579.15 L 428.69 584.93 L 424.56 590.77 L 420.50 596.68 L 416.50 602.64 L 412.57 608.64 L 408.69 614.67 L 404.86 620.73 L 401.08 626.78 L 397.36 632.84 L 393.68 638.87 L 390.05 644.88 L 386.47 650.85 L 382.93 656.77 L 379.44 662.61 L 376.00 668.38 L 372.61 674.05 L 369.26 679.62 L 365.97 685.07 L 362.73 690.38 L 359.55 695.54 L 356.42 700.54 L 353.36 705.37 L 350.36 710.00 L 347.42 714.42 L 344.56 718.62 L 341.78 722.59 L 339.09 726.30 L 336.49 729.75 L 334.00 732.92 L 331.63 735.80 L 329.40 738.37 L 327.31 740.64 L 325.40 742.60 L 323.68 744.26 L 322.17 745.64 L 320.88 746.76 L 319.78 747.67 L 318.84 748.43 L 317.96 749.06 L 317.03 749.56 L 315.91 749.89 L 314.52 749.95 L 312.80 749.60 L 297.20 770.40 L 301.00 773.69 L 305.24 776.47 L 309.88 778.65 L 314.82 780.17 L 319.93 781.00 L 325.09 781.16 L 330.21 780.73 L 335.23 779.77 L 340.14 778.36 L 344.94 776.56 L 349.66 774.42 L 354.30 771.97 L 358.88 769.24 L 363.41 766.25 L 367.92 763.02 L 372.42 759.57 L 376.90 755.91 L 381.37 752.06 L 385.85 748.02 L 390.33 743.81 L 394.83 739.46 L 399.33 734.96 L 403.84 730.33 L 408.36 725.60 L 412.89 720.76 L 417.44 715.84 L 421.99 710.86 L 426.56 705.81 L 431.13 700.73 L 435.71 695.63 L 440.30 690.51 L 444.89 685.40 L 449.48 680.31 L 454.06 675.26 L 458.64 670.27 L 463.21 665.34 L 467.77 660.50 L 472.31 655.77 L 476.82 651.16 L 481.31 646.68 L 485.76 642.37 L 490.17 638.23 L 494.52 634.28 L 498.81 630.54 Z" fill="#4e2b73" opacity="0.16" clip-path="url(#clip_tentacle_03)"/>
<path id="tentacle_03_highlight" d="M 468.0,602.0 L463.7,606.7 L459.4,611.6 L455.2,616.6 L450.9,621.7 L446.7,626.9 L442.4,632.2 L438.2,637.6 L434.0,643.0 L429.9,648.5 L425.7,654.1 L421.6,659.6 L417.5,665.1 L413.4,670.7 L409.3,676.2 L405.3,681.7 L401.3,687.1 L397.3,692.5 L393.4,697.7 L389.4,702.9 L385.5,708.0 L381.7,712.9 L377.9,717.8 L374.1,722.4 L370.3,726.9 L366.6,731.2 L363.0,735.3 L359.3,739.2 L355.8,742.9 L352.2,746.4 L348.7,749.6 L345.3,752.5 L341.8,755.2 L338.5,757.5 L335.2,759.6 L331.9,761.3 L328.7,762.7 L325.5,763.7 L322.4,764.4 L319.4,764.7 L316.4,764.6 L313.5,764.1 L310.6,763.2 L307.8,761.8 L305.0,760.0" fill="none" stroke="#d7b9f1" stroke-opacity="0.7" stroke-width="8" stroke-linecap="round" clip-path="url(#clip_tentacle_03)"/>
<g id="tentacle_03_suckers" data-rig="details" clip-path="url(#clip_tentacle_03)">
<ellipse id="tentacle_03_sucker_01" cx="416.88" cy="690.22" rx="12.00" ry="8.64" fill="#f5b3cd" stroke="#dc89ad" stroke-width="2"/>
<ellipse id="tentacle_03_sucker_02" cx="403.90" cy="705.67" rx="11.00" ry="7.92" fill="#f5b3cd" stroke="#dc89ad" stroke-width="2"/>
<ellipse id="tentacle_03_sucker_03" cx="391.13" cy="720.35" rx="10.00" ry="7.20" fill="#f5b3cd" stroke="#dc89ad" stroke-width="2"/>
<ellipse id="tentacle_03_sucker_04" cx="378.59" cy="733.88" rx="9.00" ry="6.48" fill="#f5b3cd" stroke="#dc89ad" stroke-width="2"/>
<ellipse id="tentacle_03_sucker_05" cx="366.30" cy="745.86" rx="8.00" ry="5.76" fill="#f5b3cd" stroke="#dc89ad" stroke-width="2"/>
<ellipse id="tentacle_03_sucker_06" cx="354.27" cy="755.88" rx="7.00" ry="5.04" fill="#f5b3cd" stroke="#dc89ad" stroke-width="2"/>
<ellipse id="tentacle_03_sucker_07" cx="342.46" cy="763.54" rx="6.00" ry="4.32" fill="#f5b3cd" stroke="#dc89ad" stroke-width="2"/>
<ellipse id="tentacle_03_sucker_08" cx="330.84" cy="768.31" rx="5.00" ry="3.60" fill="#f5b3cd" stroke="#dc89ad" stroke-width="2"/>
</g>
</g>
<defs><clipPath id="clip_tentacle_04"><path d="M 486.00 610.00 L 486.62 615.62 L 487.16 621.38 L 487.63 627.26 L 488.01 633.24 L 488.33 639.30 L 488.56 645.43 L 488.73 651.61 L 488.82 657.81 L 488.85 664.03 L 488.81 670.25 L 488.70 676.45 L 488.53 682.61 L 488.29 688.72 L 488.00 694.76 L 487.65 700.72 L 487.24 706.57 L 486.78 712.31 L 486.28 717.92 L 485.72 723.37 L 485.13 728.66 L 484.49 733.77 L 483.81 738.67 L 483.11 743.36 L 482.38 747.80 L 481.63 751.99 L 480.87 755.90 L 480.11 759.51 L 479.36 762.80 L 478.65 765.75 L 477.99 768.31 L 477.42 770.48 L 476.99 772.23 L 476.76 773.54 L 476.82 774.41 L 477.28 774.90 L 478.22 775.13 L 479.64 775.32 L 481.35 775.73 L 482.91 776.48 L 483.87 777.43 L 484.02 778.23 L 483.37 778.56 L 482.11 778.24 L 480.40 777.20 L 459.60 792.80 L 461.97 796.71 L 464.78 800.34 L 468.19 803.66 L 472.35 806.51 L 477.32 808.59 L 482.84 809.60 L 488.48 809.42 L 493.80 808.19 L 498.59 806.19 L 502.86 803.69 L 506.68 800.84 L 510.15 797.70 L 513.37 794.32 L 516.39 790.71 L 519.26 786.86 L 522.00 782.79 L 524.64 778.50 L 527.20 773.98 L 529.67 769.25 L 532.07 764.31 L 534.41 759.16 L 536.69 753.83 L 538.90 748.31 L 541.05 742.61 L 543.14 736.76 L 545.17 730.75 L 547.14 724.60 L 549.04 718.33 L 550.89 711.93 L 552.67 705.43 L 554.38 698.84 L 556.03 692.17 L 557.62 685.43 L 559.13 678.63 L 560.57 671.78 L 561.94 664.91 L 563.23 658.01 L 564.44 651.10 L 565.58 644.19 L 566.64 637.29 L 567.61 630.41 L 568.50 623.56 L 569.29 616.76 L 570.00 610.00 Z"/></clipPath></defs>
<g id="tentacle_04" data-rig="limb" data-pivot-x="528" data-pivot-y="610">
<path id="tentacle_04_fill" d="M 486.00 610.00 L 486.62 615.62 L 487.16 621.38 L 487.63 627.26 L 488.01 633.24 L 488.33 639.30 L 488.56 645.43 L 488.73 651.61 L 488.82 657.81 L 488.85 664.03 L 488.81 670.25 L 488.70 676.45 L 488.53 682.61 L 488.29 688.72 L 488.00 694.76 L 487.65 700.72 L 487.24 706.57 L 486.78 712.31 L 486.28 717.92 L 485.72 723.37 L 485.13 728.66 L 484.49 733.77 L 483.81 738.67 L 483.11 743.36 L 482.38 747.80 L 481.63 751.99 L 480.87 755.90 L 480.11 759.51 L 479.36 762.80 L 478.65 765.75 L 477.99 768.31 L 477.42 770.48 L 476.99 772.23 L 476.76 773.54 L 476.82 774.41 L 477.28 774.90 L 478.22 775.13 L 479.64 775.32 L 481.35 775.73 L 482.91 776.48 L 483.87 777.43 L 484.02 778.23 L 483.37 778.56 L 482.11 778.24 L 480.40 777.20 L 459.60 792.80 L 461.97 796.71 L 464.78 800.34 L 468.19 803.66 L 472.35 806.51 L 477.32 808.59 L 482.84 809.60 L 488.48 809.42 L 493.80 808.19 L 498.59 806.19 L 502.86 803.69 L 506.68 800.84 L 510.15 797.70 L 513.37 794.32 L 516.39 790.71 L 519.26 786.86 L 522.00 782.79 L 524.64 778.50 L 527.20 773.98 L 529.67 769.25 L 532.07 764.31 L 534.41 759.16 L 536.69 753.83 L 538.90 748.31 L 541.05 742.61 L 543.14 736.76 L 545.17 730.75 L 547.14 724.60 L 549.04 718.33 L 550.89 711.93 L 552.67 705.43 L 554.38 698.84 L 556.03 692.17 L 557.62 685.43 L 559.13 678.63 L 560.57 671.78 L 561.94 664.91 L 563.23 658.01 L 564.44 651.10 L 565.58 644.19 L 566.64 637.29 L 567.61 630.41 L 568.50 623.56 L 569.29 616.76 L 570.00 610.00 Z" fill="url(#limb_grad)" stroke="#7643a8" stroke-width="6"/>
<path id="tentacle_04_shadow" d="M 486.00 610.00 L 486.62 615.62 L 487.16 621.38 L 487.63 627.26 L 488.01 633.24 L 488.33 639.30 L 488.56 645.43 L 488.73 651.61 L 488.82 657.81 L 488.85 664.03 L 488.81 670.25 L 488.70 676.45 L 488.53 682.61 L 488.29 688.72 L 488.00 694.76 L 487.65 700.72 L 487.24 706.57 L 486.78 712.31 L 486.28 717.92 L 485.72 723.37 L 485.13 728.66 L 484.49 733.77 L 483.81 738.67 L 483.11 743.36 L 482.38 747.80 L 481.63 751.99 L 480.87 755.90 L 480.11 759.51 L 479.36 762.80 L 478.65 765.75 L 477.99 768.31 L 477.42 770.48 L 476.99 772.23 L 476.76 773.54 L 476.82 774.41 L 477.28 774.90 L 478.22 775.13 L 479.64 775.32 L 481.35 775.73 L 482.91 776.48 L 483.87 777.43 L 484.02 778.23 L 483.37 778.56 L 482.11 778.24 L 480.40 777.20 L 459.60 792.80 L 461.97 796.71 L 464.78 800.34 L 468.19 803.66 L 472.35 806.51 L 477.32 808.59 L 482.84 809.60 L 488.48 809.42 L 493.80 808.19 L 498.59 806.19 L 502.86 803.69 L 506.68 800.84 L 510.15 797.70 L 513.37 794.32 L 516.39 790.71 L 519.26 786.86 L 522.00 782.79 L 524.64 778.50 L 527.20 773.98 L 529.67 769.25 L 532.07 764.31 L 534.41 759.16 L 536.69 753.83 L 538.90 748.31 L 541.05 742.61 L 543.14 736.76 L 545.17 730.75 L 547.14 724.60 L 549.04 718.33 L 550.89 711.93 L 552.67 705.43 L 554.38 698.84 L 556.03 692.17 L 557.62 685.43 L 559.13 678.63 L 560.57 671.78 L 561.94 664.91 L 563.23 658.01 L 564.44 651.10 L 565.58 644.19 L 566.64 637.29 L 567.61 630.41 L 568.50 623.56 L 569.29 616.76 L 570.00 610.00 Z" fill="#4e2b73" opacity="0.16" clip-path="url(#clip_tentacle_04)"/>
<path id="tentacle_04_highlight" d="M 528.0,610.0 L528.0,616.2 L527.8,622.5 L527.6,628.8 L527.3,635.3 L527.0,641.7 L526.5,648.3 L526.0,654.8 L525.4,661.4 L524.7,667.9 L524.0,674.4 L523.2,680.9 L522.3,687.4 L521.3,693.8 L520.3,700.1 L519.3,706.3 L518.1,712.4 L517.0,718.5 L515.7,724.3 L514.4,730.1 L513.1,735.6 L511.7,741.0 L510.2,746.2 L508.8,751.3 L507.2,756.1 L505.7,760.6 L504.0,764.9 L502.4,769.0 L500.7,772.8 L499.0,776.3 L497.2,779.5 L495.4,782.4 L493.6,785.0 L491.7,787.2 L489.8,789.1 L487.9,790.5 L486.0,791.7 L484.1,792.4 L482.1,792.7 L480.1,792.5 L478.1,792.0 L476.1,790.9 L474.1,789.5 L472.0,787.5 L470.0,785.0" fill="none" stroke="#d7b9f1" stroke-opacity="0.7" stroke-width="8" stroke-linecap="round" clip-path="url(#clip_tentacle_04)"/>
<g id="tentacle_04_suckers" data-rig="details" clip-path="url(#clip_tentacle_04)">
</g>
</g>
<defs><clipPath id="clip_tentacle_05"><path d="M 550.09 612.79 L 551.22 619.32 L 552.41 625.91 L 553.67 632.56 L 554.98 639.26 L 556.36 646.00 L 557.80 652.76 L 559.30 659.53 L 560.85 666.30 L 562.46 673.06 L 564.13 679.79 L 565.85 686.49 L 567.63 693.14 L 569.45 699.72 L 571.33 706.23 L 573.26 712.66 L 575.24 718.98 L 577.27 725.19 L 579.35 731.28 L 581.48 737.23 L 583.65 743.03 L 585.88 748.68 L 588.16 754.15 L 590.49 759.45 L 592.88 764.55 L 595.32 769.45 L 597.82 774.15 L 600.40 778.64 L 603.06 782.90 L 605.81 786.94 L 608.69 790.76 L 611.71 794.35 L 614.92 797.72 L 618.39 800.84 L 622.19 803.68 L 626.45 806.18 L 631.23 808.18 L 636.55 809.41 L 642.19 809.60 L 647.72 808.59 L 652.68 806.50 L 656.85 803.65 L 660.24 800.33 L 663.03 796.70 L 665.40 792.80 L 644.60 777.20 L 642.89 778.25 L 641.62 778.57 L 640.98 778.24 L 641.13 777.44 L 642.11 776.49 L 643.69 775.73 L 645.42 775.32 L 646.85 775.14 L 647.80 774.91 L 648.25 774.42 L 648.30 773.54 L 648.06 772.22 L 647.61 770.45 L 647.02 768.26 L 646.34 765.67 L 645.60 762.70 L 644.82 759.38 L 644.02 755.73 L 643.21 751.79 L 642.41 747.56 L 641.61 743.08 L 640.84 738.35 L 640.09 733.40 L 639.36 728.24 L 638.66 722.90 L 638.00 717.39 L 637.37 711.72 L 636.78 705.92 L 636.23 699.99 L 635.72 693.96 L 635.25 687.84 L 634.83 681.64 L 634.46 675.39 L 634.14 669.09 L 633.86 662.76 L 633.64 656.42 L 633.47 650.09 L 633.36 643.77 L 633.30 637.49 L 633.30 631.26 L 633.36 625.11 L 633.48 619.03 L 633.66 613.06 L 633.91 607.21 Z"/></clipPath></defs>
<g id="tentacle_05" data-rig="limb" data-pivot-x="592" data-pivot-y="610">
<path id="tentacle_05_fill" d="M 550.09 612.79 L 551.22 619.32 L 552.41 625.91 L 553.67 632.56 L 554.98 639.26 L 556.36 646.00 L 557.80 652.76 L 559.30 659.53 L 560.85 666.30 L 562.46 673.06 L 564.13 679.79 L 565.85 686.49 L 567.63 693.14 L 569.45 699.72 L 571.33 706.23 L 573.26 712.66 L 575.24 718.98 L 577.27 725.19 L 579.35 731.28 L 581.48 737.23 L 583.65 743.03 L 585.88 748.68 L 588.16 754.15 L 590.49 759.45 L 592.88 764.55 L 595.32 769.45 L 597.82 774.15 L 600.40 778.64 L 603.06 782.90 L 605.81 786.94 L 608.69 790.76 L 611.71 794.35 L 614.92 797.72 L 618.39 800.84 L 622.19 803.68 L 626.45 806.18 L 631.23 808.18 L 636.55 809.41 L 642.19 809.60 L 647.72 808.59 L 652.68 806.50 L 656.85 803.65 L 660.24 800.33 L 663.03 796.70 L 665.40 792.80 L 644.60 777.20 L 642.89 778.25 L 641.62 778.57 L 640.98 778.24 L 641.13 777.44 L 642.11 776.49 L 643.69 775.73 L 645.42 775.32 L 646.85 775.14 L 647.80 774.91 L 648.25 774.42 L 648.30 773.54 L 648.06 772.22 L 647.61 770.45 L 647.02 768.26 L 646.34 765.67 L 645.60 762.70 L 644.82 759.38 L 644.02 755.73 L 643.21 751.79 L 642.41 747.56 L 641.61 743.08 L 640.84 738.35 L 640.09 733.40 L 639.36 728.24 L 638.66 722.90 L 638.00 717.39 L 637.37 711.72 L 636.78 705.92 L 636.23 699.99 L 635.72 693.96 L 635.25 687.84 L 634.83 681.64 L 634.46 675.39 L 634.14 669.09 L 633.86 662.76 L 633.64 656.42 L 633.47 650.09 L 633.36 643.77 L 633.30 637.49 L 633.30 631.26 L 633.36 625.11 L 633.48 619.03 L 633.66 613.06 L 633.91 607.21 Z" fill="url(#limb_grad)" stroke="#7643a8" stroke-width="6"/>
<path id="tentacle_05_shadow" d="M 550.09 612.79 L 551.22 619.32 L 552.41 625.91 L 553.67 632.56 L 554.98 639.26 L 556.36 646.00 L 557.80 652.76 L 559.30 659.53 L 560.85 666.30 L 562.46 673.06 L 564.13 679.79 L 565.85 686.49 L 567.63 693.14 L 569.45 699.72 L 571.33 706.23 L 573.26 712.66 L 575.24 718.98 L 577.27 725.19 L 579.35 731.28 L 581.48 737.23 L 583.65 743.03 L 585.88 748.68 L 588.16 754.15 L 590.49 759.45 L 592.88 764.55 L 595.32 769.45 L 597.82 774.15 L 600.40 778.64 L 603.06 782.90 L 605.81 786.94 L 608.69 790.76 L 611.71 794.35 L 614.92 797.72 L 618.39 800.84 L 622.19 803.68 L 626.45 806.18 L 631.23 808.18 L 636.55 809.41 L 642.19 809.60 L 647.72 808.59 L 652.68 806.50 L 656.85 803.65 L 660.24 800.33 L 663.03 796.70 L 665.40 792.80 L 644.60 777.20 L 642.89 778.25 L 641.62 778.57 L 640.98 778.24 L 641.13 777.44 L 642.11 776.49 L 643.69 775.73 L 645.42 775.32 L 646.85 775.14 L 647.80 774.91 L 648.25 774.42 L 648.30 773.54 L 648.06 772.22 L 647.61 770.45 L 647.02 768.26 L 646.34 765.67 L 645.60 762.70 L 644.82 759.38 L 644.02 755.73 L 643.21 751.79 L 642.41 747.56 L 641.61 743.08 L 640.84 738.35 L 640.09 733.40 L 639.36 728.24 L 638.66 722.90 L 638.00 717.39 L 637.37 711.72 L 636.78 705.92 L 636.23 699.99 L 635.72 693.96 L 635.25 687.84 L 634.83 681.64 L 634.46 675.39 L 634.14 669.09 L 633.86 662.76 L 633.64 656.42 L 633.47 650.09 L 633.36 643.77 L 633.30 637.49 L 633.30 631.26 L 633.36 625.11 L 633.48 619.03 L 633.66 613.06 L 633.91 607.21 Z" fill="#4e2b73" opacity="0.16" clip-path="url(#clip_tentacle_05)"/>
<path id="tentacle_05_highlight" d="M 592.0,610.0 L592.4,616.2 L592.9,622.5 L593.5,628.8 L594.1,635.3 L594.8,641.7 L595.6,648.3 L596.4,654.8 L597.2,661.4 L598.2,667.9 L599.1,674.4 L600.2,680.9 L601.2,687.4 L602.4,693.8 L603.5,700.1 L604.7,706.3 L606.0,712.4 L607.3,718.5 L608.7,724.3 L610.1,730.1 L611.5,735.6 L613.0,741.0 L614.5,746.2 L616.1,751.3 L617.6,756.1 L619.3,760.6 L620.9,764.9 L622.6,769.0 L624.3,772.8 L626.1,776.3 L627.9,779.5 L629.7,782.4 L631.5,785.0 L633.3,787.2 L635.2,789.1 L637.1,790.5 L639.0,791.7 L641.0,792.4 L642.9,792.7 L644.9,792.5 L646.9,792.0 L648.9,790.9 L650.9,789.5 L653.0,787.5 L655.0,785.0" fill="none" stroke="#d7b9f1" stroke-opacity="0.7" stroke-width="8" stroke-linecap="round" clip-path="url(#clip_tentacle_05)"/>
<g id="tentacle_05_suckers" data-rig="details" clip-path="url(#clip_tentacle_05)">
</g>
</g>
<defs><clipPath id="clip_tentacle_06"><path d="M 616.96 630.30 L 621.20 634.04 L 625.51 638.00 L 629.87 642.16 L 634.28 646.48 L 638.72 650.97 L 643.20 655.59 L 647.70 660.34 L 652.22 665.19 L 656.75 670.12 L 661.30 675.13 L 665.85 680.19 L 670.41 685.28 L 674.97 690.40 L 679.53 695.53 L 684.09 700.64 L 688.64 705.73 L 693.18 710.78 L 697.71 715.77 L 702.24 720.70 L 706.76 725.54 L 711.26 730.28 L 715.76 734.91 L 720.25 739.41 L 724.73 743.78 L 729.20 747.99 L 733.67 752.03 L 738.14 755.89 L 742.61 759.55 L 747.10 763.01 L 751.60 766.24 L 756.14 769.23 L 760.71 771.96 L 765.35 774.41 L 770.06 776.56 L 774.86 778.36 L 779.77 779.77 L 784.80 780.73 L 789.91 781.16 L 795.07 781.00 L 800.18 780.17 L 805.12 778.65 L 809.76 776.47 L 814.00 773.69 L 817.80 770.40 L 802.20 749.60 L 800.48 749.95 L 799.09 749.89 L 797.97 749.56 L 797.04 749.06 L 796.16 748.43 L 795.22 747.67 L 794.13 746.76 L 792.84 745.64 L 791.33 744.26 L 789.62 742.61 L 787.71 740.65 L 785.64 738.38 L 783.41 735.81 L 781.05 732.93 L 778.56 729.77 L 775.98 726.32 L 773.30 722.61 L 770.53 718.65 L 767.69 714.45 L 764.77 710.03 L 761.79 705.41 L 758.74 700.59 L 755.63 695.60 L 752.47 690.44 L 749.26 685.13 L 745.99 679.69 L 742.68 674.13 L 739.32 668.46 L 735.91 662.70 L 732.46 656.86 L 728.96 650.96 L 725.42 645.00 L 721.83 639.00 L 718.20 632.97 L 714.53 626.93 L 710.80 620.88 L 707.03 614.84 L 703.22 608.82 L 699.34 602.83 L 695.41 596.88 L 691.43 590.99 L 687.37 585.15 L 683.24 579.39 L 679.04 573.70 Z"/></clipPath></defs>
<g id="tentacle_06" data-rig="limb" data-pivot-x="648" data-pivot-y="602">
<path id="tentacle_06_fill" d="M 616.96 630.30 L 621.20 634.04 L 625.51 638.00 L 629.87 642.16 L 634.28 646.48 L 638.72 650.97 L 643.20 655.59 L 647.70 660.34 L 652.22 665.19 L 656.75 670.12 L 661.30 675.13 L 665.85 680.19 L 670.41 685.28 L 674.97 690.40 L 679.53 695.53 L 684.09 700.64 L 688.64 705.73 L 693.18 710.78 L 697.71 715.77 L 702.24 720.70 L 706.76 725.54 L 711.26 730.28 L 715.76 734.91 L 720.25 739.41 L 724.73 743.78 L 729.20 747.99 L 733.67 752.03 L 738.14 755.89 L 742.61 759.55 L 747.10 763.01 L 751.60 766.24 L 756.14 769.23 L 760.71 771.96 L 765.35 774.41 L 770.06 776.56 L 774.86 778.36 L 779.77 779.77 L 784.80 780.73 L 789.91 781.16 L 795.07 781.00 L 800.18 780.17 L 805.12 778.65 L 809.76 776.47 L 814.00 773.69 L 817.80 770.40 L 802.20 749.60 L 800.48 749.95 L 799.09 749.89 L 797.97 749.56 L 797.04 749.06 L 796.16 748.43 L 795.22 747.67 L 794.13 746.76 L 792.84 745.64 L 791.33 744.26 L 789.62 742.61 L 787.71 740.65 L 785.64 738.38 L 783.41 735.81 L 781.05 732.93 L 778.56 729.77 L 775.98 726.32 L 773.30 722.61 L 770.53 718.65 L 767.69 714.45 L 764.77 710.03 L 761.79 705.41 L 758.74 700.59 L 755.63 695.60 L 752.47 690.44 L 749.26 685.13 L 745.99 679.69 L 742.68 674.13 L 739.32 668.46 L 735.91 662.70 L 732.46 656.86 L 728.96 650.96 L 725.42 645.00 L 721.83 639.00 L 718.20 632.97 L 714.53 626.93 L 710.80 620.88 L 707.03 614.84 L 703.22 608.82 L 699.34 602.83 L 695.41 596.88 L 691.43 590.99 L 687.37 585.15 L 683.24 579.39 L 679.04 573.70 Z" fill="url(#limb_grad)" stroke="#7643a8" stroke-width="6"/>
<path id="tentacle_06_shadow" d="M 616.96 630.30 L 621.20 634.04 L 625.51 638.00 L 629.87 642.16 L 634.28 646.48 L 638.72 650.97 L 643.20 655.59 L 647.70 660.34 L 652.22 665.19 L 656.75 670.12 L 661.30 675.13 L 665.85 680.19 L 670.41 685.28 L 674.97 690.40 L 679.53 695.53 L 684.09 700.64 L 688.64 705.73 L 693.18 710.78 L 697.71 715.77 L 702.24 720.70 L 706.76 725.54 L 711.26 730.28 L 715.76 734.91 L 720.25 739.41 L 724.73 743.78 L 729.20 747.99 L 733.67 752.03 L 738.14 755.89 L 742.61 759.55 L 747.10 763.01 L 751.60 766.24 L 756.14 769.23 L 760.71 771.96 L 765.35 774.41 L 770.06 776.56 L 774.86 778.36 L 779.77 779.77 L 784.80 780.73 L 789.91 781.16 L 795.07 781.00 L 800.18 780.17 L 805.12 778.65 L 809.76 776.47 L 814.00 773.69 L 817.80 770.40 L 802.20 749.60 L 800.48 749.95 L 799.09 749.89 L 797.97 749.56 L 797.04 749.06 L 796.16 748.43 L 795.22 747.67 L 794.13 746.76 L 792.84 745.64 L 791.33 744.26 L 789.62 742.61 L 787.71 740.65 L 785.64 738.38 L 783.41 735.81 L 781.05 732.93 L 778.56 729.77 L 775.98 726.32 L 773.30 722.61 L 770.53 718.65 L 767.69 714.45 L 764.77 710.03 L 761.79 705.41 L 758.74 700.59 L 755.63 695.60 L 752.47 690.44 L 749.26 685.13 L 745.99 679.69 L 742.68 674.13 L 739.32 668.46 L 735.91 662.70 L 732.46 656.86 L 728.96 650.96 L 725.42 645.00 L 721.83 639.00 L 718.20 632.97 L 714.53 626.93 L 710.80 620.88 L 707.03 614.84 L 703.22 608.82 L 699.34 602.83 L 695.41 596.88 L 691.43 590.99 L 687.37 585.15 L 683.24 579.39 L 679.04 573.70 Z" fill="#4e2b73" opacity="0.16" clip-path="url(#clip_tentacle_06)"/>
<path id="tentacle_06_highlight" d="M 648.0,602.0 L652.2,606.7 L656.4,611.6 L660.6,616.6 L664.8,621.7 L669.0,626.9 L673.2,632.2 L677.4,637.6 L681.5,643.0 L685.6,648.5 L689.8,654.1 L693.8,659.6 L697.9,665.1 L702.0,670.7 L706.0,676.2 L710.0,681.7 L714.0,687.1 L717.9,692.5 L721.9,697.7 L725.8,702.9 L729.6,708.0 L733.4,712.9 L737.2,717.8 L741.0,722.4 L744.7,726.9 L748.4,731.2 L752.1,735.3 L755.7,739.2 L759.3,742.9 L762.8,746.4 L766.3,749.6 L769.8,752.5 L773.2,755.2 L776.5,757.5 L779.8,759.6 L783.1,761.3 L786.3,762.7 L789.5,763.7 L792.6,764.4 L795.6,764.7 L798.6,764.6 L801.5,764.1 L804.4,763.2 L807.2,761.8 L810.0,760.0" fill="none" stroke="#d7b9f1" stroke-opacity="0.7" stroke-width="8" stroke-linecap="round" clip-path="url(#clip_tentacle_06)"/>
<g id="tentacle_06_suckers" data-rig="details" clip-path="url(#clip_tentacle_06)">
<ellipse id="tentacle_06_sucker_01" cx="698.38" cy="690.18" rx="12.00" ry="8.64" fill="#f5b3cd" stroke="#dc89ad" stroke-width="2"/>
<ellipse id="tentacle_06_sucker_02" cx="711.28" cy="705.63" rx="11.00" ry="7.92" fill="#f5b3cd" stroke="#dc89ad" stroke-width="2"/>
<ellipse id="tentacle_06_sucker_03" cx="724.00" cy="720.33" rx="10.00" ry="7.20" fill="#f5b3cd" stroke="#dc89ad" stroke-width="2"/>
<ellipse id="tentacle_06_sucker_04" cx="736.49" cy="733.86" rx="9.00" ry="6.48" fill="#f5b3cd" stroke="#dc89ad" stroke-width="2"/>
<ellipse id="tentacle_06_sucker_05" cx="748.75" cy="745.85" rx="8.00" ry="5.76" fill="#f5b3cd" stroke="#dc89ad" stroke-width="2"/>
<ellipse id="tentacle_06_sucker_06" cx="760.76" cy="755.88" rx="7.00" ry="5.04" fill="#f5b3cd" stroke="#dc89ad" stroke-width="2"/>
<ellipse id="tentacle_06_sucker_07" cx="772.56" cy="763.53" rx="6.00" ry="4.32" fill="#f5b3cd" stroke="#dc89ad" stroke-width="2"/>
<ellipse id="tentacle_06_sucker_08" cx="784.16" cy="768.31" rx="5.00" ry="3.60" fill="#f5b3cd" stroke="#dc89ad" stroke-width="2"/>
</g>
</g>
<defs><clipPath id="clip_tentacle_07"><path d="M 684.83 625.30 L 690.64 626.80 L 696.63 628.54 L 702.77 630.51 L 709.05 632.69 L 715.45 635.08 L 721.95 637.65 L 728.54 640.39 L 735.22 643.28 L 741.97 646.32 L 748.77 649.47 L 755.63 652.73 L 762.52 656.07 L 769.45 659.49 L 776.40 662.96 L 783.37 666.46 L 790.36 669.99 L 797.34 673.51 L 804.33 677.02 L 811.32 680.50 L 818.29 683.93 L 825.25 687.30 L 832.19 690.58 L 839.11 693.76 L 846.00 696.83 L 852.87 699.76 L 859.70 702.54 L 866.51 705.15 L 873.28 707.58 L 880.02 709.79 L 886.72 711.78 L 893.38 713.52 L 900.01 714.99 L 906.60 716.17 L 913.15 717.03 L 919.66 717.53 L 926.11 717.66 L 932.50 717.37 L 938.79 716.64 L 944.98 715.43 L 951.02 713.71 L 956.86 711.48 L 962.46 708.72 L 967.77 705.44 L 972.77 701.65 L 957.23 678.35 L 953.90 679.56 L 950.61 680.37 L 947.32 680.84 L 944.01 681.00 L 940.63 680.88 L 937.15 680.49 L 933.55 679.84 L 929.79 678.92 L 925.86 677.74 L 921.78 676.29 L 917.52 674.58 L 913.10 672.61 L 908.52 670.38 L 903.79 667.90 L 898.92 665.18 L 893.91 662.23 L 888.76 659.06 L 883.50 655.69 L 878.11 652.13 L 872.62 648.39 L 867.01 644.48 L 861.31 640.42 L 855.51 636.23 L 849.62 631.91 L 843.64 627.49 L 837.58 622.98 L 831.44 618.38 L 825.22 613.73 L 818.92 609.03 L 812.55 604.29 L 806.10 599.53 L 799.59 594.77 L 793.00 590.02 L 786.34 585.29 L 779.61 580.61 L 772.80 575.97 L 765.92 571.41 L 758.95 566.93 L 751.91 562.54 L 744.77 558.28 L 737.53 554.14 L 730.20 550.15 L 722.75 546.33 L 715.17 542.70 Z"/></clipPath></defs>
<g id="tentacle_07" data-rig="limb" data-pivot-x="700" data-pivot-y="584">
<path id="tentacle_07_fill" d="M 684.83 625.30 L 690.64 626.80 L 696.63 628.54 L 702.77 630.51 L 709.05 632.69 L 715.45 635.08 L 721.95 637.65 L 728.54 640.39 L 735.22 643.28 L 741.97 646.32 L 748.77 649.47 L 755.63 652.73 L 762.52 656.07 L 769.45 659.49 L 776.40 662.96 L 783.37 666.46 L 790.36 669.99 L 797.34 673.51 L 804.33 677.02 L 811.32 680.50 L 818.29 683.93 L 825.25 687.30 L 832.19 690.58 L 839.11 693.76 L 846.00 696.83 L 852.87 699.76 L 859.70 702.54 L 866.51 705.15 L 873.28 707.58 L 880.02 709.79 L 886.72 711.78 L 893.38 713.52 L 900.01 714.99 L 906.60 716.17 L 913.15 717.03 L 919.66 717.53 L 926.11 717.66 L 932.50 717.37 L 938.79 716.64 L 944.98 715.43 L 951.02 713.71 L 956.86 711.48 L 962.46 708.72 L 967.77 705.44 L 972.77 701.65 L 957.23 678.35 L 953.90 679.56 L 950.61 680.37 L 947.32 680.84 L 944.01 681.00 L 940.63 680.88 L 937.15 680.49 L 933.55 679.84 L 929.79 678.92 L 925.86 677.74 L 921.78 676.29 L 917.52 674.58 L 913.10 672.61 L 908.52 670.38 L 903.79 667.90 L 898.92 665.18 L 893.91 662.23 L 888.76 659.06 L 883.50 655.69 L 878.11 652.13 L 872.62 648.39 L 867.01 644.48 L 861.31 640.42 L 855.51 636.23 L 849.62 631.91 L 843.64 627.49 L 837.58 622.98 L 831.44 618.38 L 825.22 613.73 L 818.92 609.03 L 812.55 604.29 L 806.10 599.53 L 799.59 594.77 L 793.00 590.02 L 786.34 585.29 L 779.61 580.61 L 772.80 575.97 L 765.92 571.41 L 758.95 566.93 L 751.91 562.54 L 744.77 558.28 L 737.53 554.14 L 730.20 550.15 L 722.75 546.33 L 715.17 542.70 Z" fill="url(#limb_grad)" stroke="#7643a8" stroke-width="6"/>
<path id="tentacle_07_shadow" d="M 684.83 625.30 L 690.64 626.80 L 696.63 628.54 L 702.77 630.51 L 709.05 632.69 L 715.45 635.08 L 721.95 637.65 L 728.54 640.39 L 735.22 643.28 L 741.97 646.32 L 748.77 649.47 L 755.63 652.73 L 762.52 656.07 L 769.45 659.49 L 776.40 662.96 L 783.37 666.46 L 790.36 669.99 L 797.34 673.51 L 804.33 677.02 L 811.32 680.50 L 818.29 683.93 L 825.25 687.30 L 832.19 690.58 L 839.11 693.76 L 846.00 696.83 L 852.87 699.76 L 859.70 702.54 L 866.51 705.15 L 873.28 707.58 L 880.02 709.79 L 886.72 711.78 L 893.38 713.52 L 900.01 714.99 L 906.60 716.17 L 913.15 717.03 L 919.66 717.53 L 926.11 717.66 L 932.50 717.37 L 938.79 716.64 L 944.98 715.43 L 951.02 713.71 L 956.86 711.48 L 962.46 708.72 L 967.77 705.44 L 972.77 701.65 L 957.23 678.35 L 953.90 679.56 L 950.61 680.37 L 947.32 680.84 L 944.01 681.00 L 940.63 680.88 L 937.15 680.49 L 933.55 679.84 L 929.79 678.92 L 925.86 677.74 L 921.78 676.29 L 917.52 674.58 L 913.10 672.61 L 908.52 670.38 L 903.79 667.90 L 898.92 665.18 L 893.91 662.23 L 888.76 659.06 L 883.50 655.69 L 878.11 652.13 L 872.62 648.39 L 867.01 644.48 L 861.31 640.42 L 855.51 636.23 L 849.62 631.91 L 843.64 627.49 L 837.58 622.98 L 831.44 618.38 L 825.22 613.73 L 818.92 609.03 L 812.55 604.29 L 806.10 599.53 L 799.59 594.77 L 793.00 590.02 L 786.34 585.29 L 779.61 580.61 L 772.80 575.97 L 765.92 571.41 L 758.95 566.93 L 751.91 562.54 L 744.77 558.28 L 737.53 554.14 L 730.20 550.15 L 722.75 546.33 L 715.17 542.70 Z" fill="#4e2b73" opacity="0.16" clip-path="url(#clip_tentacle_07)"/>
<path id="tentacle_07_highlight" d="M 700.0,584.0 L706.7,586.6 L713.4,589.3 L720.2,592.3 L726.9,595.5 L733.7,598.8 L740.5,602.3 L747.2,605.9 L754.0,609.6 L760.8,613.5 L767.6,617.4 L774.3,621.4 L781.1,625.4 L787.8,629.5 L794.5,633.6 L801.1,637.7 L807.8,641.9 L814.4,645.9 L821.0,650.0 L827.5,654.0 L834.0,657.9 L840.4,661.8 L846.8,665.5 L853.1,669.1 L859.3,672.6 L865.5,675.9 L871.6,679.1 L877.6,682.1 L883.6,684.9 L889.5,687.5 L895.3,689.8 L901.0,691.9 L906.6,693.8 L912.1,695.4 L917.5,696.7 L922.8,697.6 L927.9,698.3 L933.0,698.6 L938.0,698.6 L942.8,698.2 L947.5,697.4 L952.1,696.2 L956.5,694.5 L960.8,692.5 L965.0,690.0" fill="none" stroke="#d7b9f1" stroke-opacity="0.7" stroke-width="8" stroke-linecap="round" clip-path="url(#clip_tentacle_07)"/>
<g id="tentacle_07_suckers" data-rig="details" clip-path="url(#clip_tentacle_07)">
<ellipse id="tentacle_07_sucker_01" cx="793.57" cy="649.99" rx="12.00" ry="8.64" fill="#f5b3cd" stroke="#dc89ad" stroke-width="2"/>
<ellipse id="tentacle_07_sucker_02" cx="814.04" cy="661.24" rx="11.00" ry="7.92" fill="#f5b3cd" stroke="#dc89ad" stroke-width="2"/>
<ellipse id="tentacle_07_sucker_03" cx="834.26" cy="672.09" rx="10.00" ry="7.20" fill="#f5b3cd" stroke="#dc89ad" stroke-width="2"/>
<ellipse id="tentacle_07_sucker_04" cx="854.11" cy="682.07" rx="9.00" ry="6.48" fill="#f5b3cd" stroke="#dc89ad" stroke-width="2"/>
<ellipse id="tentacle_07_sucker_05" cx="873.46" cy="690.75" rx="8.00" ry="5.76" fill="#f5b3cd" stroke="#dc89ad" stroke-width="2"/>
<ellipse id="tentacle_07_sucker_06" cx="892.21" cy="697.67" rx="7.00" ry="5.04" fill="#f5b3cd" stroke="#dc89ad" stroke-width="2"/>
<ellipse id="tentacle_07_sucker_07" cx="910.23" cy="702.34" rx="6.00" ry="4.32" fill="#f5b3cd" stroke="#dc89ad" stroke-width="2"/>
<ellipse id="tentacle_07_sucker_08" cx="927.38" cy="704.26" rx="5.00" ry="3.60" fill="#f5b3cd" stroke="#dc89ad" stroke-width="2"/>
</g>
</g>
<defs><clipPath id="clip_tentacle_08"><path d="M 764.00 606.00 L 769.69 605.37 L 775.47 604.93 L 781.32 604.67 L 787.24 604.60 L 793.23 604.70 L 799.28 604.96 L 805.37 605.39 L 811.51 605.97 L 817.68 606.70 L 823.88 607.56 L 830.09 608.54 L 836.31 609.63 L 842.53 610.83 L 848.74 612.11 L 854.94 613.48 L 861.12 614.91 L 867.26 616.39 L 873.37 617.92 L 879.44 619.47 L 885.47 621.03 L 891.44 622.60 L 897.35 624.15 L 903.20 625.68 L 908.99 627.17 L 914.70 628.60 L 920.35 629.96 L 925.92 631.25 L 931.42 632.43 L 936.84 633.51 L 942.18 634.45 L 947.45 635.26 L 952.65 635.89 L 957.78 636.35 L 962.85 636.60 L 967.85 636.61 L 972.79 636.37 L 977.68 635.82 L 982.49 634.93 L 987.22 633.66 L 991.81 631.95 L 996.22 629.76 L 1000.35 627.09 L 1004.11 623.94 L 1007.42 620.36 L 988.58 599.64 L 987.20 599.82 L 985.89 599.77 L 984.58 599.56 L 983.19 599.25 L 981.63 598.83 L 979.85 598.30 L 977.82 597.64 L 975.52 596.83 L 972.96 595.84 L 970.14 594.68 L 967.06 593.34 L 963.75 591.81 L 960.21 590.11 L 956.44 588.24 L 952.47 586.21 L 948.30 584.02 L 943.93 581.69 L 939.38 579.23 L 934.64 576.66 L 929.73 573.98 L 924.65 571.20 L 919.40 568.35 L 913.98 565.43 L 908.41 562.45 L 902.67 559.44 L 896.78 556.40 L 890.73 553.34 L 884.52 550.29 L 878.17 547.25 L 871.65 544.24 L 864.99 541.27 L 858.17 538.36 L 851.19 535.53 L 844.06 532.78 L 836.77 530.13 L 829.33 527.61 L 821.73 525.23 L 813.96 523.00 L 806.04 520.94 L 797.95 519.08 L 789.71 517.44 L 781.30 516.03 L 772.73 514.87 L 764.00 514.00 Z"/></clipPath></defs>
<g id="tentacle_08" data-rig="limb" data-pivot-x="764" data-pivot-y="560">
<path id="tentacle_08_fill" d="M 764.00 606.00 L 769.69 605.37 L 775.47 604.93 L 781.32 604.67 L 787.24 604.60 L 793.23 604.70 L 799.28 604.96 L 805.37 605.39 L 811.51 605.97 L 817.68 606.70 L 823.88 607.56 L 830.09 608.54 L 836.31 609.63 L 842.53 610.83 L 848.74 612.11 L 854.94 613.48 L 861.12 614.91 L 867.26 616.39 L 873.37 617.92 L 879.44 619.47 L 885.47 621.03 L 891.44 622.60 L 897.35 624.15 L 903.20 625.68 L 908.99 627.17 L 914.70 628.60 L 920.35 629.96 L 925.92 631.25 L 931.42 632.43 L 936.84 633.51 L 942.18 634.45 L 947.45 635.26 L 952.65 635.89 L 957.78 636.35 L 962.85 636.60 L 967.85 636.61 L 972.79 636.37 L 977.68 635.82 L 982.49 634.93 L 987.22 633.66 L 991.81 631.95 L 996.22 629.76 L 1000.35 627.09 L 1004.11 623.94 L 1007.42 620.36 L 988.58 599.64 L 987.20 599.82 L 985.89 599.77 L 984.58 599.56 L 983.19 599.25 L 981.63 598.83 L 979.85 598.30 L 977.82 597.64 L 975.52 596.83 L 972.96 595.84 L 970.14 594.68 L 967.06 593.34 L 963.75 591.81 L 960.21 590.11 L 956.44 588.24 L 952.47 586.21 L 948.30 584.02 L 943.93 581.69 L 939.38 579.23 L 934.64 576.66 L 929.73 573.98 L 924.65 571.20 L 919.40 568.35 L 913.98 565.43 L 908.41 562.45 L 902.67 559.44 L 896.78 556.40 L 890.73 553.34 L 884.52 550.29 L 878.17 547.25 L 871.65 544.24 L 864.99 541.27 L 858.17 538.36 L 851.19 535.53 L 844.06 532.78 L 836.77 530.13 L 829.33 527.61 L 821.73 525.23 L 813.96 523.00 L 806.04 520.94 L 797.95 519.08 L 789.71 517.44 L 781.30 516.03 L 772.73 514.87 L 764.00 514.00 Z" fill="url(#limb_grad)" stroke="#7643a8" stroke-width="6"/>
<path id="tentacle_08_shadow" d="M 764.00 606.00 L 769.69 605.37 L 775.47 604.93 L 781.32 604.67 L 787.24 604.60 L 793.23 604.70 L 799.28 604.96 L 805.37 605.39 L 811.51 605.97 L 817.68 606.70 L 823.88 607.56 L 830.09 608.54 L 836.31 609.63 L 842.53 610.83 L 848.74 612.11 L 854.94 613.48 L 861.12 614.91 L 867.26 616.39 L 873.37 617.92 L 879.44 619.47 L 885.47 621.03 L 891.44 622.60 L 897.35 624.15 L 903.20 625.68 L 908.99 627.17 L 914.70 628.60 L 920.35 629.96 L 925.92 631.25 L 931.42 632.43 L 936.84 633.51 L 942.18 634.45 L 947.45 635.26 L 952.65 635.89 L 957.78 636.35 L 962.85 636.60 L 967.85 636.61 L 972.79 636.37 L 977.68 635.82 L 982.49 634.93 L 987.22 633.66 L 991.81 631.95 L 996.22 629.76 L 1000.35 627.09 L 1004.11 623.94 L 1007.42 620.36 L 988.58 599.64 L 987.20 599.82 L 985.89 599.77 L 984.58 599.56 L 983.19 599.25 L 981.63 598.83 L 979.85 598.30 L 977.82 597.64 L 975.52 596.83 L 972.96 595.84 L 970.14 594.68 L 967.06 593.34 L 963.75 591.81 L 960.21 590.11 L 956.44 588.24 L 952.47 586.21 L 948.30 584.02 L 943.93 581.69 L 939.38 579.23 L 934.64 576.66 L 929.73 573.98 L 924.65 571.20 L 919.40 568.35 L 913.98 565.43 L 908.41 562.45 L 902.67 559.44 L 896.78 556.40 L 890.73 553.34 L 884.52 550.29 L 878.17 547.25 L 871.65 544.24 L 864.99 541.27 L 858.17 538.36 L 851.19 535.53 L 844.06 532.78 L 836.77 530.13 L 829.33 527.61 L 821.73 525.23 L 813.96 523.00 L 806.04 520.94 L 797.95 519.08 L 789.71 517.44 L 781.30 516.03 L 772.73 514.87 L 764.00 514.00 Z" fill="#4e2b73" opacity="0.16" clip-path="url(#clip_tentacle_08)"/>
<path id="tentacle_08_highlight" d="M 764.0,560.0 L771.2,560.1 L778.4,560.5 L785.5,561.1 L792.6,561.8 L799.6,562.8 L806.6,564.0 L813.6,565.3 L820.4,566.8 L827.2,568.4 L834.0,570.2 L840.6,572.0 L847.2,574.0 L853.8,576.1 L860.2,578.2 L866.6,580.4 L872.8,582.6 L879.0,584.9 L885.1,587.2 L891.1,589.5 L896.9,591.7 L902.7,594.0 L908.4,596.2 L913.9,598.4 L919.4,600.6 L924.7,602.6 L929.9,604.6 L934.9,606.5 L939.9,608.2 L944.7,609.9 L949.3,611.3 L953.8,612.7 L958.2,613.9 L962.4,614.8 L966.5,615.6 L970.4,616.2 L974.2,616.6 L977.7,616.7 L981.2,616.6 L984.4,616.2 L987.5,615.6 L990.4,614.7 L993.1,613.4 L995.7,611.9 L998.0,610.0" fill="none" stroke="#d7b9f1" stroke-opacity="0.7" stroke-width="8" stroke-linecap="round" clip-path="url(#clip_tentacle_08)"/>
<g id="tentacle_08_suckers" data-rig="details" clip-path="url(#clip_tentacle_08)">
</g>
</g>
<g id="body" data-rig="object">
<ellipse id="head_fill" cx="512" cy="360" rx="250" ry="245" fill="url(#body_grad)" stroke="#6e3d9f" stroke-width="6"/>
<ellipse id="head_hi" cx="430" cy="275" rx="76" ry="54" fill="#cda8ea" opacity="0.45"/>
<ellipse id="cheek_l" cx="408" cy="390" rx="36" ry="34" fill="#f58cb3" opacity="0.95"/>
<ellipse id="cheek_r" cx="614" cy="390" rx="36" ry="34" fill="#f58cb3" opacity="0.95"/>
</g>
<g id="helmet" data-rig="object">
<circle id="helmet_outline" cx="512" cy="360" r="274" fill="none" stroke="#8ab4cc" stroke-width="7"/>
<circle id="helmet_glass" cx="512" cy="360" r="268" fill="#b8e2f2" opacity="0.18"/>
<ellipse id="helmet_glare_1" cx="347" cy="238" rx="28" ry="16" fill="#ffffff" opacity="0.55" transform="rotate(-35 347 238)"/>
<ellipse id="helmet_glare_2" cx="679" cy="238" rx="28" ry="16" fill="#ffffff" opacity="0.55" transform="rotate(35 679 238)"/>
</g>
<g id="collar" data-rig="object">
<ellipse id="collar_back" cx="512" cy="528" rx="216" ry="52" fill="#4e4a55"/>
<ellipse id="collar_inner" cx="512" cy="516" rx="194" ry="40" fill="#6a6474"/>
<ellipse id="collar_front" cx="512" cy="538" rx="214" ry="44" fill="#575360"/>
</g>
<g id="face" data-rig="object">
<g id="eye_left" data-rig="eye" data-pivot-x="454" data-pivot-y="347">
<circle id="eye_left_white" cx="454" cy="347" r="67" fill="#f7fbff"/>
<circle id="eye_left_pupil" cx="454" cy="356" r="38" fill="#383640"/>
<circle id="eye_left_glint" cx="473" cy="334" r="10" fill="#fff"/>
</g>
<g id="eye_right" data-rig="eye" data-pivot-x="570" data-pivot-y="347">
<circle id="eye_right_white" cx="570" cy="347" r="67" fill="#f7fbff"/>
<circle id="eye_right_pupil" cx="570" cy="356" r="38" fill="#383640"/>
<circle id="eye_right_glint" cx="589" cy="334" r="10" fill="#fff"/>
</g>
<g id="mouth" data-rig="mouth" data-pivot-x="512" data-pivot-y="438">
<path id="mouth_open" d="M 448 427 C 470 455 554 455 576 427 C 568 470 460 470 448 427 Z" fill="#5a2f34"/>
<path id="tongue" d="M 476 455 C 495 478 529 478 548 455" fill="none" stroke="#f08ba9" stroke-width="16" stroke-linecap="round"/>
</g>
</g>
</g>
</svg>
