<?xml version="1.0" encoding="UTF-8"?>
<svg id="Layer_1" xmlns="http://www.w3.org/2000/svg" baseProfile="tiny" version="1.2" viewBox="0 0 100 100">
  <style>
    @media (prefers-color-scheme: dark) {
      svg { color: white; }
    }
    @media (prefers-color-scheme: light) {
      svg { color: black; }
    }
  </style>
  <!-- Generator: Adobe Illustrator 29.1.0, SVG Export Plug-In . SVG Version: 2.1.0 Build 142)  -->
  <path fill="currentColor" d="M99.1,26.2l-15.5,26-4.5-4.2-1.8,1.7c1.4,1.6,2.9,3,4.4,4.5,5.7,6,11,12.4,16.2,18.8.1.1.8.9.7,1-8.7-6-17.5-11.9-25.7-18.5h-.2c-7.6,8.9-18.9,16.8-30.8,18-11.1,1.1-21.4-3.9-29.2-11.4.4-.4.9-.9,1.3-1.3,1.2-1.1,4.9-4.6,6.2-5.1,3.6-1.4,5.3,1.3,8,3,17.6,10.7,35.2-3.5,48.5-14.1,7.2-5.8,14.1-12,21.4-17.7.1-.1.8-.6.9-.6h0Z"/>
  <path fill="currentColor" d="M1.2,51.1c.2,0,.3,0,.4-.2,5.5-5.2,10.8-10.7,16.4-15.8s6.9-5.1,10.8-6.5c16-5.8,32.4,3.1,43.7,14.1-1.3,1.3-5.2,4-6.7,5.1-4.8-3.4-10.1-6.3-15.8-7.8-9.1-2.4-16.8-1.3-24,4.9-5.4,4.6-10.4,9.7-15.8,14.3l-.5.3L1.1,51.2h0Z"/>
  <path fill="currentColor" d="M41.4,42.7c-4.3,0-7.7,3.4-7.7,7.7s3.4,7.7,7.7,7.7,7.7-3.4,7.7-7.7-3.4-7.7-7.7-7.7ZM41.5,53c-1.5,0-2.6-1.2-2.6-2.6s1.2-2.6,2.6-2.6,2.6,1.2,2.6,2.6-1.2,2.6-2.6,2.6Z"/>
  <metadata>
    <sfw xmlns="http://ns.adobe.com/SaveForWeb/1.0/">
      <slices/>
      <sliceSourceBounds x="1.14" y="26.06" width="97.97" height="47.76" bottomLeftOrigin="true"/>
    </sfw>
  </metadata>
</svg>